<svg width="200" height="200" viewBox="0 0 200 200" fill="none" xmlns="http://www.w3.org/2000/svg">
<path d="M43.3345 144.08C49.0789 144.08 53.7356 139.42 53.7356 133.672C53.7356 127.923 49.0789 123.263 43.3345 123.263C37.5901 123.263 32.9333 127.923 32.9333 133.672C32.9333 139.42 37.5901 144.08 43.3345 144.08Z" fill="#F2F2F2"/>
<path d="M45.0257 142.557C50.7701 142.557 55.4268 137.897 55.4268 132.148C55.4268 126.4 50.7701 121.74 45.0257 121.74C39.2813 121.74 34.6246 126.4 34.6246 132.148C34.6246 137.897 39.2813 142.557 45.0257 142.557Z" fill="#FFCB05"/>
<path d="M182.092 120.631H53.4022V120.982H182.092V120.631Z" fill="#3F3D56"/>
<path d="M120.051 45.2771H74.374V44.335H53.6622V45.2771H7.79692C7.39118 45.2771 6.9894 45.3571 6.61454 45.5125C6.23968 45.6678 5.89907 45.8956 5.61217 46.1827C5.32526 46.4698 5.09768 46.8107 4.9424 47.1858C4.78713 47.561 4.70721 47.963 4.70721 48.3691V110.961C4.70721 111.781 5.03273 112.567 5.61217 113.147C6.1916 113.727 6.97748 114.053 7.79692 114.053H120.051C120.87 114.053 121.656 113.727 122.236 113.147C122.815 112.567 123.141 111.781 123.141 110.961V48.3691C123.141 47.963 123.061 47.561 122.906 47.1858C122.75 46.8107 122.523 46.4698 122.236 46.1827C121.949 45.8956 121.608 45.6678 121.233 45.5125C120.859 45.3571 120.457 45.2771 120.051 45.2771Z" fill="#3F3D56"/>
<path d="M118.998 50.7416H8.84961V112.922H118.998V50.7416Z" fill="#FFCB05"/>
<path d="M63.8298 49.0455C64.4537 49.0455 64.9595 48.5394 64.9595 47.915C64.9595 47.2906 64.4537 46.7844 63.8298 46.7844C63.2059 46.7844 62.7001 47.2906 62.7001 47.915C62.7001 48.5394 63.2059 49.0455 63.8298 49.0455Z" fill="#FFCB05"/>
<path opacity="0.1" d="M87.4977 112.922H8.84961V50.7416L87.4977 112.922Z" fill="black"/>
<path d="M26.0845 108.269C31.932 108.269 36.6724 103.525 36.6724 97.6736C36.6724 91.8218 31.932 87.078 26.0845 87.078C20.237 87.078 15.4967 91.8218 15.4967 97.6736C15.4967 103.525 20.237 108.269 26.0845 108.269Z" fill="#F2F2F2"/>
<path d="M99.8196 84.276H89.5305V86.4275H99.8196V84.276Z" fill="#3F3D56"/>
<path d="M112.259 67.5248H77.0914V68.4469H112.259V67.5248Z" fill="#3F3D56"/>
<path d="M112.259 70.4448H77.0914V71.3669H112.259V70.4448Z" fill="#3F3D56"/>
<path d="M112.259 73.3647H77.0914V74.2868H112.259V73.3647Z" fill="#3F3D56"/>
<path d="M112.259 76.2847H77.0914V77.2068H112.259V76.2847Z" fill="#3F3D56"/>
<path d="M112.259 79.2046H77.0914V80.1267H112.259V79.2046Z" fill="#3F3D56"/>
<path d="M112.259 52.0029H107.959V56.306H112.259V52.0029Z" fill="#F2F2F2"/>
<path d="M114.255 58.3039H109.034V53.0787H114.255V58.3039ZM109.261 58.0767H114.028V53.3059H109.261V58.0767Z" fill="#3F3D56"/>
<path d="M126.233 111.792H115.484V111.017C115.484 110.996 115.48 110.976 115.472 110.958C115.464 110.939 115.453 110.922 115.439 110.908C115.424 110.894 115.407 110.882 115.389 110.875C115.37 110.867 115.35 110.863 115.33 110.863H111.644C111.624 110.863 111.604 110.867 111.586 110.875C111.567 110.882 111.55 110.894 111.536 110.908C111.522 110.922 111.51 110.939 111.503 110.958C111.495 110.976 111.491 110.996 111.491 111.017V111.792H109.187V111.017C109.187 110.996 109.183 110.976 109.176 110.958C109.168 110.939 109.157 110.922 109.142 110.908C109.128 110.894 109.111 110.882 109.092 110.875C109.074 110.867 109.054 110.863 109.034 110.863H105.348C105.328 110.863 105.308 110.867 105.289 110.875C105.271 110.882 105.254 110.894 105.239 110.908C105.225 110.922 105.214 110.939 105.206 110.958C105.198 110.976 105.195 110.996 105.195 111.017V111.792H102.891V111.017C102.891 110.996 102.887 110.976 102.879 110.958C102.872 110.939 102.86 110.922 102.846 110.908C102.832 110.894 102.815 110.882 102.796 110.875C102.778 110.867 102.758 110.863 102.737 110.863H99.0518C99.0316 110.863 99.0116 110.867 98.993 110.875C98.9744 110.882 98.9574 110.894 98.9432 110.908C98.9289 110.922 98.9176 110.939 98.9099 110.958C98.9022 110.976 98.8982 110.996 98.8982 111.017V111.792H96.5947V111.017C96.5947 110.996 96.5907 110.976 96.583 110.958C96.5753 110.939 96.5639 110.922 96.5497 110.908C96.5354 110.894 96.5185 110.882 96.4999 110.875C96.4812 110.867 96.4613 110.863 96.4411 110.863H92.7554C92.7353 110.863 92.7153 110.867 92.6967 110.875C92.678 110.882 92.6611 110.894 92.6469 110.908C92.6326 110.922 92.6213 110.939 92.6136 110.958C92.6058 110.976 92.6019 110.996 92.6019 111.017V111.792H90.2983V111.017C90.2983 110.996 90.2944 110.976 90.2867 110.958C90.2789 110.939 90.2676 110.922 90.2534 110.908C90.2391 110.894 90.2222 110.882 90.2036 110.875C90.1849 110.867 90.1649 110.863 90.1448 110.863H86.4591C86.439 110.863 86.419 110.867 86.4004 110.875C86.3817 110.882 86.3648 110.894 86.3505 110.908C86.3363 110.922 86.325 110.939 86.3173 110.958C86.3095 110.976 86.3056 110.996 86.3056 111.017V111.792H84.002V111.017C84.002 110.996 83.9981 110.976 83.9903 110.958C83.9826 110.939 83.9713 110.922 83.9571 110.908C83.9428 110.894 83.9259 110.882 83.9072 110.875C83.8886 110.867 83.8686 110.863 83.8485 110.863H80.1628C80.1427 110.863 80.1227 110.867 80.104 110.875C80.0854 110.882 80.0685 110.894 80.0542 110.908C80.04 110.922 80.0287 110.939 80.0209 110.958C80.0132 110.976 80.0092 110.996 80.0092 111.017V111.792H77.7057V111.017C77.7057 110.996 77.7017 110.976 77.694 110.958C77.6863 110.939 77.675 110.922 77.6607 110.908C77.6465 110.894 77.6295 110.882 77.6109 110.875C77.5923 110.867 77.5723 110.863 77.5521 110.863H48.6813C48.6611 110.863 48.6411 110.867 48.6225 110.875C48.6039 110.882 48.5869 110.894 48.5727 110.908C48.5584 110.922 48.5471 110.939 48.5394 110.958C48.5317 110.976 48.5277 110.996 48.5277 111.017V111.792H46.2242V111.017C46.2242 110.996 46.2202 110.976 46.2125 110.958C46.2048 110.939 46.1934 110.922 46.1792 110.908C46.1649 110.894 46.148 110.882 46.1294 110.875C46.1107 110.867 46.0908 110.863 46.0706 110.863H42.3849C42.3648 110.863 42.3448 110.867 42.3262 110.875C42.3075 110.882 42.2906 110.894 42.2763 110.908C42.2621 110.922 42.2508 110.939 42.2431 110.958C42.2353 110.976 42.2314 110.996 42.2314 111.017V111.792H39.9278V111.017C39.9278 110.996 39.9239 110.976 39.9161 110.958C39.9084 110.939 39.8971 110.922 39.8829 110.908C39.8686 110.894 39.8517 110.882 39.833 110.875C39.8144 110.867 39.7944 110.863 39.7743 110.863H36.0886C36.0685 110.863 36.0485 110.867 36.0299 110.875C36.0112 110.882 35.9943 110.894 35.98 110.908C35.9658 110.922 35.9545 110.939 35.9467 110.958C35.939 110.976 35.9351 110.996 35.9351 111.017V111.792H33.6315V111.017C33.6315 110.996 33.6276 110.976 33.6198 110.958C33.6121 110.939 33.6008 110.922 33.5865 110.908C33.5723 110.894 33.5554 110.882 33.5367 110.875C33.5181 110.867 33.4981 110.863 33.478 110.863H29.7923C29.7721 110.863 29.7522 110.867 29.7335 110.875C29.7149 110.882 29.698 110.894 29.6837 110.908C29.6695 110.922 29.6581 110.939 29.6504 110.958C29.6427 110.976 29.6387 110.996 29.6387 111.017V111.792H27.3352V111.017C27.3352 110.996 27.3312 110.976 27.3235 110.958C27.3158 110.939 27.3045 110.922 27.2902 110.908C27.276 110.894 27.2591 110.882 27.2404 110.875C27.2218 110.867 27.2018 110.863 27.1817 110.863H23.496C23.4758 110.863 23.4559 110.867 23.4372 110.875C23.4186 110.882 23.4017 110.894 23.3874 110.908C23.3731 110.922 23.3618 110.939 23.3541 110.958C23.3464 110.976 23.3424 110.996 23.3424 111.017V111.792H21.0389V111.017C21.0389 110.996 21.0349 110.976 21.0272 110.958C21.0195 110.939 21.0082 110.922 20.9939 110.908C20.9797 110.894 20.9627 110.882 20.9441 110.875C20.9255 110.867 20.9055 110.863 20.8853 110.863H17.1997C17.1795 110.863 17.1595 110.867 17.1409 110.875C17.1223 110.882 17.1054 110.894 17.0911 110.908C17.0768 110.922 17.0655 110.939 17.0578 110.958C17.0501 110.976 17.0461 110.996 17.0461 111.017V111.792H14.7426V111.017C14.7426 110.996 14.7386 110.976 14.7309 110.958C14.7232 110.939 14.7119 110.922 14.6976 110.908C14.6833 110.894 14.6664 110.882 14.6478 110.875C14.6292 110.867 14.6092 110.863 14.589 110.863H10.9034C10.8832 110.863 10.8632 110.867 10.8446 110.875C10.826 110.882 10.809 110.894 10.7948 110.908C10.7805 110.922 10.7692 110.939 10.7615 110.958C10.7538 110.976 10.7498 110.996 10.7498 111.017V111.792H3.68565C2.70815 111.792 1.77069 112.18 1.0795 112.872C0.388309 113.564 9.3126e-07 114.502 0 115.48V117.148C2.79378e-06 118.126 0.388312 119.064 1.0795 119.756C1.7707 120.448 2.70815 120.836 3.68565 120.836H126.233C127.211 120.836 128.148 120.448 128.84 119.756C129.531 119.064 129.919 118.126 129.919 117.148V115.48C129.919 114.502 129.531 113.564 128.84 112.872C128.148 112.18 127.211 111.792 126.233 111.792Z" fill="#3F3D56"/>
<path d="M28.6474 104.291C26.0084 104.291 23.4286 103.508 21.2344 102.041C19.0401 100.574 17.3299 98.4885 16.32 96.0486C15.3101 93.6086 15.0459 90.9238 15.5607 88.3336C16.0756 85.7434 17.3464 83.3642 19.2124 81.4968C21.0785 79.6293 23.456 78.3576 26.0443 77.8424C28.6326 77.3272 31.3154 77.5916 33.7535 78.6022C36.1916 79.6129 38.2755 81.3244 39.7417 83.5202C41.2078 85.7161 41.9904 88.2977 41.9904 90.9386C41.9864 94.4788 40.5793 97.8728 38.0779 100.376C35.5765 102.879 32.1849 104.287 28.6474 104.291ZM28.6474 77.9372C26.0778 77.9372 23.566 78.6997 21.4295 80.1283C19.2929 81.557 17.6277 83.5875 16.6444 85.9632C15.6611 88.3389 15.4038 90.9531 15.9051 93.4751C16.4064 95.9971 17.6437 98.3138 19.4607 100.132C21.2777 101.95 23.5926 103.189 26.1128 103.69C28.633 104.192 31.2452 103.934 33.6192 102.95C35.9931 101.966 38.0222 100.3 39.4497 98.1619C40.8773 96.0238 41.6393 93.5101 41.6393 90.9386C41.6354 87.4916 40.2653 84.1869 37.8297 81.7495C35.3941 79.3122 32.0918 77.9411 28.6474 77.9372Z" fill="#3F3D56"/>
<path d="M147.681 47.7177H102.912V48.069H147.681V47.7177Z" fill="#3F3D56"/>
<path d="M200 140.485H71.31V140.836H200V140.485Z" fill="#3F3D56"/>
<path d="M78.596 156.649H33.8267V157H78.596V156.649Z" fill="#3F3D56"/>
<path d="M87.6076 138.632H82.6917V143.552H87.6076V138.632Z" fill="#FFCB05"/>
<path d="M90.5922 140.741H84.6229V134.767H90.5922V140.741ZM84.8825 140.481H90.3327V135.027H84.8825V140.481Z" fill="#3F3D56"/>
<path d="M144.667 45.8654H139.751V50.7848H144.667V45.8654Z" fill="#FFCB05"/>
<path d="M147.651 47.9736H141.682V42H147.651V47.9736ZM141.942 47.7139H147.392V42.2597H141.942V47.7139Z" fill="#3F3D56"/>
<path d="M194.176 138.632H189.26V143.552H194.176V138.632Z" fill="#FFCB05"/>
<path d="M197.161 140.741H191.192V134.767H197.161V140.741ZM191.451 140.481H196.901V135.027H191.451V140.481Z" fill="#3F3D56"/>
<path d="M185.604 82.754H185.186V71.3054C185.186 70.4353 185.015 69.5736 184.682 68.7697C184.349 67.9658 183.862 67.2354 183.247 66.6201C182.632 66.0048 181.902 65.5167 181.099 65.1837C180.295 64.8507 179.434 64.6793 178.565 64.6793H154.327C153.458 64.6793 152.597 64.8507 151.793 65.1837C150.99 65.5167 150.26 66.0048 149.645 66.6201C149.03 67.2354 148.543 67.9658 148.21 68.7697C147.877 69.5736 147.706 70.4353 147.706 71.3054V134.113C147.706 134.983 147.877 135.845 148.21 136.649C148.543 137.453 149.03 138.183 149.645 138.799C150.26 139.414 150.99 139.902 151.793 140.235C152.597 140.568 153.458 140.739 154.327 140.739H178.565C179.434 140.739 180.295 140.568 181.099 140.235C181.902 139.902 182.632 139.414 183.247 138.799C183.862 138.183 184.349 137.453 184.682 136.649C185.015 135.845 185.186 134.983 185.186 134.113V90.9033H185.604V82.754Z" fill="#3F3D56"/>
<path d="M183.776 71.6948V134.411C183.776 135.723 183.255 136.982 182.328 137.91C181.401 138.838 180.144 139.36 178.832 139.36H154.478C153.166 139.36 151.908 138.838 150.981 137.91C150.054 136.982 149.533 135.723 149.534 134.411V71.6948C149.534 70.3826 150.055 69.1243 150.982 68.1965C151.909 67.2686 153.166 66.7473 154.478 66.7472H157.432C157.287 67.1041 157.231 67.4914 157.271 67.8748C157.31 68.2583 157.443 68.6262 157.658 68.9461C157.873 69.266 158.163 69.5281 158.503 69.7093C158.843 69.8905 159.222 69.9853 159.608 69.9852H173.493C173.878 69.9853 174.258 69.8905 174.598 69.7093C174.938 69.5281 175.228 69.266 175.443 68.9461C175.658 68.6262 175.791 68.2583 175.83 67.8748C175.869 67.4914 175.814 67.1041 175.668 66.7472H178.832C180.143 66.7473 181.401 67.2686 182.328 68.1965C183.255 69.1243 183.776 70.3826 183.776 71.6948Z" fill="#FFCB05"/>
<path d="M170.282 108.1H163.027V110.251H170.282V108.1Z" fill="#3F3D56"/>
<path d="M179.053 91.3484H154.256V92.2705H179.053V91.3484Z" fill="#3F3D56"/>
<path d="M179.053 94.2682H154.256V95.1903H179.053V94.2682Z" fill="#3F3D56"/>
<path d="M179.053 97.1882H154.256V98.1103H179.053V97.1882Z" fill="#3F3D56"/>
<path d="M179.053 100.108H154.256V101.03H179.053V100.108Z" fill="#3F3D56"/>
<path d="M179.053 103.028H154.256V103.95H179.053V103.028Z" fill="#3F3D56"/>
<path d="M167.521 79.103H163.221V83.4061H167.521V79.103Z" fill="#F2F2F2"/>
<path d="M164.867 80.1791V85.4043H170.089V80.1791H164.867ZM169.862 85.1776H165.094V80.4057H169.862V85.1776Z" fill="#3F3D56"/>
<path opacity="0.1" d="M183.776 127.713V134.411C183.776 135.723 183.255 136.982 182.328 137.91C181.401 138.838 180.144 139.36 178.832 139.36H154.478C153.166 139.36 151.908 138.838 150.981 137.91C150.054 136.982 149.533 135.723 149.534 134.411V100.641L170.052 116.862L170.403 117.14L174.22 120.157L174.576 120.44L183.776 127.713Z" fill="black"/>
<path d="M164.548 137.328C168.802 137.328 172.25 133.877 172.25 129.62C172.25 125.364 168.802 121.913 164.548 121.913C160.294 121.913 156.846 125.364 156.846 129.62C156.846 133.877 160.294 137.328 164.548 137.328Z" fill="#F2F2F2"/>
<path d="M56.2113 157C53.1903 157 50.2372 156.104 47.7254 154.424C45.2135 152.744 43.2558 150.357 42.0997 147.564C40.9436 144.771 40.6411 141.698 41.2305 138.732C41.8199 135.767 43.2746 133.044 45.4107 130.906C47.5469 128.768 50.2685 127.313 53.2314 126.723C56.1943 126.133 59.2655 126.436 62.0565 127.593C64.8475 128.75 67.233 130.709 68.9114 133.222C70.5897 135.736 71.4856 138.691 71.4856 141.715C71.481 145.767 69.8703 149.652 67.0068 152.518C64.1433 155.384 60.2609 156.995 56.2113 157ZM56.2113 126.78C53.2598 126.78 50.3745 127.656 47.9204 129.297C45.4663 130.938 43.5536 133.271 42.4241 136C41.2946 138.728 40.9991 141.731 41.5749 144.628C42.1507 147.525 43.572 150.186 45.659 152.275C47.7461 154.363 50.4051 155.785 53.2999 156.362C56.1947 156.938 59.1953 156.642 61.9221 155.512C64.649 154.381 66.9797 152.467 68.6194 150.011C70.2592 147.556 71.1344 144.668 71.1344 141.715C71.13 137.755 69.5563 133.959 66.7586 131.16C63.9609 128.36 60.1678 126.785 56.2113 126.78Z" fill="#3F3D56"/>
<path d="M166.818 135.565C164.908 135.565 163.041 134.998 161.453 133.937C159.865 132.875 158.628 131.366 157.897 129.6C157.166 127.834 156.975 125.891 157.347 124.017C157.72 122.142 158.64 120.42 159.99 119.069C161.341 117.718 163.061 116.797 164.934 116.424C166.807 116.052 168.749 116.243 170.513 116.974C172.278 117.706 173.786 118.944 174.847 120.533C175.908 122.123 176.474 123.991 176.474 125.902C176.471 128.464 175.453 130.92 173.643 132.732C171.832 134.543 169.378 135.562 166.818 135.565ZM166.818 116.59C164.978 116.59 163.179 117.136 161.648 118.159C160.118 119.183 158.926 120.637 158.221 122.339C157.517 124.04 157.333 125.912 157.692 127.719C158.051 129.525 158.937 131.184 160.238 132.486C161.54 133.789 163.198 134.676 165.003 135.035C166.808 135.394 168.679 135.21 170.379 134.505C172.079 133.8 173.532 132.607 174.555 131.075C175.577 129.544 176.123 127.744 176.123 125.902C176.12 123.433 175.139 121.066 173.395 119.321C171.65 117.575 169.285 116.593 166.818 116.59Z" fill="#3F3D56"/>
</svg>
