<svg width="199" height="200" viewBox="0 0 199 200" fill="none" xmlns="http://www.w3.org/2000/svg">
<g clip-path="url(#clip0)">
<path opacity="0.1" d="M61.4478 37.9308C68.1995 31.8491 78.799 30.6107 88.446 31.0947C118.748 32.6155 146.101 47.3866 169.761 64.0953C178.326 70.1443 186.759 76.6686 192.324 84.9928C203.643 101.95 200.285 125.441 184.547 139.409C179.193 144.163 172.701 147.806 166.037 151.037C154.189 156.779 141.407 161.389 127.957 162.701C118.367 163.636 108.667 162.873 99.1247 161.571C72.4882 157.923 46.3426 149.859 24.4272 136.056C14.8112 130.004 5.75152 122.478 1.79007 112.682C-2.17138 102.885 0.363946 90.482 10.178 84.6862C14.2376 82.2887 19.0896 81.207 23.8416 80.1891C30.8361 78.6941 37.9409 77.218 44.2534 74.1763C50.7726 71.0347 58.4905 64.9582 57.2005 58.0033C55.8157 50.5471 54.7048 43.9935 61.4478 37.9308Z" fill="#FFCB05"/>
<path d="M44.2139 108.13C44.2139 108.13 46 106.85 47.8481 107.64C47.8481 107.64 47.3314 108.739 45.0286 108.725L44.2139 108.13Z" fill="#FFCB05"/>
<path d="M43.9916 108.204C43.9916 108.204 43.5145 110.348 44.9682 111.74C44.9682 111.74 45.7743 110.832 44.858 108.72L43.9916 108.204Z" fill="#FFCB05"/>
<path d="M41.6302 106.252C41.6302 106.252 41.6957 104.442 45.7949 104.884C45.7949 104.884 45.8587 106.049 44.4498 106.655C43.0409 107.261 42.3657 106.826 41.6302 106.252Z" fill="#FFCB05"/>
<path d="M41.3771 106.249C41.3771 106.249 39.6737 106.869 41.3582 110.634C41.3582 110.634 42.4846 110.336 42.6275 108.808C42.7705 107.28 42.147 106.776 41.3771 106.249Z" fill="#FFCB05"/>
<path d="M38.9709 103.777C38.9709 103.777 38.6264 100.815 42.8015 100.959C42.8015 100.959 43.1993 103.637 39.7339 104.463L38.9709 103.777Z" fill="#FFCB05"/>
<path d="M36.0894 100.529C36.0894 100.529 36.532 97.1408 40.7398 97.983C40.7398 97.983 40.8672 100.894 36.8059 101.306L36.0894 100.529Z" fill="#FFCB05"/>
<path d="M33.9451 97.1373C33.9451 97.1373 34.7753 93.8148 38.94 94.645C38.94 94.645 38.0788 97.6333 34.243 97.7332L33.9451 97.1373Z" fill="#FFCB05"/>
<path d="M31.904 93.8252C31.904 93.8252 32.7083 90.3804 36.7266 91.2554C36.7266 91.2554 35.521 94.54 32.1847 94.3953L31.904 93.8252Z" fill="#FFCB05"/>
<path d="M30.5485 90.656C30.5485 90.656 31.1083 86.4655 34.8545 87.244C34.8545 87.244 33.9209 91.0729 30.8413 91.2503L30.5485 90.656Z" fill="#FFCB05"/>
<path d="M29.2446 86.8134C29.2446 86.8134 29.9456 82.585 33.7486 83.6615C33.7486 83.6615 32.4258 87.6832 29.5288 87.3835L29.2446 86.8134Z" fill="#FFCB05"/>
<path d="M28.3904 83.2292C28.3904 83.2292 29.596 78.9818 32.5103 78.9835C32.5103 78.9835 31.2788 83.4617 28.666 84.0611L28.3904 83.2292Z" fill="#FFCB05"/>
<path d="M27.8013 79.7121C27.8013 79.7121 29.0982 74.6036 31.4785 74.9033C31.4785 74.9033 30.595 78.8027 27.9149 80.4958L27.8013 79.7121Z" fill="#FFCB05"/>
<path d="M27.3828 75.5061C27.3828 75.5061 28.6178 71.2449 30.9464 70.9866C30.9464 70.9866 30.1541 75.1633 27.4758 76.598L27.3828 75.5061Z" fill="#FFCB05"/>
<path d="M26.9487 71.5928C26.9487 71.5928 28.5299 67.3127 30.0697 67.1577C30.0697 67.1577 29.472 71.3344 27.1296 72.2783L26.9487 71.5928Z" fill="#FFCB05"/>
<path d="M26.6163 67.9448C26.6163 67.9448 27.5119 63.3271 29.0379 62.8896C29.0379 62.8896 28.9708 66.6392 26.7833 68.2807L26.6163 67.9448Z" fill="#FFCB05"/>
<path d="M25.8533 63.1842C25.8533 63.1842 26.8403 59.4949 28.0666 58.8903C28.0666 58.8903 27.9839 63.1962 26.172 64.0574L25.8533 63.1842Z" fill="#FFCB05"/>
<path d="M25.2505 60.0599L24.7769 53.6389C24.7769 53.6389 27.2915 58.403 25.4658 61.1881L25.2505 60.0599Z" fill="#FFCB05"/>
<path d="M23.2008 53.7388C23.2008 53.7388 21.3424 49.1073 20.929 48.861C20.929 48.861 24.3393 51.7891 24.1671 55.7126L23.2008 53.7388Z" fill="#FFCB05"/>
<path d="M38.8572 103.76C38.8572 103.76 35.8861 103.486 36.1358 107.658C36.1358 107.658 38.8227 107.99 39.5616 104.504L38.8572 103.76Z" fill="#FFCB05"/>
<path d="M35.9464 100.422C35.9464 100.422 32.5326 100.541 32.9736 104.804C32.9736 104.804 35.8585 105.207 36.6526 101.202L35.9464 100.422Z" fill="#FFCB05"/>
<path d="M33.9227 97.4163C33.9227 97.4163 30.7673 96.0815 28.9278 99.9086C28.9278 99.9086 31.8369 101.009 34.2189 98.014L33.9227 97.4163Z" fill="#FFCB05"/>
<path d="M31.835 93.8596C31.835 93.8596 28.6039 92.4335 26.8798 96.1711C26.8798 96.1711 30.2298 97.1821 32.1192 94.428L31.835 93.8596Z" fill="#FFCB05"/>
<path d="M30.5916 90.7439C30.5916 90.7439 27.4258 87.9433 25.1024 90.9885C25.1024 90.9885 28.3146 93.2689 30.7569 91.3881L30.5916 90.7439Z" fill="#FFCB05"/>
<path d="M29.4134 86.7066C29.4134 86.7066 26.227 83.8406 23.9277 87.0511C23.9277 87.0511 27.4706 89.3677 29.5478 87.3249L29.4134 86.7066Z" fill="#FFCB05"/>
<path d="M28.7003 83.0931C28.7003 83.0931 26.1908 79.4589 23.4351 80.3958C23.4351 80.3958 26.0427 84.2471 28.7072 83.9698L28.7003 83.0931Z" fill="#FFCB05"/>
<path d="M27.8719 79.6862C27.8719 79.6862 25.3038 75.0841 23.082 75.9849C23.082 75.9849 24.9387 79.526 27.9614 80.4716L27.8719 79.6862Z" fill="#FFCB05"/>
<path d="M27.5361 75.2598C27.5361 75.2598 24.9422 71.66 22.6635 72.1991C22.6635 72.1991 24.8113 75.8678 27.8151 76.3208L27.5361 75.2598Z" fill="#FFCB05"/>
<path d="M27.2054 71.4997C27.2054 71.4997 25.1472 67.4281 23.6005 67.4505C23.6005 67.4505 24.6701 71.5325 27.1038 72.2008L27.2054 71.4997Z" fill="#FFCB05"/>
<path d="M26.6886 67.8518C26.6886 67.8518 24.4151 63.7354 22.8271 63.787C22.8271 63.787 24.0465 67.3351 26.6318 68.2239L26.6886 67.8518Z" fill="#FFCB05"/>
<path d="M26.2012 63.4219C26.2012 63.4219 24.4875 60.0082 23.1647 59.6654C23.1647 59.6654 24.1171 63.868 26.0617 64.3502L26.2012 63.4219Z" fill="#FFCB05"/>
<path d="M25.0575 59.9461L21.3217 54.7032C21.3217 54.7032 22.4292 59.9771 25.6121 60.952L25.0575 59.9461Z" fill="#FFCB05"/>
<path d="M22.4104 54.202C22.4104 54.202 18.2061 51.5271 18.0338 51.0742C18.0338 51.0742 20.2729 54.9633 24.1758 55.5144L22.4104 54.202Z" fill="#FFCB05"/>
<path d="M22.1157 52.9378C22.1157 52.9378 17.2311 48.5889 16.0289 48.6405C16.0289 48.6405 19.9214 48.6681 22.2294 52.6933L22.1157 52.9378Z" fill="#FFCB05"/>
<path d="M26.1806 64.1108L26.0084 64.1401C24.8578 57.242 23.4093 53.1962 21.9315 52.7449L21.9815 52.5727C23.5454 53.0481 25.0025 57.0354 26.1806 64.1108Z" fill="#444053"/>
<path d="M28.1182 80.625L27.8598 80.656C27.7806 80.0118 27.7117 79.3504 27.6583 78.6924C27.1915 72.9656 26.6059 67.7123 25.9514 63.7819L26.0944 63.5907C26.7506 67.528 27.4499 72.9363 27.9184 78.6718C27.9717 79.3263 28.0389 79.9825 28.1182 80.625Z" fill="#444053"/>
<path d="M49.1794 111.243C49.1329 111.224 44.4894 109.361 39.5634 104.679C36.6786 101.939 34.2463 98.7595 32.357 95.2581C29.9956 90.8816 28.4506 85.4492 27.7979 80.1409L28.0734 80.258C29.5374 92.1733 35.2936 100.138 39.7856 104.418C44.6633 109.058 49.2586 110.902 49.3017 110.92L49.1794 111.243Z" fill="#444053"/>
<g opacity="0.7">
<path opacity="0.7" d="M51.4202 97.2166C51.4202 97.2166 53.506 96.5276 55.0372 97.8315C55.0372 97.8315 54.2156 98.7271 52.0213 98.0278L51.4202 97.2166Z" fill="#FFCB05"/>
<path opacity="0.7" d="M51.186 97.22C51.186 97.22 50.094 99.1267 51.0672 100.885C51.0672 100.885 52.1005 100.26 51.8611 97.971L51.186 97.22Z" fill="#FFCB05"/>
<path opacity="0.7" d="M49.5101 94.6554C49.5101 94.6554 50.113 92.9468 53.8936 94.5882C53.8936 94.5882 53.6094 95.7198 52.0816 95.8783C50.5539 96.0368 50.0441 95.4184 49.5101 94.6554Z" fill="#FFCB05"/>
<path opacity="0.7" d="M49.2708 94.5779C49.2708 94.5779 47.4622 94.664 47.948 98.7581C47.948 98.7581 49.114 98.8098 49.7048 97.3922C50.2956 95.9747 49.8495 95.3082 49.2708 94.5779Z" fill="#FFCB05"/>
<path opacity="0.7" d="M47.7102 91.4966C47.7102 91.4966 48.2596 88.5685 52.2039 89.9464C52.2039 89.9464 51.7888 92.6213 48.2338 92.3784L47.7102 91.4966Z" fill="#FFCB05"/>
<path opacity="0.7" d="M45.9258 87.5351C45.9258 87.5351 47.3554 84.4349 51.1171 86.4879C51.1171 86.4879 50.373 89.304 46.3719 88.4893L45.9258 87.5351Z" fill="#FFCB05"/>
<path opacity="0.7" d="M44.8856 83.6684C44.8856 83.6684 46.6682 80.7404 50.3972 82.7745C50.3972 82.7745 48.6748 85.3684 44.9941 84.3246L44.8856 83.6684Z" fill="#FFCB05"/>
<path opacity="0.7" d="M43.9227 79.8981C43.9227 79.8981 45.714 76.8529 49.2948 78.8801C49.2948 78.8801 47.1677 81.6566 44.0261 80.5267L43.9227 79.8981Z" fill="#FFCB05"/>
<path opacity="0.7" d="M43.5714 76.4689C43.5714 76.4689 45.3523 72.6349 48.7006 74.4951C48.7006 74.4951 46.6699 77.8709 43.6781 77.1251L43.5714 76.4689Z" fill="#FFCB05"/>
<path opacity="0.7" d="M43.4714 72.4127C43.4714 72.4127 45.3988 68.5839 48.7074 70.7437C48.7074 70.7437 46.2496 74.1885 43.5731 73.0414L43.4714 72.4127Z" fill="#FFCB05"/>
<path opacity="0.7" d="M43.7247 68.7319C43.7247 68.7319 46.136 65.0358 48.9193 65.9038C48.9193 65.9038 46.4098 69.8188 43.7384 69.6086L43.7247 68.7319Z" fill="#FFCB05"/>
<path opacity="0.7" d="M44.2139 65.2028C44.2139 65.2028 46.9696 60.7126 49.1553 61.7064C49.1553 61.7064 47.1505 65.1666 44.0898 65.9848L44.2139 65.2028Z" fill="#FFCB05"/>
<path opacity="0.7" d="M45.0561 61.064C45.0561 61.064 47.5053 57.3626 49.8029 57.8087C49.8029 57.8087 47.805 61.5618 44.8218 62.1336L45.0561 61.064Z" fill="#FFCB05"/>
<path opacity="0.7" d="M45.8087 57.1972C45.8087 57.1972 48.5904 53.5802 50.106 53.8937C50.106 53.8937 48.2924 57.7036 45.776 57.9051L45.8087 57.1972Z" fill="#FFCB05"/>
<path opacity="0.7" d="M46.5753 53.6165C46.5753 53.6165 48.804 49.4828 50.392 49.5103C50.392 49.5103 49.2105 53.0705 46.6355 53.9885L46.5753 53.6165Z" fill="#FFCB05"/>
<path opacity="0.7" d="M47.2624 48.8438C47.2624 48.8438 49.3034 45.6161 50.6537 45.399C50.6537 45.399 49.293 49.488 47.3089 49.7756L47.2624 48.8438Z" fill="#FFCB05"/>
<path opacity="0.7" d="M47.6173 45.6814L49.0761 39.4086C49.0761 39.4086 50.0596 44.7049 47.4864 46.8148L47.6173 45.6814Z" fill="#FFCB05"/>
<path opacity="0.7" d="M47.5449 39.0383C47.5449 39.0383 47.147 34.0641 46.8267 33.699C46.8267 33.699 49.2138 37.502 47.8807 41.2051L47.5449 39.0383Z" fill="#FFCB05"/>
<path opacity="0.7" d="M47.6052 91.4501C47.6052 91.4501 44.8494 90.3064 43.8487 94.3643C43.8487 94.3643 46.3134 95.4804 48.0564 92.3715L47.6052 91.4501Z" fill="#FFCB05"/>
<path opacity="0.7" d="M45.8191 87.3973C45.8191 87.3973 42.5242 86.4965 41.6768 90.6974C41.6768 90.6974 44.312 91.9409 46.2617 88.3532L45.8191 87.3973Z" fill="#FFCB05"/>
<path opacity="0.7" d="M44.7822 83.9267C44.7822 83.9267 42.1676 81.7135 39.2706 84.8207C39.2706 84.8207 41.7198 86.7377 44.8872 84.583L44.7822 83.9267Z" fill="#FFCB05"/>
<path opacity="0.7" d="M43.8479 79.9101C43.8479 79.9101 41.1851 77.5884 38.4293 80.6421C38.4293 80.6421 41.3263 82.6056 43.9495 80.5388L43.8479 79.9101Z" fill="#FFCB05"/>
<path opacity="0.7" d="M43.5886 76.5671C43.5886 76.5671 41.3978 72.9501 38.2734 75.1651C38.2734 75.1651 40.6623 78.2998 43.5542 77.2319L43.5886 76.5671Z" fill="#FFCB05"/>
<path opacity="0.7" d="M43.6641 72.361C43.6641 72.361 41.4733 68.6768 38.3248 71.0606C38.3248 71.0606 41.0186 74.3331 43.6073 72.9949L43.6641 72.361Z" fill="#FFCB05"/>
<path opacity="0.7" d="M44.0571 68.6976C44.0571 68.6976 42.7429 64.4829 39.8338 64.5639C39.8338 64.5639 41.1772 69.0179 43.8039 69.545L44.0571 68.6976Z" fill="#FFCB05"/>
<path opacity="0.7" d="M44.2793 65.1994C44.2793 65.1994 43.1976 60.0409 40.8087 60.2407C40.8087 60.2407 41.5287 64.1746 44.1329 65.9779L44.2793 65.1994Z" fill="#FFCB05"/>
<path opacity="0.7" d="M45.2782 60.8745C45.2782 60.8745 43.8728 56.665 41.5355 56.5014C41.5355 56.5014 42.4949 60.6437 45.2283 61.9699L45.2782 60.8745Z" fill="#FFCB05"/>
<path opacity="0.7" d="M46.0808 57.1852C46.0808 57.1852 45.3264 52.6864 43.8417 52.2472C43.8417 52.2472 43.6505 56.4618 45.7742 57.8259L46.0808 57.1852Z" fill="#FFCB05"/>
<path opacity="0.7" d="M46.6717 53.5493C46.6717 53.5493 45.7261 48.942 44.1949 48.52C44.1949 48.52 44.3035 52.2696 46.5081 53.8869L46.6717 53.5493Z" fill="#FFCB05"/>
<path opacity="0.7" d="M47.5225 49.1814C47.5225 49.1814 46.9024 45.4128 45.7416 44.6912C45.7416 44.6912 45.3971 48.9868 47.1195 50.0305L47.5225 49.1814Z" fill="#FFCB05"/>
<path opacity="0.7" d="M47.4674 45.5093L45.4591 39.3914C45.4591 39.3914 44.9424 44.7549 47.6982 46.634L47.4674 45.5093Z" fill="#FFCB05"/>
<path opacity="0.7" d="M46.6492 39.245C46.6492 39.245 43.4232 35.4368 43.3991 34.9563C43.3991 34.9563 44.386 39.3363 47.941 41.0225L46.6492 39.245Z" fill="#FFCB05"/>
<path opacity="0.7" d="M46.744 37.9515C46.744 37.9515 43.3734 32.3452 42.2108 32.0352C42.2108 32.0352 45.9173 33.2219 46.9163 37.7465L46.744 37.9515Z" fill="#FFCB05"/>
<path opacity="0.7" d="M47.302 49.8151L47.1298 49.791C48.0823 42.8654 47.9049 38.5698 46.6269 37.7L46.7251 37.557C48.0805 38.4819 48.2786 42.7207 47.302 49.8151Z" fill="#444053"/>
<path opacity="0.7" d="M44.2362 66.1777L43.9796 66.1312C44.0967 65.4922 44.2276 64.8411 44.3723 64.1952C45.6314 58.5889 46.6355 53.4011 47.1781 49.4534L47.3727 49.3122C46.8284 53.2736 45.8863 58.6388 44.6272 64.2538C44.4825 64.8859 44.3516 65.5335 44.2362 66.1777Z" fill="#444053"/>
<path opacity="0.7" d="M55.237 101.667C55.1991 101.636 51.3203 98.4756 48.003 92.5386C46.0643 89.0645 44.6889 85.3049 43.9279 81.4C42.9754 76.5188 43.1149 70.8729 44.0726 65.611L44.2999 65.8039C42.1555 77.6159 45.2817 86.934 48.3027 92.3577C51.5752 98.2379 55.4127 101.366 55.4523 101.397L55.237 101.667Z" fill="#444053"/>
</g>
<path d="M174.709 160.886C174.709 160.886 167.427 160.446 168.287 165.55C168.287 165.55 168.114 166.451 168.932 166.861C168.932 166.861 168.946 166.482 169.68 166.611C169.941 166.655 170.206 166.668 170.47 166.649C170.828 166.624 171.167 166.483 171.438 166.249V166.249C171.438 166.249 173.485 165.403 174.28 162.059C174.28 162.059 174.869 161.328 174.847 161.141L173.617 161.657C173.617 161.657 174.038 162.544 173.707 163.28C173.707 163.28 173.667 161.69 173.431 161.73C173.383 161.738 172.792 162.038 172.792 162.038C172.792 162.038 173.516 163.588 172.964 164.704C172.964 164.704 173.171 162.801 172.561 162.148L171.7 162.655C171.7 162.655 172.544 164.249 171.972 165.55C171.972 165.55 172.119 163.554 171.518 162.777L170.734 163.388C170.734 163.388 171.528 164.961 171.044 166.039C171.044 166.039 170.98 163.715 170.565 163.54C170.565 163.54 169.876 164.144 169.775 164.401C169.775 164.401 170.317 165.541 169.981 166.144C169.981 166.144 169.775 164.594 169.604 164.594C169.604 164.594 168.915 165.619 168.85 166.316C168.85 166.316 168.879 165.271 169.439 164.491C169.045 164.565 168.681 164.753 168.393 165.031C168.393 165.031 168.5 164.306 169.599 164.243C169.599 164.243 170.164 163.466 170.315 163.418C170.315 163.418 169.211 163.326 168.543 163.622C168.543 163.622 169.132 162.934 170.517 163.249L171.29 162.617C171.29 162.617 169.838 162.419 169.223 162.637C169.223 162.637 169.931 162.033 171.499 162.474L172.341 161.971C172.341 161.971 171.104 161.704 170.367 161.798C170.367 161.798 171.146 161.378 172.589 161.833L173.192 161.563C173.192 161.563 172.284 161.39 172.019 161.356C171.754 161.321 171.74 161.254 171.74 161.254C172.314 161.158 172.903 161.224 173.442 161.444C173.442 161.444 174.732 160.967 174.709 160.886Z" fill="#FFCB05"/>
<path opacity="0.1" d="M169.694 168.176C172.54 168.176 174.847 167.786 174.847 167.305C174.847 166.824 172.54 166.433 169.694 166.433C166.848 166.433 164.54 166.824 164.54 167.305C164.54 167.786 166.848 168.176 169.694 168.176Z" fill="#FFCB05"/>
<path d="M188.678 147.439C188.678 147.439 184.573 147.193 185.061 150.069C185.036 150.215 185.057 150.365 185.122 150.498C185.188 150.63 185.293 150.739 185.424 150.808C185.424 150.808 185.433 150.594 185.846 150.667C185.993 150.692 186.143 150.7 186.292 150.689C186.493 150.676 186.685 150.596 186.836 150.464V150.464C186.836 150.464 187.99 149.986 188.44 148.1C188.44 148.1 188.772 147.689 188.759 147.584L188.07 147.88C188.07 147.88 188.306 148.38 188.12 148.795C188.12 148.795 188.097 147.897 187.965 147.92C187.937 147.92 187.605 148.092 187.605 148.092C187.605 148.092 188.011 148.963 187.705 149.596C187.705 149.596 187.822 148.522 187.477 148.156L186.99 148.44C186.99 148.44 187.465 149.339 187.143 150.073C187.143 150.073 187.226 148.948 186.886 148.509L186.445 148.853C186.445 148.853 186.892 149.74 186.618 150.348C186.618 150.348 186.582 149.039 186.347 148.939C186.18 149.081 186.03 149.242 185.901 149.42C185.901 149.42 186.208 150.064 186.018 150.403C186.018 150.403 185.901 149.53 185.806 149.527C185.806 149.527 185.421 150.105 185.381 150.501C185.4 150.134 185.514 149.778 185.713 149.468C185.491 149.51 185.286 149.616 185.123 149.773C185.123 149.773 185.183 149.365 185.812 149.329C185.812 149.329 186.13 148.889 186.215 148.864C186.215 148.864 185.593 148.812 185.216 148.979C185.216 148.979 185.548 148.593 186.328 148.767L186.766 148.412C186.766 148.412 185.946 148.3 185.6 148.424C185.6 148.424 185.999 148.08 186.883 148.331L187.358 148.047C186.993 147.967 186.618 147.935 186.244 147.951C186.244 147.951 186.683 147.715 187.496 147.971L187.841 147.818C187.841 147.818 187.324 147.718 187.179 147.703C187.035 147.687 187.021 147.644 187.021 147.644C187.345 147.59 187.678 147.627 187.982 147.751C187.982 147.751 188.69 147.486 188.678 147.439Z" fill="#FFCB05"/>
<path opacity="0.1" d="M185.851 151.55C187.456 151.55 188.757 151.331 188.757 151.06C188.757 150.788 187.456 150.569 185.851 150.569C184.247 150.569 182.946 150.788 182.946 151.06C182.946 151.331 184.247 151.55 185.851 151.55Z" fill="#FFCB05"/>
<path d="M164.446 149.937C164.446 149.937 159.489 149.637 160.074 153.111C160.044 153.287 160.07 153.468 160.149 153.628C160.228 153.789 160.355 153.92 160.513 154.003C160.513 154.003 160.513 153.746 161.022 153.831C161.2 153.861 161.381 153.87 161.561 153.858C161.804 153.841 162.034 153.745 162.219 153.586V153.586C162.219 153.586 163.612 153.011 164.155 150.732C164.155 150.732 164.556 150.236 164.539 150.109L163.703 150.465C163.703 150.465 163.989 151.07 163.764 151.571C163.764 151.571 163.738 150.488 163.576 150.514C163.543 150.514 163.142 150.722 163.142 150.722C163.142 150.722 163.633 151.774 163.262 152.537C163.262 152.537 163.404 151.242 162.989 150.798L162.399 151.142C162.399 151.142 162.973 152.227 162.584 153.114C162.584 153.114 162.684 151.755 162.275 151.22L161.742 151.635C161.742 151.635 162.282 152.704 161.953 153.44C161.953 153.44 161.91 151.859 161.626 151.738C161.626 151.738 161.159 152.15 161.089 152.319C161.089 152.319 161.457 153.095 161.228 153.505C161.228 153.505 161.089 152.453 160.973 152.448C160.973 152.448 160.508 153.145 160.457 153.624C160.48 153.182 160.618 152.753 160.858 152.381C160.59 152.432 160.343 152.56 160.147 152.749C160.147 152.749 160.219 152.255 160.973 152.212C160.973 152.212 161.357 151.683 161.461 151.65C161.461 151.65 160.71 151.588 160.255 151.79C160.255 151.79 160.655 151.323 161.597 151.535L162.124 151.106C162.124 151.106 161.137 150.97 160.717 151.12C160.717 151.12 161.199 150.708 162.267 151.008L162.84 150.663C162.84 150.663 161.998 150.481 161.495 150.546C161.495 150.546 162.026 150.262 163.007 150.57L163.419 150.402C163.419 150.402 162.802 150.281 162.622 150.262C162.441 150.243 162.432 150.193 162.432 150.193C162.823 150.128 163.224 150.173 163.591 150.322C163.591 150.322 164.461 149.992 164.446 149.937Z" fill="#FFCB05"/>
<path opacity="0.1" d="M161.032 154.899C162.97 154.899 164.54 154.633 164.54 154.306C164.54 153.979 162.97 153.714 161.032 153.714C159.094 153.714 157.523 153.979 157.523 154.306C157.523 154.633 159.094 154.899 161.032 154.899Z" fill="#FFCB05"/>
<path opacity="0.1" d="M122.99 151.738L105.713 158.423L80.4593 168.183C79.5068 166.414 78.1014 163.995 76.3618 161.122C70.3817 151.209 60.485 135.792 51.6768 122.244C41.749 106.979 33.2061 94.0887 33.2061 94.0887L39.3911 92.2957L89.9117 77.6435L122.99 151.738Z" fill="black"/>
<path d="M123.334 150.532L106.057 157.217L80.8038 166.978C79.8513 165.209 78.4458 162.789 76.7063 159.916C70.7262 150.004 60.8294 134.587 52.0212 121.039C42.0935 105.773 33.5505 92.883 33.5505 92.883L39.7356 91.09L90.2561 76.4378L123.334 150.532Z" fill="white"/>
<path opacity="0.1" d="M123.334 150.532L106.057 157.217C96.4077 159.227 86.5607 160.132 76.7063 159.916C70.7263 150.004 60.8295 134.587 52.0213 121.039L39.7357 91.09L90.2562 76.4378L123.334 150.532Z" fill="black"/>
<path d="M136.188 146.375C136.188 146.375 109.347 162.252 69.2743 158.669L37.3243 80.7851L52.6345 78.1551L105.559 69.0661L135.589 144.869L136.188 146.375Z" fill="#FFCB05"/>
<path opacity="0.1" d="M135.589 144.869C129.268 145.179 121.958 145.15 114.6 144.273C106.639 143.34 98.6407 141.407 91.7684 137.87C86.0295 134.912 81.1225 131.7 76.8424 127.844C65.7142 117.833 58.8264 103.514 52.6414 78.1551L105.566 69.0661L135.589 144.869Z" fill="black"/>
<path d="M155.277 140.515C155.277 140.515 135.484 144.394 115.356 142.005C107.395 141.066 99.3882 139.139 92.5245 135.601C86.7856 132.644 81.8786 129.432 77.5985 125.575C63.8195 113.174 56.5494 94.1904 49.0502 55.8349C49.0502 55.8349 81.9475 63.7733 114.45 46.3843C114.45 46.3843 125.413 114.809 155.277 140.515Z" fill="white"/>
<path opacity="0.1" d="M115.356 142.005C107.395 141.066 99.3882 139.139 92.5245 135.601C86.7856 132.644 81.8785 129.432 77.5984 125.575C89.3261 124.623 91.0123 118.21 91.0123 118.21C99.7068 132.01 115.356 142.005 115.356 142.005Z" fill="black"/>
<path opacity="0.3" d="M66.062 69.917C66.062 69.917 83.7335 71.9339 100.273 62.64L101.407 66.2794C101.407 66.2794 85.5834 74.1696 66.062 74.1696V69.917Z" fill="#FFCB05"/>
<path opacity="0.3" d="M66.062 87.8796C66.062 87.8796 83.6302 86.4621 103.188 77.0097L103.849 78.5219C103.849 78.5219 96.6513 87.5799 66.062 89.9464V87.8796Z" fill="black"/>
<path opacity="0.3" d="M68.1444 94.8862C68.1444 94.8862 85.7126 93.4686 105.27 84.018L105.932 85.5302C105.932 85.5302 98.7354 94.5968 68.1444 96.9651V94.8862Z" fill="black"/>
<path opacity="0.3" d="M70.0494 102.439C70.0494 102.439 87.6176 101.021 107.175 91.5706L107.836 93.0829C107.836 93.0829 100.63 102.144 70.0494 104.518V102.439Z" fill="black"/>
<path opacity="0.3" d="M72.3108 108.911C72.3108 108.911 89.879 107.494 109.436 98.0433L110.098 99.5555C110.098 99.5555 102.902 108.619 72.3108 110.992V108.911Z" fill="black"/>
<path opacity="0.1" d="M74.3949 115.925C74.3949 115.925 91.9631 114.507 111.521 105.057L112.182 106.569C112.182 106.569 104.984 115.632 74.3949 118.004V115.925Z" fill="black"/>
<path opacity="0.3" d="M111.006 72.2932L106.09 73.9667L107.763 78.8826L112.679 77.2091L111.006 72.2932Z" fill="#FFCB05"/>
<path opacity="0.3" d="M113.802 79.6066L108.886 81.2801L110.56 86.196L115.476 84.5225L113.802 79.6066Z" fill="#FFCB05"/>
<path opacity="0.3" d="M118.286 93.6782L113.37 95.3517L115.043 100.268L119.959 98.5941L118.286 93.6782Z" fill="#FFCB05"/>
<path opacity="0.3" d="M120.858 101.231L115.942 102.904L117.615 107.82L122.531 106.147L120.858 101.231Z" fill="#FFCB05"/>
<path opacity="0.3" d="M116.082 87.2039L111.167 88.8774L112.84 93.7933L117.756 92.1198L116.082 87.2039Z" fill="#FFCB05"/>
<path d="M167.484 108.433L167.3 108.26C167.775 108.164 168.223 108.121 168.223 108.121C168.223 108.121 166.592 102.22 163.841 100.251C162.48 99.2782 161.347 97.6574 160.546 96.2675C159.086 93.7541 157.446 91.3497 155.639 89.0732L155.143 88.4479L154.929 88.1758C155.227 87.7245 155.593 87.2957 155.551 86.7721C155.55 86.7687 155.55 86.7651 155.551 86.7617C155.553 86.7342 155.553 86.7066 155.551 86.6791C155.546 86.6143 155.535 86.5503 155.517 86.4879L155.498 86.5172C155.265 85.842 154.371 85.544 153.708 85.172C152.158 84.2987 151.495 82.3904 151.164 80.6163C150.906 79.2384 150.692 77.6883 149.614 76.8013C148.925 76.2312 147.988 76.0434 147.294 75.4768C146.636 74.9394 146.269 74.1247 145.856 73.3755C145.167 72.1268 144.258 70.9642 143.057 70.2184C141.857 69.4726 140.332 69.1849 139.015 69.6844C138.51 69.8773 138.052 70.177 137.552 70.3854C136.312 70.9022 134.891 70.8333 133.663 71.3793C132.151 72.051 131.168 73.5357 130.269 74.9446C129.804 75.6731 129.073 76.7393 128.658 77.8123C128.658 77.7744 128.658 77.7382 128.658 77.7003C128.459 78.1731 128.35 78.6791 128.338 79.1919C128.33 79.4101 128.353 79.6283 128.408 79.8395C128.594 80.5285 129.149 80.9091 129.807 81.1744C129.845 81.3935 129.896 81.6103 129.959 81.8237C130.256 82.8037 130.786 83.6975 131.503 84.4294C132.219 85.1612 133.102 85.7096 134.075 86.028C134.132 86.0487 134.19 86.0625 134.247 86.0797C134.295 86.216 134.364 86.3439 134.452 86.4586C135.002 87.1475 136.104 86.9512 136.82 86.45C136.85 86.431 136.877 86.4069 136.905 86.3863C136.91 86.4838 136.92 86.581 136.936 86.6773C136.951 86.76 136.963 86.8496 136.981 86.9236C137.627 90.4045 139.28 92.2837 139.28 92.2837C139.28 92.2837 139.433 92.5145 139.683 92.8968C139.552 94.8173 140.429 96.5672 141.442 97.9192C140.568 98.4239 138.686 99.4125 137.521 99.3299C137.521 99.3299 133.243 99.8827 132.747 99.6054C132.678 99.5676 132.613 99.6192 132.551 99.7363C131.373 99.0181 127.606 96.9478 127.284 99.6054C126.993 102.017 130.425 102.325 132.06 102.337C131.986 103.043 131.944 103.608 131.944 103.608L138.973 103.128L142.633 102.589C142.229 103.124 141.772 103.601 141.326 103.834C141.326 103.834 138.018 106.512 137.446 106.536C137.365 106.536 137.339 106.617 137.351 106.746C135.959 106.746 131.631 106.948 132.831 109.359C133.922 111.545 136.991 110.033 138.379 109.197C138.706 109.833 138.985 110.331 138.985 110.331L144.657 106.292L145.885 105.258C146.302 105.238 146.713 105.159 147.106 105.022C147.106 105.038 147.119 105.053 147.124 105.067C147.168 105.194 147.2 105.324 147.222 105.456C147.566 107.435 146.409 112.051 146.409 112.051C146.409 112.051 143.863 118.543 145.086 119.428C146.309 120.313 145.405 124.049 145.405 124.049C145.618 124.408 145.864 124.747 146.139 125.062V125.062C146.268 125.212 146.412 125.348 146.567 125.47C146.511 125.625 146.463 125.783 146.426 125.944C146.239 126.74 146.31 127.574 146.628 128.328C147.468 130.367 146.957 133.323 146.957 133.323L145.307 144.47C144.514 144.349 143.491 144.249 143.111 144.47C142.527 144.799 142.718 146.457 144.073 147.17C143.662 147.486 143.185 147.705 142.678 147.813C141.473 148.088 140.625 148.264 140.067 148.371C140.031 148.371 137.174 147.741 136.44 148.157C135.706 148.574 136.059 150.886 138.147 151.452C140.189 152.005 147.807 152.816 150.002 152.486L150.141 152.462C152.007 152.093 150.369 149.642 150.162 149.344C150.148 149.244 150.136 149.139 150.122 149.025C150.093 148.77 150.067 148.478 150.048 148.164C152.129 148.355 154.182 148.448 155.124 148.307C155.169 148.307 155.21 148.293 155.248 148.285C156.9 147.958 155.453 145.791 155.267 145.529C155.259 145.462 155.25 145.392 155.241 145.317V145.298C155.241 145.248 155.229 145.195 155.224 145.143C155.219 145.092 155.224 145.055 155.21 145.009C155.196 144.962 155.21 144.926 155.198 144.883C155.191 144.798 155.184 144.71 155.178 144.62C155.178 144.583 155.178 144.546 155.178 144.508C155.178 144.439 155.169 144.37 155.165 144.299C155.165 144.261 155.165 144.223 155.165 144.184C155.165 144.08 155.165 143.974 155.155 143.867C155.155 143.838 155.155 143.808 155.155 143.779C155.155 143.693 155.155 143.607 155.155 143.517C155.155 143.476 155.155 143.435 155.155 143.392C155.155 143.3 155.155 143.209 155.155 143.116C155.155 143.085 155.155 143.056 155.155 143.025C155.155 142.909 155.165 142.79 155.172 142.672L155.183 142.544C155.183 142.456 155.196 142.372 155.205 142.282C155.205 142.239 155.205 142.196 155.219 142.153C155.233 142.033 155.248 141.912 155.265 141.79C155.265 141.754 155.277 141.717 155.283 141.681C155.298 141.59 155.314 141.497 155.331 141.404C155.331 141.359 155.348 141.313 155.358 141.266C155.379 141.166 155.401 141.066 155.426 140.966C155.426 140.939 155.438 140.911 155.444 140.884C155.475 140.763 155.51 140.644 155.546 140.526C155.558 140.484 155.572 140.443 155.586 140.401C155.615 140.312 155.646 140.229 155.679 140.136L155.72 140.026C155.767 139.909 155.817 139.793 155.868 139.682C155.882 139.652 155.897 139.623 155.913 139.594C155.956 139.504 156.003 139.421 156.051 139.328L156.109 139.227C156.175 139.117 156.242 139.006 156.316 138.901C158.211 136.201 158.71 130.992 158.664 129.859C158.617 128.726 158.889 126.375 159.229 126.027C159.456 125.794 160.779 123.96 161.569 122.565C161.712 122.31 161.836 122.07 161.934 121.857C162.496 121.662 162.868 121.512 162.868 121.512C162.67 120.789 162.575 120.042 162.585 119.292C162.599 117.826 163.002 115.896 164.666 114.328C167.122 112.013 167.465 109.719 167.498 108.837C167.498 108.775 167.498 108.72 167.498 108.674C167.492 108.512 167.484 108.433 167.484 108.433Z" fill="url(#paint0_linear)"/>
<path d="M160.939 122.878C160.272 124.069 159.524 125.213 158.7 126.301C158.376 126.645 158.116 128.972 158.161 130.09C158.205 131.208 157.732 136.361 155.922 139.031C154.111 141.7 155.041 146.314 155.041 146.314L152.153 147.327H148.682L146.292 146.612L145.661 144.873C145.661 144.873 146.502 144.744 148.589 144.248C149.169 144.13 149.693 143.826 150.083 143.382C150.474 142.938 150.708 142.379 150.751 141.79L152.217 131.554C152.217 131.554 152.649 128.97 151.936 127.182C151.735 126.679 151.652 126.137 151.692 125.597C151.733 125.056 151.896 124.532 152.17 124.065L152.217 123.993C152.217 123.993 154.478 122.206 156.783 121.089C158.824 120.103 160.894 119.635 161.481 121.383C161.557 121.609 161.309 122.189 160.939 122.878Z" fill="#FFB8B8"/>
<path opacity="0.05" d="M160.939 122.878C160.272 124.069 159.524 125.213 158.7 126.301C158.376 126.645 158.116 128.972 158.161 130.09C158.205 131.208 157.732 136.361 155.922 139.031C154.647 140.913 154.731 143.758 154.888 145.276C154.955 145.911 155.038 146.309 155.038 146.309L152.15 147.322H148.682L146.292 146.612L145.661 144.873C145.661 144.873 145.872 144.84 146.35 144.747C146.829 144.654 147.556 144.496 148.6 144.248C149.177 144.128 149.699 143.823 150.087 143.379C150.476 142.936 150.709 142.378 150.751 141.79L152.217 131.554C152.217 131.554 152.649 128.97 151.936 127.182C151.735 126.679 151.652 126.137 151.692 125.597C151.733 125.056 151.896 124.532 152.17 124.065L152.217 123.993C152.217 123.993 154.478 122.206 156.783 121.089C158.824 120.103 160.894 119.635 161.481 121.383C161.557 121.609 161.309 122.189 160.939 122.878Z" fill="black"/>
<path opacity="0.1" d="M155.041 146.316L152.153 147.329H148.682L146.292 146.612L145.661 144.873C145.661 144.873 145.872 144.84 146.35 144.747C146.317 145.063 146.4 145.381 146.584 145.64C146.768 145.899 147.041 146.081 147.351 146.153L148.708 146.199C148.899 146.199 149.092 146.209 149.282 146.209C151.191 146.21 153.087 145.896 154.893 145.278C154.962 145.913 155.041 146.316 155.041 146.316Z" fill="black"/>
<path d="M148.707 146.492L147.348 146.445C147.348 146.445 146.08 146.177 146.39 144.738C146.39 144.738 143.944 144.184 143.319 144.551C142.694 144.918 142.995 146.941 144.762 147.437C146.485 147.921 152.937 148.633 154.792 148.342L154.911 148.321C156.592 147.976 154.911 145.565 154.911 145.565C152.916 146.248 150.814 146.562 148.707 146.492Z" fill="#BEBED0"/>
<path d="M157.076 123.274C156.984 123.457 156.886 123.646 156.774 123.844C155.922 125.395 154.554 127.346 154.315 127.599C153.949 127.988 153.658 130.613 153.705 131.881C153.751 133.149 153.221 138.956 151.178 141.971C150.133 143.521 149.897 145.631 149.914 147.329C149.919 147.904 149.953 148.479 150.016 149.051C150.091 149.752 150.188 150.19 150.188 150.19L146.929 151.332H143.007L140.308 150.529L139.602 148.559C139.602 148.559 139.838 148.521 140.369 148.416C140.899 148.311 141.726 148.135 142.907 147.856C143.559 147.721 144.15 147.377 144.589 146.877C145.028 146.377 145.292 145.747 145.341 145.083L146.993 133.531C146.993 133.531 147.48 130.612 146.678 128.596C146.375 127.848 146.307 127.026 146.485 126.238C146.581 125.796 146.756 125.375 147.001 124.995C147.001 124.995 147.632 124.499 148.583 123.843C149.003 123.553 149.49 123.233 150.014 122.909C152.315 121.485 155.341 120.031 156.791 121.09C157.111 121.332 157.345 121.669 157.46 122.053C157.518 122.253 157.355 122.706 157.076 123.274Z" fill="#FFB8B8"/>
<path opacity="0.1" d="M150.179 150.191L146.92 151.333H143.007L140.308 150.531L139.602 148.56C139.602 148.56 139.838 148.522 140.369 148.417C140.335 148.651 140.359 148.889 140.439 149.111C140.519 149.333 140.652 149.532 140.827 149.69C141.098 149.921 141.442 150.05 141.798 150.055L143.033 150.095C143.248 150.095 143.465 150.107 143.681 150.107C145.836 150.107 147.976 149.75 150.016 149.053C150.091 149.754 150.179 150.191 150.179 150.191Z" fill="black"/>
<path d="M143.031 150.388L141.798 150.346C141.441 150.34 141.098 150.211 140.825 149.981C140.512 149.702 140.241 149.22 140.417 148.409C140.417 148.409 137.661 147.784 136.95 148.197C136.238 148.61 136.586 150.896 138.579 151.456C140.53 152.002 147.806 152.804 149.9 152.477L150.033 152.453C151.927 152.064 150.033 149.339 150.033 149.339C147.782 150.112 145.41 150.467 143.031 150.388V150.388Z" fill="#BEBED0"/>
<path opacity="0.1" d="M160.939 122.878C159.759 123.29 158.026 123.836 157.076 123.858C156.977 123.862 156.879 123.857 156.781 123.844V123.844C156.116 123.753 154.061 123.899 152.177 124.068C151.421 124.135 150.694 124.206 150.093 124.268C149.197 124.361 148.581 124.428 148.581 124.428V123.844C149.001 123.555 149.488 123.235 150.012 122.911C152.313 121.486 155.339 120.033 156.79 121.092C158.831 120.107 160.901 119.638 161.488 121.387C161.557 121.609 161.309 122.189 160.939 122.878Z" fill="black"/>
<path d="M166.6 109.294C166.568 110.167 166.24 112.434 163.894 114.724C160.904 117.644 162.172 121.836 162.172 121.836C162.172 121.836 158.607 123.236 157.069 123.274C156.97 123.278 156.872 123.273 156.774 123.261C155.851 123.131 152.186 123.471 150.079 123.684C149.184 123.777 148.567 123.844 148.567 123.844V111.443L165.09 107.432L166.587 108.922C166.599 109.045 166.604 109.17 166.6 109.294Z" fill="#5C5C8E"/>
<g opacity="0.1">
<path opacity="0.1" d="M148.846 123.691L148.574 123.72V123.851C148.574 123.851 149.191 123.784 150.086 123.691C151.598 123.538 153.908 123.322 155.436 123.259C154.378 123.162 150.885 123.484 148.846 123.691Z" fill="black"/>
<path opacity="0.1" d="M166.593 108.929L165.097 107.437L164.099 107.687L165.353 108.936C165.362 109.06 165.362 109.185 165.353 109.309C165.321 110.181 164.993 112.449 162.647 114.74C159.657 117.658 160.925 121.852 160.925 121.852C160.925 121.852 157.975 123.009 156.285 123.248C156.446 123.248 156.607 123.257 156.767 123.274C156.865 123.288 156.963 123.293 157.062 123.29C158.6 123.252 162.165 121.852 162.165 121.852C162.165 121.852 160.891 117.658 163.888 114.74C166.233 112.449 166.561 110.181 166.593 109.309C166.602 109.183 166.602 109.055 166.593 108.929Z" fill="black"/>
</g>
<path d="M133.583 100.534C133.583 100.534 128.588 97.0684 128.221 100.189C127.854 103.31 133.583 102.864 133.583 102.864V100.534Z" fill="#FFB8B8"/>
<path d="M142.194 98.2362C142.194 98.2362 139.492 100.024 137.997 99.9138C137.997 99.9138 133.911 100.461 133.436 100.188C132.961 99.9138 132.671 104.149 132.671 104.149L139.389 103.675L143.694 103.017C143.694 103.017 145.847 101.705 145.847 100.573C145.847 99.4419 142.194 98.2362 142.194 98.2362Z" fill="#F7CDDD"/>
<path opacity="0.05" d="M142.194 98.2362C142.194 98.2362 139.492 100.024 137.997 99.9138C137.997 99.9138 133.911 100.461 133.436 100.188C132.961 99.9138 132.671 104.149 132.671 104.149L139.389 103.675L143.694 103.017C143.694 103.017 145.847 101.705 145.847 100.573C145.847 99.4419 142.194 98.2362 142.194 98.2362Z" fill="black"/>
<path d="M138.231 107.254C138.231 107.254 132.156 107.003 133.517 109.838C134.878 112.673 139.482 109.232 139.482 109.232L138.231 107.254Z" fill="#FFB8B8"/>
<path d="M144.342 101.228C144.342 101.228 139.418 97.5438 140.112 93.057C140.806 88.5702 144.342 96.4914 144.342 96.4914V101.228Z" fill="#5C5C8E"/>
<path d="M142.981 80.8868C142.98 82.5009 142.352 84.0513 141.23 85.2117C140.957 85.4968 140.655 85.7536 140.331 85.9781C139.711 86.4105 139.019 86.73 138.288 86.922C137.997 86.9945 137.702 87.0469 137.404 87.0787C137.191 87.0994 136.976 87.1114 136.757 87.1114C136.058 87.1154 135.364 86.9989 134.705 86.767C133.627 86.3905 132.673 85.7245 131.947 84.8418C131.222 83.9592 130.754 82.894 130.594 81.7629C130.433 80.6317 130.588 79.4784 131.039 78.4291C131.491 77.3797 132.223 76.475 133.154 75.8138C134.086 75.1527 135.182 74.7606 136.321 74.6807C137.461 74.6007 138.6 74.8359 139.615 75.3605C140.63 75.8851 141.481 76.6788 142.075 77.6548C142.668 78.6308 142.982 79.7513 142.981 80.8937V80.8868Z" fill="#FFB8B8"/>
<path opacity="0.1" d="M166.6 109.294C166.042 109.397 165.353 109.583 165.353 109.872C165.353 110.36 157.572 112.987 157.572 112.987C157.572 112.987 157.863 113.665 157.086 114.833C156.309 116.001 149.985 122.711 149.985 122.711L150.005 122.911L150.086 123.684L150.472 127.38C150.472 127.38 148.04 126.505 147.262 126.602C147.01 126.635 146.745 126.473 146.485 126.24C146.581 125.798 146.756 125.377 147.001 124.997C147.001 124.997 147.632 124.501 148.583 123.844V111.443L165.105 107.432L166.602 108.922C166.61 109.046 166.609 109.17 166.6 109.294V109.294Z" fill="black"/>
<path d="M167.3 108.608C167.3 108.608 165.353 108.801 165.353 109.289C165.353 109.776 157.572 112.403 157.572 112.403C157.572 112.403 157.863 113.081 157.086 114.249C156.309 115.417 149.985 122.129 149.985 122.129L150.472 126.796C150.472 126.796 148.04 125.922 147.262 126.018C146.917 126.061 146.53 125.741 146.211 125.367C145.948 125.055 145.713 124.72 145.51 124.366C145.51 124.366 146.387 120.668 145.219 119.793C144.051 118.918 146.483 112.499 146.483 112.499C146.483 112.499 147.582 107.935 147.258 105.976C147.238 105.845 147.207 105.716 147.165 105.591C147.165 105.577 147.156 105.561 147.151 105.548C146.462 103.677 138.994 87.9794 138.994 87.9794C138.999 87.5341 139.03 87.0896 139.087 86.648C139.103 86.5257 139.123 86.3983 139.146 86.2691C139.184 86.0368 139.234 85.8068 139.297 85.5801C139.337 85.4348 139.384 85.2916 139.439 85.1513C139.669 84.5588 140.022 84.1023 140.549 84.092C140.549 84.092 141.133 83.4461 142.503 83.2704C143.505 83.1395 144.936 83.2704 146.874 84.092C151.443 86.0348 152.515 86.1347 152.515 86.1347L154.811 89.1489L155.283 89.7672C157.012 92.0235 158.579 94.4007 159.969 96.8806C160.734 98.2585 161.817 99.8586 163.116 100.821C165.743 102.773 167.3 108.608 167.3 108.608Z" fill="#F7CDDD"/>
<path opacity="0.1" d="M150.252 97.3612C150.252 97.3612 156.745 98.9665 159.261 103.014L150.252 97.3612Z" fill="black"/>
<path opacity="0.1" d="M152.258 104.473C152.258 104.473 153.486 112.718 153.145 113.338C152.804 113.958 152.258 104.473 152.258 104.473Z" fill="black"/>
<path opacity="0.1" d="M151.819 108.705C151.347 109.323 149.43 114.103 149.43 114.103L149.983 122.129L150.47 126.797C150.47 126.797 148.04 125.922 147.261 126.018C146.917 126.061 146.528 125.741 146.211 125.367C146.715 122.634 147.795 116.914 147.99 116.803C148.247 116.657 149.561 112.062 149.63 110.775C149.699 109.488 151.524 106.621 151.524 106.621C151.524 106.621 152.294 108.086 151.819 108.705Z" fill="black"/>
<path opacity="0.1" d="M149.985 100.827C149.864 101.19 149.678 103.307 149.678 103.307C149.544 105.17 148.128 105.78 147.258 105.977C147.238 105.846 147.207 105.716 147.165 105.591C146.581 103.939 138.994 87.9864 138.994 87.9864C139.002 87.177 139.104 86.3713 139.297 85.5854C140.949 85.0997 143.564 85.8472 143.564 85.8472C144.32 85.7473 146.786 90.6509 146.786 90.6509C146.786 90.6509 148.429 94.4056 148.61 94.9172C148.791 95.4287 148.61 96.2675 148.682 96.5603C148.755 96.8531 149.523 97.1046 149.631 97.5076C149.74 97.9107 149.669 98.7133 149.742 98.8562C149.814 98.9992 150.107 100.461 149.985 100.827Z" fill="black"/>
<path d="M149.401 100.534C149.28 100.899 149.094 103.014 149.094 103.014C148.984 104.564 147.985 105.253 147.151 105.548C146.776 105.682 146.382 105.76 145.984 105.78L144.811 106.8L139.394 110.787C139.394 110.787 137.375 107.055 137.923 107.034C138.471 107.013 141.629 104.361 141.629 104.361C142.596 103.844 143.564 102.122 144.013 101.237C143.987 101.131 143.968 101.024 143.955 100.916C143.76 99.2644 139.674 92.9399 139.674 92.9399C139.674 92.9399 138.095 91.0815 137.48 87.6384C137.463 87.5592 137.451 87.4783 137.435 87.3956C137.418 87.2884 137.408 87.1803 137.404 87.0718C137.33 85.7473 138.295 85.265 139.439 85.1513C140.036 85.1039 140.637 85.1224 141.23 85.2065C141.821 85.2809 142.406 85.396 142.981 85.5509C143.471 85.4855 144.676 87.5196 145.467 88.9612C145.892 89.7432 146.199 90.3529 146.199 90.3529C146.199 90.3529 147.842 94.1094 148.023 94.6192C148.204 95.129 148.023 95.9713 148.095 96.2623C148.167 96.5534 148.936 96.8083 149.044 97.2114C149.153 97.6144 149.082 98.417 149.154 98.56C149.227 98.7029 149.523 100.169 149.401 100.534Z" fill="#F7CDDD"/>
<path opacity="0.1" d="M155.684 92.1184C154.65 93.1742 152.981 93.1776 151.641 92.6351C150.301 92.0925 149.166 91.1211 147.925 90.365C147.118 89.8724 146.264 89.4694 145.47 88.9613C145.353 88.8855 145.239 88.8097 145.126 88.7305C144.209 88.0829 143.415 87.251 142.466 86.6636C141.832 86.2414 141.092 86.003 140.331 85.9747C139.98 85.9715 139.633 86.0444 139.313 86.1883C139.253 86.2124 139.196 86.2406 139.14 86.2727C138.828 86.4518 138.539 86.6688 138.279 86.9185C138.011 87.1597 137.754 87.4163 137.471 87.6419C137.454 87.5627 137.442 87.4818 137.427 87.3991C137.409 87.2919 137.399 87.1838 137.396 87.0753C137.182 87.0959 136.967 87.108 136.748 87.108C136.05 87.112 135.356 86.9955 134.697 86.7635C134.697 86.7377 134.697 86.7119 134.681 86.686C134.449 85.4597 134.028 84.161 133.042 83.4721C132.47 83.0725 131.557 82.9089 130.765 82.6109C130.49 81.6552 130.448 80.6476 130.643 79.6725C130.838 78.6974 131.264 77.7832 131.885 77.0063C132.505 76.2295 133.303 75.6127 134.211 75.2076C135.119 74.8025 136.111 74.6208 137.104 74.6778C138.097 74.7348 139.061 75.0288 139.917 75.5352C140.773 76.0416 141.495 76.7457 142.023 77.5884C142.551 78.4312 142.869 79.3881 142.951 80.3791C143.033 81.3701 142.876 82.3663 142.494 83.2843C143.496 83.1534 144.928 83.2843 146.865 84.1059C151.435 86.0487 152.506 86.1486 152.506 86.1486L154.802 89.1628C154.554 89.5417 154.273 89.9155 154.247 90.3581C154.204 91.1694 154.995 91.736 155.684 92.1184Z" fill="black"/>
<path d="M133.048 82.8847C134.035 83.5736 134.456 84.8706 134.69 86.0952C134.762 86.4776 134.831 86.8806 135.065 87.1837C135.582 87.8623 136.643 87.6712 137.327 87.1837C138.011 86.6963 138.55 85.9574 139.313 85.6129C140.326 85.1548 141.517 85.4889 142.466 86.0831C143.415 86.6774 144.209 87.5093 145.126 88.15C146.013 88.7752 147.001 89.2213 147.925 89.7845C149.166 90.5406 150.301 91.5172 151.641 92.0546C152.981 92.592 154.656 92.5903 155.682 91.5379C154.993 91.1555 154.203 90.5906 154.256 89.7707C154.309 88.9509 155.264 88.3394 155.2 87.4989C155.136 86.6584 154.148 86.3294 153.438 85.9161C151.957 85.0549 151.325 83.1603 151.008 81.4121C150.761 80.0445 150.558 78.5168 149.537 77.6383C148.877 77.0734 147.987 76.8891 147.322 76.3293C146.693 75.7971 146.343 74.9928 145.944 74.2504C145.284 73.0155 144.418 71.8667 143.272 71.1278C142.127 70.3889 140.67 70.0944 139.413 70.6007C138.93 70.7919 138.491 71.0882 138.016 71.2897C136.831 71.8064 135.475 71.7323 134.302 72.2714C132.857 72.9363 131.919 74.4037 131.059 75.7971C130.332 76.9907 128.891 79.0955 129.299 80.6456C129.705 82.2216 131.977 82.1372 133.048 82.8847Z" fill="#4C3E42"/>
<g opacity="0.1">
<path opacity="0.1" d="M155.198 87.4043C155.193 87.3403 155.182 87.2769 155.166 87.2148C154.904 87.6265 154.578 88.0261 154.547 88.5083C154.54 88.6199 154.55 88.7318 154.575 88.8408C154.866 88.3774 155.24 87.9417 155.198 87.4043Z" fill="black"/>
<path opacity="0.1" d="M151.933 90.7973C150.593 90.26 149.459 89.2834 148.217 88.5273C147.293 87.964 146.304 87.5179 145.417 86.8927C144.501 86.2451 143.707 85.4132 142.758 84.8259C141.808 84.2385 140.618 83.8975 139.604 84.3539C138.841 84.6984 138.303 85.4304 137.618 85.9265C136.932 86.4225 135.882 86.6154 135.356 85.9265C135.122 85.6233 135.053 85.2203 134.981 84.8379C134.748 83.6133 134.327 82.3164 133.341 81.6274C132.268 80.8782 129.996 80.9626 129.585 79.3883C129.516 79.1067 129.498 78.8151 129.531 78.5272C129.268 79.2299 129.132 79.9361 129.292 80.5509C129.705 82.1321 131.977 82.0477 133.049 82.79C134.035 83.479 134.456 84.7776 134.69 86.0023C134.762 86.3846 134.831 86.7877 135.064 87.0908C135.58 87.7694 136.641 87.5782 137.327 87.0822C138.012 86.5861 138.548 85.8559 139.313 85.5114C140.326 85.0549 141.517 85.3891 142.466 85.9833C143.415 86.5775 144.209 87.4094 145.126 88.0502C146.013 88.6771 147.001 89.1215 147.925 89.6847C149.166 90.4425 150.301 91.4191 151.642 91.9565C152.982 92.4939 154.656 92.4904 155.682 91.4398C155.417 91.2971 155.165 91.1305 154.93 90.942C153.996 91.2848 152.882 91.178 151.933 90.7973Z" fill="black"/>
</g>
<path d="M121.448 102.578L135.227 97.4318C135.388 97.3714 135.56 97.3433 135.732 97.3492C135.904 97.3551 136.073 97.3949 136.23 97.4662C136.386 97.5376 136.527 97.6391 136.645 97.765C136.762 97.8909 136.853 98.0388 136.914 98.2V98.2C136.974 98.3613 137.001 98.5328 136.995 98.7048C136.989 98.8769 136.949 99.046 136.878 99.2026C136.806 99.3591 136.705 99.5001 136.579 99.6174C136.453 99.7347 136.305 99.826 136.144 99.8862L122.365 105.034L119.412 104.738L121.448 102.578Z" fill="#5C5C8E"/>
<path opacity="0.1" d="M136.495 97.7866C136.617 98.1126 136.604 98.4734 136.459 98.7899C136.315 99.1064 136.051 99.3527 135.725 99.4746L121.946 104.621L119.728 104.399L119.409 104.743L122.361 105.04L136.14 99.8914C136.301 99.8312 136.449 99.7399 136.575 99.6226C136.701 99.5053 136.803 99.3643 136.874 99.2077C136.946 99.0511 136.986 98.882 136.992 98.71C136.998 98.538 136.97 98.3664 136.91 98.2052V98.2052C136.809 97.9336 136.621 97.7033 136.374 97.5507C136.422 97.6254 136.462 97.7044 136.495 97.7866Z" fill="white"/>
<path d="M121.448 102.578L122.366 105.034L119.943 104.792L119.412 104.738L120.138 103.97L121.448 102.578Z" fill="#EFC8C4"/>
<path d="M120.136 103.97C120.193 104.012 120.241 104.064 120.277 104.125C120.3 104.161 120.312 104.202 120.312 104.245C120.312 104.287 120.3 104.329 120.277 104.364C120.237 104.403 120.192 104.435 120.143 104.459C120.087 104.496 120.04 104.545 120.006 104.603C119.972 104.66 119.952 104.725 119.946 104.791L119.416 104.738L120.136 103.97Z" fill="#727A9C"/>
<path d="M109.421 75.9659L107.098 74.8326C107.064 74.8164 107.035 74.7939 107.01 74.7663C106.986 74.7387 106.967 74.7065 106.955 74.6716C106.943 74.6368 106.938 74.5999 106.94 74.5631C106.943 74.5263 106.952 74.4903 106.968 74.4571L107.215 73.9508C107.231 73.9175 107.253 73.8877 107.281 73.8631C107.308 73.8386 107.341 73.8197 107.375 73.8077C107.41 73.7957 107.447 73.7907 107.484 73.7931C107.521 73.7955 107.557 73.8052 107.59 73.8216L109.156 74.5846L110.79 71.2329C110.823 71.166 110.881 71.1147 110.951 71.0901C111.021 71.0656 111.099 71.0699 111.166 71.102L111.672 71.35C111.705 71.366 111.735 71.3884 111.76 71.416C111.784 71.4436 111.803 71.4758 111.815 71.5107C111.827 71.5457 111.832 71.5826 111.83 71.6195C111.827 71.6563 111.818 71.6924 111.801 71.7255L109.797 75.8367C109.78 75.8699 109.758 75.8995 109.73 75.9239C109.703 75.9484 109.67 75.9671 109.636 75.9791C109.601 75.9911 109.564 75.9961 109.527 75.9939C109.49 75.9916 109.454 75.9821 109.421 75.9659V75.9659Z" fill="#3ACC6C"/>
<path d="M114.497 90.4631L112.173 89.3298C112.14 89.3137 112.111 89.2911 112.086 89.2635C112.062 89.2359 112.043 89.2037 112.031 89.1688C112.019 89.134 112.014 89.0971 112.016 89.0603C112.019 89.0235 112.028 88.9875 112.044 88.9543L112.291 88.448C112.324 88.3809 112.382 88.3297 112.452 88.3055C112.523 88.2813 112.601 88.286 112.668 88.3188L114.232 89.0818L115.864 85.7266C115.897 85.6597 115.955 85.6084 116.025 85.5839C116.096 85.5594 116.173 85.5637 116.24 85.5957L116.745 85.8438C116.778 85.8598 116.808 85.8822 116.832 85.9097C116.857 85.9373 116.876 85.9694 116.888 86.0043C116.9 86.0392 116.905 86.0761 116.903 86.113C116.901 86.1499 116.892 86.186 116.875 86.2192L114.871 90.3305C114.837 90.3972 114.779 90.4482 114.709 90.4723C114.638 90.4965 114.561 90.492 114.493 90.4597L114.497 90.4631Z" fill="#3ACC6C"/>
<path d="M112.218 83.317L109.895 82.1837C109.828 82.151 109.776 82.0932 109.752 82.0229C109.727 81.9526 109.732 81.8754 109.764 81.8082L110.012 81.3018C110.028 81.2686 110.05 81.2388 110.078 81.2142C110.105 81.1897 110.138 81.1708 110.173 81.1588C110.207 81.1468 110.244 81.1418 110.281 81.1442C110.318 81.1466 110.354 81.1563 110.387 81.1727L111.953 81.9357L113.587 78.5788C113.604 78.5456 113.626 78.516 113.654 78.4916C113.681 78.4672 113.714 78.4484 113.748 78.4364C113.783 78.4244 113.82 78.4194 113.857 78.4217C113.894 78.4239 113.93 78.4334 113.963 78.4496L114.469 78.6959C114.536 78.7292 114.587 78.7875 114.611 78.858C114.635 78.9286 114.631 79.0059 114.598 79.0731L112.592 83.1879C112.576 83.221 112.553 83.2506 112.526 83.275C112.498 83.2995 112.466 83.3182 112.431 83.3302C112.396 83.3422 112.359 83.3472 112.322 83.345C112.286 83.3427 112.25 83.3332 112.216 83.317H112.218Z" fill="#3ACC6C"/>
<path d="M116.702 97.0081L114.378 95.8748C114.345 95.8586 114.315 95.836 114.291 95.8084C114.266 95.7808 114.248 95.7486 114.236 95.7138C114.224 95.6789 114.219 95.642 114.221 95.6052C114.223 95.5684 114.233 95.5324 114.249 95.4993L114.495 94.9929C114.511 94.9598 114.534 94.9301 114.561 94.9057C114.589 94.8813 114.621 94.8625 114.656 94.8505C114.691 94.8385 114.728 94.8335 114.765 94.8358C114.801 94.8381 114.837 94.8475 114.871 94.8637L116.436 95.6267L118.071 92.275C118.104 92.208 118.162 92.1567 118.233 92.1322C118.303 92.1077 118.381 92.112 118.448 92.1441L118.953 92.3921C118.986 92.4081 119.016 92.4306 119.04 92.4582C119.065 92.4858 119.084 92.5179 119.096 92.5529C119.108 92.5878 119.113 92.6248 119.11 92.6616C119.108 92.6985 119.098 92.7345 119.082 92.7676L117.079 96.8789C117.045 96.9456 116.987 96.9966 116.917 97.0207C116.846 97.0449 116.769 97.0403 116.702 97.0081V97.0081Z" fill="#3ACC6C"/>
<path d="M29.8354 141.507C29.8354 141.507 30.8602 142.847 29.3635 144.869C27.8667 146.891 26.6301 148.6 27.1244 149.864C27.1244 149.864 29.3841 146.108 31.2219 146.056C33.0597 146.004 31.8575 143.767 29.8354 141.507Z" fill="#3ACC6C"/>
<path opacity="0.1" d="M29.8355 141.507C29.9252 141.637 29.9959 141.778 30.0456 141.928C31.8386 144.036 32.8014 146.003 31.0704 146.061C29.4634 146.106 27.5361 148.979 27.0762 149.704C27.0901 149.763 27.1079 149.82 27.1296 149.876C27.1296 149.876 29.3894 146.12 31.2272 146.068C33.0649 146.016 31.8575 143.767 29.8355 141.507Z" fill="black"/>
<path d="M31.7404 143.216C31.7404 143.686 31.687 144.077 31.6215 144.077C31.5561 144.077 31.5044 143.695 31.5044 143.216C31.5044 142.737 31.5698 142.966 31.6353 142.966C31.7007 142.966 31.7404 142.744 31.7404 143.216Z" fill="#FFD037"/>
<path d="M32.3932 143.777C31.9798 144.003 31.6181 144.141 31.5871 144.082C31.5561 144.024 31.8661 143.796 32.2761 143.566C32.686 143.335 32.5258 143.504 32.5568 143.566C32.5878 143.628 32.8083 143.552 32.3932 143.777Z" fill="#FFD037"/>
<path d="M24.4237 141.507C24.4237 141.507 23.4006 142.847 24.8973 144.869C26.3941 146.891 27.629 148.6 27.1364 149.864C27.1364 149.864 24.8784 146.108 23.0389 146.056C21.1994 146.004 22.4016 143.767 24.4237 141.507Z" fill="#3ACC6C"/>
<path opacity="0.1" d="M24.4237 141.507C24.335 141.637 24.2649 141.778 24.2153 141.928C22.4206 144.036 21.4595 146.003 23.1905 146.061C24.7957 146.106 26.7231 148.979 27.1847 149.704C27.1702 149.763 27.1518 149.82 27.1296 149.876C27.1296 149.876 24.8715 146.104 23.0286 146.053C21.1857 146.001 22.4017 143.767 24.4237 141.507Z" fill="black"/>
<path d="M22.5205 143.216C22.5205 143.686 22.5722 144.077 22.6376 144.077C22.7031 144.077 22.7565 143.695 22.7565 143.216C22.7565 142.737 22.691 142.966 22.6256 142.966C22.5601 142.966 22.5205 142.744 22.5205 143.216Z" fill="#FFD037"/>
<path d="M21.8661 143.777C22.2812 144.003 22.6411 144.141 22.6721 144.082C22.7031 144.024 22.3931 143.796 21.9832 143.566C21.5733 143.335 21.7317 143.504 21.7007 143.566C21.6697 143.628 21.4527 143.552 21.8661 143.777Z" fill="#FFD037"/>
<path opacity="0.1" d="M27.1313 160.109C33.0471 160.109 37.8428 159.373 37.8428 158.466C37.8428 157.558 33.0471 156.823 27.1313 156.823C21.2156 156.823 16.4199 157.558 16.4199 158.466C16.4199 159.373 21.2156 160.109 27.1313 160.109Z" fill="#FFCB05"/>
<path d="M32.6429 148.056L32.5912 148.474L32.5206 149.065L32.4896 149.311L32.419 149.902L32.3862 150.148L32.3156 150.739L31.4958 157.456C31.4217 158.056 30.4417 158.524 29.2567 158.524H25.0007C23.8174 158.524 22.8391 158.056 22.7616 157.456L21.9418 150.739L21.8694 150.148L21.8402 149.902L21.7661 149.311L21.7368 149.065L21.6645 148.474L21.6128 148.056C21.5732 147.711 22.102 147.429 22.772 147.429H31.4854C32.1572 147.429 32.6859 147.716 32.6429 148.056Z" fill="#65617D"/>
<path d="M32.5929 148.474L32.5206 149.065H21.7402L21.6696 148.474H32.5929Z" fill="#9D9CB5"/>
<path d="M32.4913 149.311L32.419 149.902H21.8436L21.7713 149.311H32.4913Z" fill="#9D9CB5"/>
<path d="M32.388 150.148L32.3157 150.739H21.9453L21.8729 150.148H32.388Z" fill="#9D9CB5"/>
</g>
<defs>
<linearGradient id="paint0_linear" x1="147.752" y1="152.553" x2="147.752" y2="69.4295" gradientUnits="userSpaceOnUse">
<stop stop-color="#808080" stop-opacity="0.25"/>
<stop offset="0.54" stop-color="#808080" stop-opacity="0.12"/>
<stop offset="1" stop-color="#808080" stop-opacity="0.1"/>
</linearGradient>
<clipPath id="clip0">
<rect width="200" height="138" fill="white" transform="translate(0 31)"/>
</clipPath>
</defs>
</svg>
