<svg width="199" height="200" viewBox="0 0 199 200" fill="none" xmlns="http://www.w3.org/2000/svg">
<g clip-path="url(#clip0)">
<path d="M160.612 159.554C159.314 164.498 154.765 167.587 154.765 167.587C154.765 167.587 152.321 162.661 153.619 157.718C154.918 152.774 159.466 149.685 159.466 149.685C159.466 149.685 161.911 154.611 160.612 159.554Z" fill="#3F3D56"/>
<path d="M158.643 158.508C155.007 162.101 154.601 167.584 154.601 167.584C154.601 167.584 160.089 167.244 163.725 163.652C167.361 160.06 167.768 154.576 167.768 154.576C167.768 154.576 162.279 154.916 158.643 158.508Z" fill="#FFCB05"/>
<path d="M26.9007 140.854H33.7481L50.6221 134.251C50.6221 134.251 62.6051 129.36 61.6269 138.653C60.6487 147.946 58.9369 160.418 58.9369 160.418C58.9369 160.418 53.5567 157.972 50.6221 158.706C47.6875 159.44 49.6439 143.788 49.6439 143.788C49.6439 143.788 25.6779 155.282 23.4769 153.815C21.276 152.348 20.7869 142.076 20.7869 142.076L26.9007 140.854Z" fill="#2F2E41"/>
<path opacity="0.1" d="M26.9007 140.854H33.7481L50.6221 134.251C50.6221 134.251 62.6051 129.36 61.6269 138.653C60.6487 147.946 58.9369 160.418 58.9369 160.418C58.9369 160.418 53.5567 157.972 50.6221 158.706C47.6875 159.44 49.6439 143.788 49.6439 143.788C49.6439 143.788 25.6779 155.282 23.4769 153.815C21.276 152.348 20.7869 142.076 20.7869 142.076L26.9007 140.854Z" fill="black"/>
<path d="M37.6888 119.41L45.9756 131.316L65.2952 147.457C65.2952 147.457 83.1475 151.614 80.702 154.549C78.2564 157.483 63.3388 151.614 63.3388 151.614C63.3388 151.614 41.0846 135.474 40.351 134.251C39.6173 133.028 31.5471 121.534 31.5471 121.534L37.6888 119.41Z" fill="#FEB8B8"/>
<path opacity="0.1" d="M37.6888 119.41L45.9756 131.316L65.2952 147.457C65.2952 147.457 83.1475 151.614 80.702 154.549C78.2564 157.483 63.3388 151.614 63.3388 151.614C63.3388 151.614 41.0846 135.474 40.351 134.251C39.6173 133.028 31.5471 121.534 31.5471 121.534L37.6888 119.41Z" fill="black"/>
<path d="M32.7699 109.796L38.15 120.311C38.15 120.311 36.9273 125.447 34.9709 125.936C33.0145 126.425 24.6997 119.578 24.6997 119.578L32.7699 109.796Z" fill="#D0CDE1"/>
<path opacity="0.1" d="M32.7699 109.796L38.15 120.311C38.15 120.311 36.9273 125.447 34.9709 125.936C33.0145 126.425 24.6997 119.578 24.6997 119.578L32.7699 109.796Z" fill="black"/>
<path d="M98.4052 135.409L99.9944 141.965C100.012 142.038 100.009 142.114 99.9865 142.186L92.7773 164.715C92.7487 164.804 92.6905 164.881 92.6122 164.932C92.5339 164.983 92.4403 165.006 92.3471 164.997C92.2539 164.988 92.1667 164.947 92.0999 164.881C92.0332 164.816 91.991 164.729 91.9805 164.636L90.9831 155.86C90.9765 155.801 90.9825 155.742 91.0007 155.687L97.6179 135.379C97.6455 135.294 97.7 135.22 97.7731 135.17C97.8462 135.119 97.934 135.093 98.023 135.096C98.1121 135.1 98.1976 135.132 98.2665 135.189C98.3355 135.245 98.3842 135.322 98.4052 135.409Z" fill="#2F2E41"/>
<path d="M97.8206 135.963L99.2878 141.587L92.9294 162.13L91.4622 155.771L97.8206 135.963Z" fill="#F2F2F2"/>
<path d="M65.7843 166.532C66.0289 167.265 91.2177 166.287 91.4622 166.042C91.6754 165.736 91.8558 165.408 92.0002 165.064C92.2301 164.575 92.4404 164.086 92.4404 164.086L91.4622 156.167L66.518 155.282C66.518 155.282 65.8944 161.993 65.7672 165.064C65.7354 165.839 65.7354 166.385 65.7843 166.532Z" fill="#2F2E41"/>
<path opacity="0.1" d="M88.2831 157.239L88.7721 164.086H77.7673V157.239H88.2831Z" fill="black"/>
<path opacity="0.1" d="M74.0991 159.439L74.1647 159.426L73.8545 162.374H67.7408V159.439H74.0991Z" fill="black"/>
<path opacity="0.1" d="M65.7843 166.532C66.0289 167.265 91.2177 166.287 91.4622 166.042C91.6755 165.736 91.8558 165.408 92.0002 165.064H65.7672C65.7354 165.839 65.7354 166.385 65.7843 166.532Z" fill="black"/>
<path d="M36.4382 106.372C42.5159 106.372 47.443 101.445 47.443 95.3671C47.443 89.2893 42.5159 84.3622 36.4382 84.3622C30.3604 84.3622 25.4333 89.2893 25.4333 95.3671C25.4333 101.445 30.3604 106.372 36.4382 106.372Z" fill="#FEB8B8"/>
<path d="M35.7045 105.149C35.7045 105.149 32.0363 111.508 31.3026 114.931C30.5689 118.355 20.2978 108.084 20.2978 108.084L18.9528 104.538C18.9528 104.538 28.6125 100.014 27.8789 96.3453C27.1452 92.6771 35.7045 105.149 35.7045 105.149Z" fill="#FEB8B8"/>
<path d="M37.6609 124.224L47.6876 137.43L71.6536 155.282C71.6536 155.282 89.0167 158.95 85.1039 161.641C81.1911 164.331 69.9417 159.195 69.9417 159.195C69.9417 159.195 45.7311 146.234 40.5956 140.854C35.46 135.474 25.9225 126.425 25.9225 126.425L37.6609 124.224Z" fill="#FEB8B8"/>
<path d="M24.2106 144.766L27.1452 149.413L44.6592 143.903C48.5021 142.694 52.716 143.139 56.1245 145.286C59.1814 147.212 61.1378 150.269 56.7359 154.793C47.932 163.841 42.0628 158.95 42.0628 158.95C42.0628 158.95 12.4721 172.89 7.58107 166.042C2.69004 159.195 2.4455 155.771 2.4455 155.771C2.4455 155.771 21.2759 144.033 24.2106 144.766Z" fill="#2F2E41"/>
<path d="M60.8933 160.907C60.8933 160.907 68.7189 166.042 59.426 168.488C50.133 170.933 43.2856 167.51 43.2856 167.51C43.2856 167.51 35.2154 167.51 35.2154 163.352C35.2154 159.195 37.9055 158.706 37.9055 158.706L46.2202 159.929C46.2202 159.929 56.2468 157.239 60.8933 160.907Z" fill="#D0CDE1"/>
<path d="M45.4659 92.5988C46.2149 92.9327 46.9576 93.3279 47.772 93.4248C48.5863 93.5218 49.5136 93.2374 49.8989 92.5135C50.1071 92.1225 50.1309 91.6626 50.1406 91.2198C50.17 89.8769 50.0729 88.4252 49.2219 87.3859C48.6803 86.7245 47.8897 86.3076 47.3291 85.6622C46.9275 85.1999 46.6602 84.6395 46.3723 84.0989C45.2821 82.0512 43.6678 80.0832 41.4243 79.4928C40.4875 79.2463 39.5047 79.2584 38.5361 79.272L32.8864 79.3517C31.9721 79.3646 31.0438 79.3796 30.1685 79.6443C28.35 80.1941 27.026 81.7233 25.8134 83.1857C24.9061 84.2799 23.9965 85.3853 23.3156 86.6329C22.3394 88.4536 21.8458 90.4939 21.8818 92.5595C21.8743 93.0892 21.9427 93.6173 22.0849 94.1277C22.2514 94.5957 22.4576 95.0487 22.7013 95.4815C23.7608 97.5626 24.3899 100.162 23.1967 102.169C25.2694 101.323 27.3203 100.213 28.6875 98.4395C29.2992 97.6463 29.7789 96.7178 30.594 96.1358C31.4092 95.5538 32.7374 95.5033 33.2604 96.3575C33.4402 96.7031 33.5327 97.0873 33.5301 97.4768C33.5682 98.118 33.5672 98.7839 33.8391 99.3659C34.1109 99.9479 34.7585 100.417 35.3768 100.243C36.4415 99.9434 36.3396 98.3092 37.1597 97.5669C37.7825 97.0031 38.7434 97.1109 39.5435 96.855C40.4757 96.5568 41.1752 95.7491 41.5738 94.8552C41.8768 94.1757 41.8724 92.3975 42.4457 92.0295C43.1646 91.5681 44.7995 92.3017 45.4659 92.5988Z" fill="#2F2E41"/>
<path d="M18.0791 103.378C18.5742 103.246 19.0954 103.247 19.5898 103.382C21.1597 103.803 24.6788 104.919 25.4333 106.616C26.4115 108.817 29.8353 112.241 29.8353 112.241C29.8353 112.241 34.4817 116.888 33.5035 120.067C32.5253 123.246 28.8571 126.914 28.8571 126.914C28.8571 126.914 29.8353 142.076 24.9442 145.989C20.0532 149.902 18.0968 147.212 18.0968 150.88C18.0968 154.549 2.93462 166.042 0 158.95C0 158.95 1.46731 145.745 0.978206 141.098C0.496157 136.519 1.20185 107.947 18.0791 103.378Z" fill="#D0CDE1"/>
<path d="M25.9225 109.551C25.9225 109.551 40.8401 120.556 38.1501 125.202C38.1501 125.202 29.1017 129.604 27.1453 129.36C25.1888 129.115 17.6077 120.556 15.6513 119.822C13.6949 119.089 12.7167 105.883 25.9225 109.551Z" fill="#D0CDE1"/>
<path d="M92.5714 85.2157C99.2436 85.2157 104.652 79.8068 104.652 73.1346C104.652 66.4624 99.2436 61.0535 92.5714 61.0535C85.8992 61.0535 80.4904 66.4624 80.4904 73.1346C80.4904 79.8068 85.8992 85.2157 92.5714 85.2157Z" fill="#F2F2F2"/>
<path d="M192.355 57.4445H124.655V43.2782H192.355V57.4445ZM124.953 57.1463H192.057V43.5764H124.953V57.1463Z" fill="#3F3D56"/>
<path d="M187.434 46.1115H120.032V59.9796H187.434V46.1115Z" fill="#FFCB05"/>
<path d="M77.4239 32.8771C78.0004 32.8771 78.4677 32.4098 78.4677 31.8333C78.4677 31.2568 78.0004 30.7894 77.4239 30.7894C76.8474 30.7894 76.38 31.2568 76.38 31.8333C76.38 32.4098 76.8474 32.8771 77.4239 32.8771Z" fill="#FFCB05"/>
<path d="M81.0027 32.8771C81.5792 32.8771 82.0465 32.4098 82.0465 31.8333C82.0465 31.2568 81.5792 30.7894 81.0027 30.7894C80.4261 30.7894 79.9588 31.2568 79.9588 31.8333C79.9588 32.4098 80.4261 32.8771 81.0027 32.8771Z" fill="#FFCB05"/>
<path d="M84.5816 32.8771C85.1581 32.8771 85.6254 32.4098 85.6254 31.8333C85.6254 31.2568 85.1581 30.7894 84.5816 30.7894C84.0051 30.7894 83.5377 31.2568 83.5377 31.8333C83.5377 32.4098 84.0051 32.8771 84.5816 32.8771Z" fill="#FFCB05"/>
<path d="M200 110.717H74.4415V29H200V110.717ZM74.7397 110.419H199.702V29.2982H74.7397V110.419Z" fill="#3F3D56"/>
<path d="M199.851 33.5236H74.5906V33.8218H199.851V33.5236Z" fill="#3F3D56"/>
<path d="M77.7221 32.5789C77.4862 32.5789 77.2555 32.5089 77.0594 32.3779C76.8632 32.2468 76.7103 32.0605 76.62 31.8425C76.5297 31.6245 76.5061 31.3846 76.5521 31.1532C76.5981 30.9218 76.7117 30.7092 76.8786 30.5424C77.0454 30.3756 77.258 30.2619 77.4894 30.2159C77.7208 30.1699 77.9607 30.1935 78.1787 30.2838C78.3966 30.3741 78.583 30.527 78.714 30.7232C78.8451 30.9194 78.9151 31.15 78.9151 31.3859C78.9147 31.7022 78.7889 32.0054 78.5653 32.2291C78.3416 32.4527 78.0384 32.5785 77.7221 32.5789ZM77.7221 30.4912C77.5452 30.4912 77.3722 30.5437 77.2251 30.642C77.0779 30.7403 76.9632 30.8801 76.8955 31.0436C76.8278 31.207 76.8101 31.3869 76.8446 31.5605C76.8791 31.7341 76.9643 31.8935 77.0895 32.0186C77.2146 32.1437 77.374 32.229 77.5476 32.2635C77.7211 32.298 77.901 32.2803 78.0645 32.2126C78.228 32.1448 78.3677 32.0302 78.4661 31.883C78.5644 31.7359 78.6168 31.5629 78.6168 31.3859C78.6166 31.1487 78.5222 30.9213 78.3545 30.7536C78.1868 30.5859 77.9593 30.4915 77.7221 30.4912Z" fill="#3F3D56"/>
<path d="M81.301 32.5789C81.065 32.5789 80.8344 32.5089 80.6382 32.3779C80.442 32.2468 80.2891 32.0605 80.1988 31.8425C80.1085 31.6245 80.0849 31.3846 80.131 31.1532C80.177 30.9218 80.2906 30.7092 80.4574 30.5424C80.6243 30.3756 80.8368 30.2619 81.0683 30.2159C81.2997 30.1699 81.5395 30.1935 81.7575 30.2838C81.9755 30.3741 82.1618 30.527 82.2929 30.7232C82.424 30.9194 82.494 31.15 82.494 31.3859C82.4936 31.7022 82.3678 32.0054 82.1441 32.2291C81.9205 32.4527 81.6173 32.5785 81.301 32.5789ZM81.301 30.4912C81.124 30.4912 80.951 30.5437 80.8039 30.642C80.6568 30.7403 80.5421 30.8801 80.4744 31.0436C80.4067 31.207 80.3889 31.3869 80.4235 31.5605C80.458 31.7341 80.5432 31.8935 80.6683 32.0186C80.7935 32.1437 80.9529 32.229 81.1264 32.2635C81.3 32.298 81.4799 32.2803 81.6434 32.2126C81.8069 32.1448 81.9466 32.0302 82.0449 31.883C82.1432 31.7359 82.1957 31.5629 82.1957 31.3859C82.1954 31.1487 82.1011 30.9213 81.9334 30.7536C81.7656 30.5859 81.5382 30.4915 81.301 30.4912Z" fill="#3F3D56"/>
<path d="M84.8798 32.5789C84.6439 32.5789 84.4133 32.5089 84.2171 32.3779C84.0209 32.2468 83.868 32.0605 83.7777 31.8425C83.6874 31.6245 83.6638 31.3846 83.7098 31.1532C83.7558 30.9218 83.8695 30.7092 84.0363 30.5424C84.2031 30.3756 84.4157 30.2619 84.6471 30.2159C84.8785 30.1699 85.1184 30.1935 85.3364 30.2838C85.5544 30.3741 85.7407 30.527 85.8718 30.7232C86.0028 30.9194 86.0728 31.15 86.0728 31.3859C86.0724 31.7022 85.9466 32.0054 85.723 32.2291C85.4993 32.4527 85.1961 32.5785 84.8798 32.5789ZM84.8798 30.4912C84.7029 30.4912 84.5299 30.5437 84.3828 30.642C84.2356 30.7403 84.121 30.8801 84.0532 31.0436C83.9855 31.207 83.9678 31.3869 84.0023 31.5605C84.0368 31.7341 84.1221 31.8935 84.2472 32.0186C84.3723 32.1437 84.5317 32.229 84.7053 32.2635C84.8789 32.298 85.0587 32.2803 85.2222 32.2126C85.3857 32.1448 85.5255 32.0302 85.6238 31.883C85.7221 31.7359 85.7746 31.5629 85.7746 31.3859C85.7743 31.1487 85.6799 30.9213 85.5122 30.7536C85.3445 30.5859 85.1171 30.4915 84.8798 30.4912Z" fill="#3F3D56"/>
<path d="M114.066 33.6726H113.768V110.684H114.066V33.6726Z" fill="#3F3D56"/>
<path d="M149.93 71.5363H128.01V74.5187H149.93V71.5363Z" fill="#F2F2F2"/>
<path d="M184.377 71.5363H162.456V74.5187H184.377V71.5363Z" fill="#F2F2F2"/>
<path d="M151.272 73.1766H129.054V69.896H151.272V73.1766ZM129.352 72.8784H150.974V70.1942H129.352V72.8784Z" fill="#3F3D56"/>
<path d="M149.93 94.6498H128.01V97.6322H149.93V94.6498Z" fill="#F2F2F2"/>
<path d="M151.272 96.2901H129.054V93.0095H151.272V96.2901ZM129.352 95.9919H150.974V93.3078H129.352V95.9919Z" fill="#3F3D56"/>
<path d="M184.451 82.7948H128.084V85.7772H184.451V82.7948Z" fill="#F2F2F2"/>
<path d="M185.793 84.7333H129.128V81.4527H185.793V84.7333ZM129.426 84.4351H185.495V81.7509H129.426V84.4351Z" fill="#3F3D56"/>
<path d="M185.719 73.1766H163.5V69.896H185.719V73.1766ZM163.798 72.8784H185.421V70.1942H163.798V72.8784Z" fill="#3F3D56"/>
<path d="M94.6159 82.056C92.1897 82.056 89.818 81.3365 87.8007 79.9886C85.7834 78.6407 84.2112 76.7249 83.2827 74.4834C82.3543 72.2419 82.1113 69.7754 82.5846 67.3959C83.058 65.0163 84.2263 62.8306 85.9418 61.115C87.6574 59.3994 89.8432 58.2311 92.2227 57.7578C94.6023 57.2845 97.0687 57.5274 99.3102 58.4559C101.552 59.3843 103.468 60.9566 104.815 62.9739C106.163 64.9912 106.883 67.3629 106.883 69.789C106.879 73.0413 105.586 76.1593 103.286 78.459C100.986 80.7587 97.8681 82.0523 94.6159 82.056ZM94.6159 57.8938C92.2632 57.8938 89.9634 58.5915 88.0072 59.8985C86.0511 61.2056 84.5265 63.0634 83.6261 65.2369C82.7258 67.4105 82.4903 69.8022 82.9492 72.1097C83.4082 74.4171 84.5411 76.5366 86.2047 78.2002C87.8683 79.8638 89.9878 80.9967 92.2952 81.4557C94.6027 81.9147 96.9944 81.6791 99.168 80.7788C101.342 79.8785 103.199 78.3538 104.506 76.3977C105.813 74.4415 106.511 72.1417 106.511 69.789C106.507 66.6353 105.253 63.6118 103.023 61.3818C100.793 59.1518 97.7696 57.8974 94.6159 57.8938Z" fill="#3F3D56"/>
<path d="M191.636 167.367H139.037V167.739H191.636V167.367Z" fill="#3F3D56"/>
</g>
<defs>
<clipPath id="clip0">
<rect width="200" height="141" fill="white" transform="translate(0 29)"/>
</clipPath>
</defs>
</svg>
