<svg width="200" height="200" viewBox="0 0 200 200" fill="none" xmlns="http://www.w3.org/2000/svg">
<g clip-path="url(#clip0)">
<path d="M75.718 162.04C75.718 165.596 59.0409 168.48 38.4682 168.48C17.8956 168.48 1.21844 165.596 1.21844 162.04C1.21844 161.15 2.25935 160.304 4.14273 159.535C9.62576 157.291 22.2506 155.697 37.0896 155.605C37.5474 155.601 38.007 155.6 38.4682 155.6C59.0409 155.6 75.718 158.484 75.718 162.04Z" fill="#3F3D56"/>
<path opacity="0.1" d="M37.0896 155.605C35.4205 158.326 33.157 160.634 30.4688 162.356C27.7806 164.077 24.7375 165.168 21.5677 165.546C18.3979 165.925 15.1836 165.58 12.1658 164.539C9.14805 163.498 6.40513 161.787 4.1427 159.535C9.62573 157.291 22.2506 155.697 37.0896 155.605Z" fill="black"/>
<path d="M19.4952 162.214C30.2621 162.214 38.9904 152.862 38.9904 141.326C38.9904 129.79 30.2621 120.439 19.4952 120.439C8.7283 120.439 0 129.79 0 141.326C0 152.862 8.7283 162.214 19.4952 162.214Z" fill="#3F3D56"/>
<path d="M43.4163 46.506C46.1804 57.1547 55.0976 64.0374 63.3533 61.8944L43.4163 46.506Z" fill="#3F3D56"/>
<path d="M63.3533 61.8944C60.5581 51.1261 65.7513 40.4774 74.9642 38.0859L63.3533 61.8944Z" fill="#FFCB05"/>
<path d="M49.0786 46.0666C51.7042 56.1817 58.0888 63.2609 63.3533 61.8944L49.0786 46.0666Z" fill="#FFCB05"/>
<path d="M63.3533 61.8944C59.7817 48.1349 65.5084 34.7641 76.1571 32L63.3533 61.8944Z" fill="#3F3D56"/>
<path d="M60.2464 62.8459C60.2464 62.8459 62.3477 62.2308 62.868 61.6105C63.3884 60.9902 65.8674 59.7674 66.2151 60.4553C66.5627 61.1432 70.3395 63.2549 67.9531 63.895C65.5667 64.535 62.2998 64.9648 61.5619 64.7421C60.824 64.5194 60.2464 62.8459 60.2464 62.8459Z" fill="#A8A8A8"/>
<path opacity="0.2" d="M67.9299 63.6301C65.5435 64.2702 62.2766 64.7 61.5387 64.4773C60.9767 64.3076 60.5081 63.2973 60.3164 62.8248C60.2721 62.8383 60.2464 62.8459 60.2464 62.8459C60.2464 62.8459 60.824 64.5194 61.5619 64.7421C62.2998 64.9648 65.5667 64.535 67.9531 63.895C68.6419 63.7102 68.8166 63.4027 68.7091 63.0424C68.6703 63.287 68.4426 63.4926 67.9299 63.6301Z" fill="black"/>
<path d="M200 53.9459H59.7041V135.234H200V53.9459Z" fill="#F2F2F2"/>
<path opacity="0.3" d="M139.948 78.6195H63.0113V118.915H139.948V78.6195Z" fill="#FFCB05"/>
<path d="M176.724 76.8629H145.866V78.5699H176.724V76.8629Z" fill="#3F3D56"/>
<path d="M190.775 80.0143H145.866V81.7214H190.775V80.0143Z" fill="#3F3D56"/>
<path d="M176.724 87.6304H145.866V89.3375H176.724V87.6304Z" fill="#3F3D56"/>
<path d="M176.724 100.236H145.866V101.943H176.724V100.236Z" fill="#3F3D56"/>
<path d="M190.775 90.7819H145.866V92.4889H190.775V90.7819Z" fill="#3F3D56"/>
<path d="M190.775 93.9334H145.866V95.6404H190.775V93.9334Z" fill="#3F3D56"/>
<path d="M190.775 97.0849H145.866V98.7919H190.775V97.0849Z" fill="#3F3D56"/>
<path d="M162.017 107.852H145.866V112.317H162.017V107.852Z" fill="#FFCB05"/>
<path d="M54.7411 103.003C54.7411 103.003 57.6405 94.7884 59.7345 97.3656C61.8285 99.9428 56.5129 104.292 56.5129 104.292L54.7411 103.003Z" fill="#FEB8B8"/>
<path d="M41.0496 94.9494L42.7938 95.5958C42.7938 95.5958 43.6269 99.2985 43.3047 99.9428C42.9826 100.587 42.8215 100.104 43.3047 101.392C43.7879 102.681 45.2376 106.064 45.3987 106.547C45.5598 107.03 54.7411 103.486 54.7411 101.715C54.7411 101.715 56.674 103.97 57.6405 104.453C57.6405 104.453 47.0095 112.185 45.5598 113.151C44.1101 114.118 43.3047 113.634 42.0161 112.507C40.7275 111.379 35.2509 102.037 35.2509 102.037L41.0496 94.9494Z" fill="#575A89"/>
<path d="M45.7208 152.131C45.7208 152.131 45.5597 153.903 45.2376 154.064C44.9154 154.225 42.4993 158.252 45.2376 159.058C47.9759 159.863 49.5866 159.541 50.2309 159.863C50.8752 160.185 62.1505 160.83 62.3116 159.058C62.4727 157.286 56.835 156.964 56.835 156.964C56.835 156.964 51.6806 153.581 50.8752 151.809C50.0698 150.037 45.7208 152.131 45.7208 152.131Z" fill="#2F2E41"/>
<path d="M13.0224 155.353C13.0224 155.353 9.15655 161.957 10.123 162.762C11.0895 163.568 20.5016 166.503 21.8816 166.628C23.6534 166.789 24.942 165.34 23.4923 164.534C22.0426 163.729 18.9822 160.346 18.9822 159.219V156.319L13.0224 155.353Z" fill="#2F2E41"/>
<path d="M9.31762 112.185C9.31762 112.185 5.93502 116.373 11.2505 123.138L20.1097 134.413C20.1097 134.413 14.6331 143.111 14.4721 147.621C14.311 152.131 13.1834 151.165 12.8613 153.098C12.5391 155.031 11.0895 154.064 12.217 155.514C13.3445 156.964 17.5325 158.252 18.8211 157.125C20.1097 155.997 20.1097 154.548 20.1097 153.903C20.1097 153.259 22.3648 149.554 22.5259 148.427C22.6869 147.299 28.6468 138.118 28.6468 138.118C28.6468 138.118 30.5797 132.641 28.3246 129.581C26.0695 126.52 24.5794 122.18 24.5794 122.18C24.5794 122.18 31.224 130.225 35.8952 132.158C35.8952 132.158 37.667 132.48 37.3449 133.286C37.0227 134.091 37.3449 134.574 37.8281 135.38C38.3113 136.185 41.6939 145.527 42.8215 147.943C43.949 150.36 43.4658 151.809 44.7544 152.615C46.043 153.42 51.8417 152.776 51.8417 151.97C51.8417 151.165 51.0364 149.071 50.5531 147.943C50.0699 146.816 46.2041 133.769 46.5262 131.514C46.8484 129.259 46.3652 126.198 43.949 124.91C41.5329 123.621 29.2911 113.151 28.6468 113.151C28.0025 113.151 9.31762 112.185 9.31762 112.185Z" fill="#2F2E41"/>
<path d="M41.6939 86.8956C45.4302 86.8956 48.4591 83.8667 48.4591 80.1304C48.4591 76.3941 45.4302 73.3652 41.6939 73.3652C37.9575 73.3652 34.9286 76.3941 34.9286 80.1304C34.9286 83.8667 37.9575 86.8956 41.6939 86.8956Z" fill="#FEB8B8"/>
<path d="M36.2174 80.7747C36.2174 80.7747 34.1234 84.4795 31.5461 84.9627C28.9689 85.4459 38.3113 92.8554 38.3113 92.8554C38.3113 92.8554 40.5664 85.7681 42.4993 85.4459C44.4323 85.1238 36.2174 80.7747 36.2174 80.7747Z" fill="#FEB8B8"/>
<path d="M42.8214 95.9159C42.8214 98.0099 36.5395 103.97 36.5395 103.97L30.5796 108.963C30.5796 108.963 30.4186 110.735 29.7743 110.896C29.13 111.057 28.3246 111.057 28.9689 112.023C29.6132 112.99 31.2239 115.084 29.7743 115.406C29.3372 115.473 28.8968 115.514 28.4551 115.532C28.0685 115.554 27.6142 115.575 27.1036 115.595C25.9117 115.636 24.4201 115.664 22.8045 115.653C22.3454 115.651 21.8783 115.646 21.4031 115.636C15.3128 115.516 8.2577 114.815 8.83437 112.507C9.80082 108.641 9.15652 107.352 11.2505 105.258C13.3445 103.164 16.7271 95.9159 16.7271 95.9159C16.7271 95.9159 23.4923 84.4794 29.13 84.4794L30.301 84.1718C30.8451 84.0284 31.4205 84.0599 31.9458 84.2617C32.471 84.4635 32.9195 84.8253 33.2277 85.2961C34.3585 87.018 36.1416 89.6049 37.1838 90.4393C38.7945 91.7279 39.0458 90.8033 39.0458 90.8033C39.0458 90.8033 42.8214 93.8219 42.8214 95.9159Z" fill="#575A89"/>
<path d="M28.4856 120.399C28.4856 120.399 33.1568 127.648 30.2575 128.936C27.3581 130.225 25.7473 121.366 25.7473 121.366L28.4856 120.399Z" fill="#FEB8B8"/>
<path d="M37.2712 79.3663C37.5309 79.3335 37.613 79.0059 37.6567 78.7479C37.8907 77.3661 38.9204 76.0558 40.304 75.8328C40.8328 75.7624 41.3706 75.8058 41.8813 75.9599C42.613 76.1607 43.2998 76.4987 43.9052 76.956C44.2247 77.1977 44.5322 77.4782 44.9165 77.5911C45.1704 77.6657 46.2483 78.1449 46.5001 78.2259C47.0538 78.4042 47.512 78.9838 48.0823 78.869C48.6279 78.7592 48.8351 78.1004 48.9228 77.5509C49.1225 76.2988 48.4059 74.4307 47.6934 73.382C47.1527 72.5862 46.2377 72.1282 45.3229 71.8302C44.2512 71.5049 43.15 71.2861 42.0353 71.177C40.5305 70.9992 38.9719 70.905 37.5299 71.3701C36.0878 71.8352 34.7747 72.9731 34.5055 74.4642C34.4494 74.7748 34.4389 75.093 34.3701 75.401C34.2025 76.1526 33.7053 76.7843 33.4152 77.4975C33.2059 78.0214 33.1088 78.5832 33.13 79.1469C33.1512 79.7106 33.2903 80.2636 33.5384 80.7703C33.94 81.578 34.6385 82.3542 34.4877 83.2436L35.7308 82.2635C35.9104 82.1614 36.0495 82.0008 36.1251 81.8085C36.2006 81.6162 36.2078 81.4039 36.1457 81.2068L35.965 79.6504C35.9319 79.3654 35.9031 79.0579 36.0456 78.8089C36.598 77.8439 36.8383 79.4209 37.2712 79.3663Z" fill="#2F2E41"/>
<path opacity="0.1" d="M25.5863 109.285L27.1036 115.595C25.5734 115.649 23.5487 115.678 21.4031 115.636C20.8619 114.013 20.3448 112.32 19.9486 110.735C18.4989 104.936 20.9151 96.0769 22.2037 91.889C23.4923 87.701 26.7138 86.5735 26.7138 86.5735C26.7138 86.5735 28.3246 87.0567 30.4186 88.5064C32.5126 89.9561 25.5863 109.285 25.5863 109.285Z" fill="black"/>
<path opacity="0.1" d="M26.8749 108.963L28.4551 115.532C28.0685 115.554 27.6143 115.575 27.1036 115.595C25.9117 115.636 24.4201 115.664 22.8045 115.653C22.2231 113.927 21.6609 112.107 21.2372 110.413C19.7876 104.614 22.2037 95.7548 23.4923 91.5668C24.7809 87.3788 27.5998 91.9695 27.5998 91.9695C27.5998 91.9695 26.4722 89.2312 28.5662 90.6809C30.6602 92.1306 26.8749 108.963 26.8749 108.963Z" fill="black"/>
<path d="M27.3582 86.2513C27.3582 86.2513 24.1366 87.3788 22.848 91.5668C21.5594 95.7548 19.1433 104.614 20.593 110.413C22.0426 116.211 25.1031 123.46 25.1031 123.46C25.1031 123.46 28.1635 121.205 29.2911 121.688L26.2306 108.963C26.2306 108.963 33.1569 89.6339 31.0629 88.1842C28.9689 86.7345 27.3582 86.2513 27.3582 86.2513Z" fill="#575A89"/>
<path d="M136.641 74.442H59.7041V114.738H136.641V74.442Z" fill="#3F3D56"/>
<path d="M99.6037 104.101C104.412 104.101 108.31 100.196 108.31 95.3787C108.31 90.5617 104.412 86.6567 99.6037 86.6567C94.7954 86.6567 90.8975 90.5617 90.8975 95.3787C90.8975 100.196 94.7954 104.101 99.6037 104.101Z" fill="white"/>
<path d="M99.6037 85.1702C97.5458 85.1702 95.5341 85.7805 93.823 86.9238C92.1119 88.0671 90.7782 89.6922 89.9907 91.5934C89.2032 93.4947 88.9971 95.5868 89.3986 97.6052C89.8001 99.6235 90.7911 101.478 92.2462 102.933C93.7014 104.388 95.5554 105.379 97.5738 105.78C99.5922 106.182 101.684 105.976 103.586 105.188C105.487 104.401 107.112 103.067 108.255 101.356C109.398 99.6449 110.009 97.6332 110.009 95.5752C110.001 92.8181 108.902 90.1763 106.952 88.2267C105.003 86.2771 102.361 85.1783 99.6037 85.1702ZM97.4677 101.123L92.1351 95.7903L93.6308 94.2946L97.4727 98.1365L105.582 90.0276L107.077 91.5233L97.4677 101.123Z" fill="#FFCB05"/>
</g>
<defs>
<clipPath id="clip0">
<rect width="200" height="136.48" fill="white" transform="translate(0 32)"/>
</clipPath>
</defs>
</svg>
