<svg width="200" height="200" viewBox="0 0 200 200" fill="none" xmlns="http://www.w3.org/2000/svg">
<g clip-path="url(#clip0)">
<path opacity="0.1" d="M184.666 131.164C184.443 131.645 184.221 132.118 183.999 132.586C183.653 133.312 183.312 134.024 182.975 134.721C182.826 135.031 182.676 135.334 182.53 135.638C180.878 139.012 179.336 141.997 178.026 144.451C176.837 146.675 175.073 148.539 172.916 149.847C170.76 151.154 168.292 151.858 165.77 151.884L136.644 152.201H136.337L133.84 152.228L131.704 152.251L125.155 152.322H124.89L121.555 152.359H121.454L100.903 152.581L82.5587 152.773L80.4249 152.797L67.1724 152.941H67.1571L58.5622 153.033H58.47L31.293 153.327L23.1629 153.415C21.4279 153.435 19.7003 153.187 18.0406 152.681C15.1523 151.809 12.5566 150.165 10.5328 147.928C7.04107 144.081 4.49623 139.592 2.78686 134.721C2.53973 134.018 2.30926 133.306 2.09543 132.586C-3.82206 112.582 3.39186 86.7745 16.3754 69.5041C16.9196 68.782 17.4727 68.0777 18.0348 67.3914L18.0483 67.3761C22.0413 62.4746 26.5183 58.3798 31.2872 55.4681C39.738 50.2997 49.1012 48.8438 58.3106 53.1825C66.1026 56.8548 73.378 58.5815 80.4306 59.0501C81.1432 59.0962 81.8557 59.1308 82.5644 59.1519C98.742 59.6609 113.904 53.8317 131.708 50.0692C132.417 49.9194 133.127 49.7715 133.844 49.6313C146.545 47.1037 160.635 45.7708 177.39 48.573C179.131 48.8574 180.849 49.2682 182.53 49.8022C183.269 50.0404 183.981 50.2965 184.666 50.5705C192.663 53.824 197.025 59.8356 198.878 67.3684C199.054 68.0675 199.206 68.7788 199.334 69.5022C202.62 87.6215 192.995 113.324 184.666 131.164Z" fill="#FFCB05"/>
<g opacity="0.1">
<path opacity="0.1" d="M31.2872 55.468V153.348L23.1571 153.436C21.4222 153.456 19.6945 153.208 18.0348 152.702V67.376H18.0482C22.0412 62.4687 26.5183 58.3739 31.2872 55.468Z" fill="#FFCB05"/>
<path opacity="0.1" d="M199.343 69.504H16.3754C16.9195 68.7819 17.4727 68.0776 18.0348 67.3913V67.376H198.888C199.063 68.0712 199.215 68.7806 199.343 69.504Z" fill="#FFCB05"/>
<path opacity="0.1" d="M184.666 50.5723V132.584H183.999C183.653 133.31 183.312 134.022 182.975 134.719C182.826 135.029 182.676 135.332 182.53 135.636V49.7964C183.269 50.0345 183.981 50.2932 184.666 50.5723Z" fill="#FFCB05"/>
<path opacity="0.1" d="M133.844 49.6255V152.236L131.708 152.259V50.0634C132.417 49.9136 133.127 49.7657 133.844 49.6255Z" fill="#FFCB05"/>
<path opacity="0.1" d="M82.5644 59.1461V152.793L80.4306 152.816V59.0443C81.1432 59.0904 81.8557 59.1173 82.5644 59.1461Z" fill="#FFCB05"/>
<path opacity="0.1" d="M183.999 132.586C183.653 133.312 183.312 134.023 182.975 134.721H2.78683C2.53971 134.018 2.30923 133.306 2.0954 132.586H183.999Z" fill="#FFCB05"/>
</g>
<path d="M44.29 98.0564H40.6407V109.131H44.29V98.0564Z" fill="#3F3D56"/>
<path d="M142.498 97.4802H138.849V109.196H142.498V97.4802Z" fill="#3F3D56"/>
<path d="M165.77 149.495V151.992L136.592 152.261L136.281 152.266L125.191 152.368L124.926 152.372L121.555 152.401H121.455L100.908 152.591L67.1801 152.904H67.1513L58.5757 152.985L58.4835 152.987L20.378 153.336V150.455L29.3378 145.077L47.315 144.928L47.6991 144.926L47.8258 144.924L48.21 144.918L56.8413 144.847L57.2274 144.845L57.3503 144.843L57.7344 144.841L60.5021 144.818L60.5751 144.816L67.4029 144.759H67.4586L120.737 144.309L122.041 144.3H122.172L123.167 144.29L130.398 144.23L130.782 144.225L131.137 144.221H131.322L133.571 144.204L134.016 144.198L134.614 144.194L136.486 144.177L139.458 144.152L139.842 144.148L140.51 144.144H140.635L154.984 144.021L165.77 149.495Z" fill="#65617D"/>
<path opacity="0.2" d="M165.77 149.495V151.992L136.592 152.261L136.281 152.266L125.191 152.368L124.926 152.372L121.555 152.401H121.455L100.908 152.591L67.1801 152.904H67.1513L58.5757 152.985L58.4835 152.987L20.378 153.336V150.455L29.3378 145.077L47.315 144.928L47.6991 144.926L47.8258 144.924L48.21 144.918L56.8413 144.847L57.2274 144.845L57.3503 144.843L57.7344 144.841L60.5021 144.818L60.5751 144.816L67.4029 144.759H67.4586L120.737 144.309L122.041 144.3H122.172L123.167 144.29L130.398 144.23L130.782 144.225L131.137 144.221H131.322L133.571 144.204L134.016 144.198L134.614 144.194L136.486 144.177L139.458 144.152L139.842 144.148L140.51 144.144H140.635L154.984 144.021L165.77 149.495Z" fill="black"/>
<path d="M56.8702 139.894V144.597C56.8703 144.82 56.8072 145.038 56.6882 145.227C56.5692 145.415 56.3992 145.566 56.198 145.661C56.0481 145.734 55.8843 145.773 55.7178 145.776L49.0148 145.919C48.8358 145.923 48.6582 145.885 48.4962 145.809C48.2914 145.715 48.1179 145.565 47.9964 145.375C47.8748 145.185 47.8103 144.965 47.8105 144.739V139.894H56.8702Z" fill="#3F3D56"/>
<path opacity="0.1" d="M56.8702 139.894V144.597C56.8703 144.82 56.8072 145.038 56.6882 145.227C56.5692 145.415 56.3992 145.566 56.198 145.661C56.0481 145.734 55.8843 145.773 55.7178 145.776L49.0148 145.919C48.8358 145.923 48.6582 145.885 48.4962 145.809C48.2914 145.715 48.1179 145.565 47.9964 145.375C47.8748 145.185 47.8103 144.965 47.8105 144.739V139.894H56.8702Z" fill="black"/>
<path d="M57.2543 139.894V144.597C57.2544 144.82 57.1913 145.038 57.0723 145.227C56.9533 145.415 56.7833 145.566 56.5821 145.661C56.4322 145.734 56.2684 145.773 56.1019 145.776L49.3989 145.919C49.2199 145.923 49.0423 145.885 48.8803 145.809C48.6755 145.715 48.502 145.565 48.3805 145.375C48.2589 145.185 48.1944 144.965 48.1946 144.739V139.894H57.2543Z" fill="#3F3D56"/>
<path d="M139.842 139.894H130.782V145.944H139.842V139.894Z" fill="#3F3D56"/>
<path opacity="0.1" d="M139.842 139.894H130.782V145.944H139.842V139.894Z" fill="black"/>
<path d="M139.458 139.894H130.398V145.944H139.458V139.894Z" fill="#3F3D56"/>
<path opacity="0.1" d="M44.29 98.0544V99.155L40.6407 99.0609V98.0544H44.29Z" fill="black"/>
<path d="M68.3094 67.0515L63.9246 98.55C63.8968 98.7512 63.7958 98.9351 63.641 99.0665C63.4862 99.198 63.2883 99.2678 63.0853 99.2625L27.976 98.3522L27.3095 98.3349C27.1935 98.3321 27.0793 98.305 26.9745 98.2551C26.8697 98.2053 26.7765 98.1339 26.7011 98.0456C26.6258 97.9574 26.5698 97.8542 26.537 97.7429C26.5041 97.6316 26.4951 97.5146 26.5106 97.3995L31.4332 64.426C31.4649 64.2218 31.5721 64.0368 31.7335 63.9078C31.8949 63.7787 32.0989 63.7148 32.3051 63.7288L67.5412 66.1143C67.6548 66.1208 67.7659 66.1509 67.8674 66.2026C67.9689 66.2543 68.0585 66.3264 68.1307 66.4145C68.2029 66.5026 68.2561 66.6046 68.2868 66.7143C68.3176 66.8239 68.3253 66.9388 68.3094 67.0515Z" fill="#65617D"/>
<path d="M33.7898 66.045L30.0772 95.1101L62.3439 96.1338L66.312 68.0924L33.7898 66.045Z" fill="#FFCB05"/>
<path d="M112.154 65.5957H74.8915C74.3261 65.5957 73.8678 66.054 73.8678 66.6194V97.8624C73.8678 98.4278 74.3261 98.8861 74.8915 98.8861H112.154C112.719 98.8861 113.177 98.4278 113.177 97.8624V66.6194C113.177 66.054 112.719 65.5957 112.154 65.5957Z" fill="#65617D"/>
<path d="M111.447 67.837H75.7231V95.5576H111.447V67.837Z" fill="#FFCB05"/>
<path opacity="0.1" d="M142.498 97.4781V98.2061L138.849 98.281V97.4781H142.498Z" fill="black"/>
<path d="M158.964 96.8636C158.969 96.9432 158.958 97.023 158.931 97.0982C158.905 97.1735 158.864 97.2426 158.81 97.3014C158.756 97.3603 158.691 97.4076 158.618 97.4407C158.546 97.4737 158.467 97.4917 158.387 97.4936L122.433 98.2369C122.284 98.24 122.139 98.1864 122.027 98.087C121.916 97.9876 121.846 97.8497 121.832 97.701L118.742 65.5726C118.734 65.4929 118.743 65.4124 118.767 65.3362C118.791 65.2599 118.831 65.1893 118.883 65.1288C118.936 65.0683 119 65.0191 119.072 64.9841C119.144 64.9491 119.222 64.9291 119.302 64.9253L154.984 63.1506L155.368 63.1314C155.521 63.1234 155.671 63.175 155.786 63.2753C155.902 63.3756 155.973 63.5169 155.987 63.6692L158.964 96.8636Z" fill="#65617D"/>
<path d="M120.795 66.8134L153.382 65.2115L156.135 94.4053L123.804 95.1735L120.795 66.8134Z" fill="#FFCB05"/>
<path opacity="0.1" d="M158.964 96.8636C158.969 96.9432 158.958 97.023 158.931 97.0982C158.905 97.1735 158.864 97.2426 158.81 97.3014C158.756 97.3603 158.691 97.4076 158.618 97.4407C158.546 97.4737 158.467 97.4917 158.387 97.4936L154.984 63.1506L155.368 63.1314C155.521 63.1234 155.671 63.175 155.786 63.2753C155.902 63.3756 155.973 63.5169 155.987 63.6692L158.964 96.8636Z" fill="black"/>
<path opacity="0.1" d="M32.3109 63.7269L27.976 98.3522L27.3095 98.3349C27.1935 98.3321 27.0793 98.305 26.9745 98.2551C26.8697 98.2053 26.7765 98.1339 26.7012 98.0457C26.6258 97.9574 26.5698 97.8542 26.537 97.7429C26.5041 97.6316 26.4951 97.5146 26.5106 97.3995L31.4332 64.426C31.4645 64.2203 31.5723 64.0341 31.7351 63.9045C31.8978 63.7749 32.1034 63.7114 32.3109 63.7269Z" fill="black"/>
<path opacity="0.1" d="M44.29 105.85H40.6407V109.131H44.29V105.85Z" fill="black"/>
<path opacity="0.1" d="M57.2543 139.892V140.846L48.1946 141.088V139.892H57.2543Z" fill="black"/>
<path d="M73.2436 106.993V139.298C73.2413 139.495 73.1632 139.684 73.0256 139.825C72.8879 139.967 72.7013 140.049 72.5042 140.057L35.6951 141.036H35.6855C35.4851 141.034 35.2936 140.953 35.1518 140.811C35.0101 140.67 34.9294 140.478 34.9269 140.278V106.993C34.9294 106.793 35.0101 106.601 35.1518 106.459C35.2936 106.318 35.4851 106.237 35.6855 106.234H72.485C72.6854 106.237 72.8769 106.318 73.0187 106.459C73.1604 106.601 73.2411 106.793 73.2436 106.993Z" fill="#65617D"/>
<path opacity="0.1" d="M35.6951 106.234V141.036H35.6855C35.4851 141.034 35.2936 140.953 35.1518 140.811C35.0101 140.67 34.9294 140.478 34.9269 140.278V106.993C34.9294 106.793 35.0101 106.601 35.1518 106.459C35.2936 106.318 35.4851 106.237 35.6855 106.234H35.6951Z" fill="black"/>
<path d="M37.3757 108.297H71.467V136.771L37.3757 137.539V108.297Z" fill="#D4DFEC"/>
<path opacity="0.1" d="M142.498 105.85H138.849V109.196H142.498V105.85Z" fill="black"/>
<path opacity="0.1" d="M139.458 139.892V141.123L130.398 140.881V139.892H139.458Z" fill="black"/>
<path d="M151.414 106.993V140.278C151.411 140.48 151.329 140.673 151.185 140.815C151.041 140.957 150.847 141.036 150.645 141.036L113.829 140.057C113.632 140.049 113.445 139.967 113.307 139.825C113.17 139.684 113.091 139.495 113.089 139.298V106.993C113.092 106.793 113.172 106.601 113.314 106.459C113.456 106.318 113.647 106.237 113.848 106.234H150.647C150.849 106.235 151.043 106.315 151.186 106.457C151.329 106.599 151.411 106.791 151.414 106.993Z" fill="#65617D"/>
<path opacity="0.1" d="M151.414 106.993V140.278C151.411 140.48 151.329 140.673 151.185 140.815C151.041 140.957 150.847 141.036 150.645 141.036V106.234C150.847 106.234 151.041 106.314 151.185 106.456C151.329 106.598 151.411 106.791 151.414 106.993Z" fill="black"/>
<path d="M148.965 108.297H114.873V136.771L148.965 137.539V108.297Z" fill="#D4DFEC"/>
<path d="M112.137 106.993V139.298C112.134 139.495 112.056 139.684 111.919 139.825C111.781 139.967 111.594 140.049 111.397 140.057L74.5881 141.036C74.386 141.036 74.192 140.957 74.0482 140.815C73.9044 140.673 73.8224 140.48 73.8198 140.278V106.993C73.8223 106.793 73.903 106.601 74.0448 106.459C74.1865 106.318 74.378 106.237 74.5785 106.234H111.378C111.578 106.237 111.77 106.318 111.912 106.459C112.053 106.601 112.134 106.793 112.137 106.993Z" fill="#65617D"/>
<path d="M76.2686 108.297H110.36V136.771L76.2686 137.539V108.297Z" fill="#D4DFEC"/>
<path opacity="0.1" d="M165.77 149.495V151.992L136.592 152.261L136.281 152.266L125.191 152.368L124.926 152.372L121.555 152.401H121.455L100.908 152.591L67.1801 152.904H67.1513L58.5757 152.985L58.4835 152.987L20.378 153.336V150.455L59.2729 150.2H59.365L67.2377 150.146H67.2742L121.644 149.787H121.699L121.732 149.785H121.822L122.742 149.779H123.023L137.33 149.683L138.175 149.679L138.363 149.677L165.77 149.495Z" fill="black"/>
<path d="M93.5851 109.131C99.0299 109.131 103.444 104.717 103.444 99.2721C103.444 93.8273 99.0299 89.4135 93.5851 89.4135C88.1403 89.4135 83.7264 93.8273 83.7264 99.2721C83.7264 104.717 88.1403 109.131 93.5851 109.131Z" fill="#FBBEBE"/>
<path d="M103.446 119.439C103.446 119.439 84.3353 121.744 86.1599 119.439C86.8206 118.605 87.0031 116.135 86.9666 113.322C86.9551 112.467 86.9243 111.582 86.8802 110.7C86.6689 106.475 86.1599 102.345 86.1599 102.345C86.1599 102.345 102.869 94.4705 100.949 100.713C100.181 103.234 100.432 106.776 101.016 110.101C101.187 111.071 101.385 112.021 101.592 112.924C102.098 115.126 102.717 117.3 103.446 119.439Z" fill="#FBBEBE"/>
<path opacity="0.1" d="M103.446 119.439C103.446 119.439 84.3353 121.744 86.1599 119.439C86.8206 118.605 87.0031 116.135 86.9666 113.322C89.8802 112.077 93.587 113.005 93.587 113.005C97.4898 112.227 99.9924 112.379 101.592 112.924C102.098 115.126 102.717 117.3 103.446 119.439Z" fill="black"/>
<path d="M67.1724 153.121V152.96L100.903 152.593L121.453 152.401H121.511L121.49 152.685L121.519 152.401H121.555V152.368L121.818 149.785L121.918 148.807L121.949 148.502L121.976 148.247L123.163 144.288L124.35 140.335L125.349 137.007L126.874 131.921C126.874 131.921 126.009 129.904 125.529 129.328C125.049 128.752 124.569 124.815 124.569 124.815C124.569 124.815 120.47 120.91 118.678 120.461C117.927 120.269 116.444 120.013 114.87 119.692C114.28 119.573 113.675 119.447 113.093 119.308C112.765 119.233 112.442 119.155 112.133 119.076C111.531 118.926 110.938 118.742 110.356 118.527C110.051 118.416 109.761 118.268 109.492 118.087C108.08 117.052 104.542 116.934 104.406 116.934C104.406 116.93 104.406 116.925 104.406 116.921V116.904C104.411 116.823 104.411 116.742 104.406 116.662C104.406 116.585 104.406 116.495 104.389 116.393C104.389 116.362 104.389 116.329 104.375 116.297C104.366 116.228 104.354 116.155 104.337 116.078C104.331 116.043 104.323 116.009 104.314 115.976C104.258 115.745 104.178 115.52 104.074 115.306C104.06 115.275 104.043 115.242 104.028 115.212C103.933 115.034 103.824 114.865 103.701 114.706C103.676 114.674 103.649 114.639 103.62 114.607C103.463 114.421 103.288 114.251 103.098 114.1C103.046 114.059 102.992 114.017 102.937 113.979C102.906 113.953 102.873 113.93 102.839 113.909L102.668 113.798L102.508 113.706C102.368 113.629 102.22 113.554 102.059 113.483C102.009 113.46 101.955 113.439 101.901 113.418C101.848 113.397 101.763 113.364 101.692 113.337H101.681L101.536 113.279C101.427 113.243 101.316 113.21 101.198 113.178L101.02 113.132L100.828 113.087L100.636 113.047C100.444 113.009 100.238 112.974 100.023 112.947L99.804 112.92L99.5793 112.897L99.3469 112.878L99.0166 112.859L98.6325 112.845C96.9383 112.845 95.2489 113.025 93.5927 113.381C92.4421 113.125 91.2636 113.017 90.0856 113.059H89.9185L89.7265 113.07H89.6035L89.3558 113.093C89.2732 113.093 89.1887 113.11 89.1061 113.122C89.0235 113.133 88.9371 113.143 88.8545 113.156L88.7277 113.178C88.6029 113.199 88.4761 113.222 88.3436 113.249C88.3013 113.256 88.2591 113.266 88.2168 113.277C88.0497 113.314 87.8826 113.358 87.7175 113.408C87.6349 113.431 87.5523 113.458 87.4697 113.487C87.4275 113.498 87.3871 113.514 87.3468 113.529L87.2239 113.573L87.1029 113.621L86.9588 113.679C86.8858 113.71 86.8148 113.742 86.7437 113.777C86.7034 113.794 86.663 113.813 86.6246 113.834C86.5862 113.856 86.5459 113.873 86.5094 113.894C86.0751 114.118 85.6738 114.401 85.3167 114.735L85.2187 114.829L85.1227 114.927C85.09 114.96 85.0593 114.995 85.0286 115.029C84.9034 115.166 84.7867 115.31 84.679 115.461C84.6483 115.502 84.6195 115.542 84.5907 115.584C84.4688 115.764 84.3584 115.951 84.2603 116.145C84.2353 116.191 84.2123 116.239 84.1893 116.285C84.0325 116.61 83.904 116.947 83.8051 117.294C83.7693 117.422 83.7366 117.55 83.7072 117.678C83.7072 117.678 79.6412 119.472 76.2685 120.77C75.3716 121.116 74.5265 121.429 73.8197 121.665C73.6142 121.734 73.4222 121.797 73.2435 121.857C72.856 121.997 72.4529 122.09 72.0431 122.134C71.85 122.137 71.6574 122.155 71.4669 122.187C69.917 122.439 67.2607 123.532 66.9707 124.628C66.9472 124.716 66.9407 124.807 66.9515 124.897C66.9515 124.897 66.9515 124.911 66.9515 124.918C67.1436 126.263 65.7991 126.071 65.7991 126.071C65.7991 126.071 65.319 129.624 64.6468 130.584C64.1608 131.276 63.8286 132.818 63.7863 133.982C63.7622 134.345 63.7906 134.709 63.8708 135.063C63.8708 135.073 63.8708 135.083 63.8708 135.09C63.9476 135.348 63.7633 136.051 63.4502 136.951C63.1103 137.94 62.6147 139.17 62.1384 140.33C61.4201 142.081 60.744 143.672 60.7018 144.021C60.6845 144.177 60.6345 144.455 60.5654 144.814C60.285 146.278 59.6627 149.065 59.3554 150.192C59.1268 151.033 58.7946 152.186 58.566 152.977C58.566 153 58.5526 153.023 58.5468 153.044L67.157 152.96V153.121H67.1839H67.1724Z" fill="#FFCB05"/>
<path opacity="0.1" d="M70.3146 130.482C70.3146 130.482 81.2623 136.148 85.1996 135.476L70.3146 130.482Z" fill="black"/>
<path opacity="0.1" d="M92.5941 128.178C92.5941 128.178 103.254 131.635 106.807 132.115C110.36 132.595 92.5941 128.178 92.5941 128.178Z" fill="black"/>
<path opacity="0.1" d="M104.417 117.053C98.8476 118.079 88.361 117.858 83.8282 117.703C85.4896 111.749 93.5909 113.773 93.5909 113.773C103.619 111.772 104.387 115.924 104.417 117.053Z" fill="black"/>
<path d="M104.417 116.669C98.8476 117.695 88.361 117.474 83.8282 117.318C85.4896 111.364 93.5909 113.389 93.5909 113.389C103.619 111.387 104.387 115.54 104.417 116.669Z" fill="#FFCB05"/>
<path d="M133.984 142.919C133.984 142.919 140.545 141.91 140.673 144.791C140.802 147.672 137.328 149.685 137.328 149.685L133.984 142.919Z" fill="#FBBEBE"/>
<path opacity="0.1" d="M101.016 110.101C100.734 110.227 100.445 110.338 100.152 110.435C98.0812 111.149 95.9935 111.87 93.8136 112.131C91.6336 112.392 89.3462 112.162 87.4447 111.074C87.2451 110.962 87.0527 110.837 86.8686 110.7C86.6573 106.475 86.1483 102.345 86.1483 102.345C86.1483 102.345 102.858 94.4705 100.937 100.713C100.173 103.234 100.432 106.776 101.016 110.101Z" fill="black"/>
<path d="M90.8808 83.8629C90.6067 83.9353 90.3194 83.9426 90.042 83.8842C89.7645 83.8259 89.5046 83.7035 89.2828 83.5268L89.6823 84.0818C89.4469 84.109 89.2084 84.0844 88.9834 84.0098C88.7585 83.9351 88.5526 83.8122 88.3801 83.6497C88.3439 84.1466 88.3645 84.646 88.4416 85.1382C87.7806 85.1701 87.1298 84.9658 86.6055 84.562C86.5952 84.7353 86.6383 84.9075 86.729 85.0555C86.8197 85.2035 86.9535 85.3202 87.1125 85.3898C86.4485 85.3105 85.7783 85.4755 85.227 85.854C84.6757 86.2325 84.2809 86.7986 84.1163 87.4468L85.1189 87.539C84.331 87.7073 83.6238 88.1387 83.1138 88.7624C82.8065 89.1466 82.5721 89.6382 82.7066 90.1069C82.841 90.5755 83.4902 90.8751 83.8436 90.5409C83.3409 91.1409 82.9755 91.8437 82.7731 92.5998C82.5708 93.3559 82.5362 94.1472 82.672 94.9181C82.7632 95.2466 82.7931 95.589 82.7604 95.9283C82.697 96.2452 82.4972 96.5199 82.3974 96.8291C82.2053 97.3899 82.3878 97.9988 82.5587 98.5577L83.4595 101.519C83.786 102.589 84.1106 103.661 84.5369 104.696C84.8389 105.351 85.0956 106.025 85.3052 106.715C85.5472 107.644 85.5568 108.662 86.0735 109.475C86.4275 109.986 86.9009 110.403 87.4525 110.69C89.352 111.777 91.6472 112.008 93.8213 111.747C95.9955 111.486 98.0813 110.765 100.15 110.051C100.609 109.912 101.05 109.719 101.464 109.475C102.894 108.537 103.213 106.621 103.48 104.932C103.778 103.05 104.175 101.172 104.88 99.4009C105.299 98.3464 105.841 97.2766 105.748 96.1473C105.631 94.6473 104.444 93.4315 104.15 91.9565C104.052 91.4634 104.057 90.9553 104.164 90.4641C104.255 90.1715 104.306 89.8678 104.316 89.5614C104.283 88.943 103.776 88.4667 103.3 88.0691C102.266 87.2061 101.2 86.3904 100.1 85.6222C100.044 85.2381 100.567 85.0729 100.803 84.7694C101.137 84.3411 100.791 83.6612 100.284 83.4615C99.7772 83.2617 99.2087 83.3923 98.6805 83.5248C98.7149 83.2545 98.6612 82.9803 98.5272 82.7429C98.3933 82.5056 98.1863 82.3178 97.9371 82.2076C97.6878 82.0973 97.4097 82.0704 97.1439 82.1309C96.8782 82.1914 96.6391 82.3361 96.4622 82.5434C96.3219 82.2218 96.0978 81.9437 95.8134 81.7383C95.5289 81.5329 95.1944 81.4076 94.845 81.3757C93.5716 81.2758 93.5467 82.2495 92.7323 82.7854C91.918 83.3213 91.2457 82.6145 90.6196 82.0997C90.5046 82.3907 90.4681 82.7068 90.514 83.0163C90.5598 83.3258 90.6864 83.6178 90.8808 83.8629Z" fill="#3F3D56"/>
<path d="M138.849 148.681C138.849 148.681 138.678 149.088 138.363 149.677C137.886 150.584 137.306 151.433 136.634 152.207L136.582 152.262H136.271L125.182 152.364H124.916L124.884 152.326L122.733 149.773L121.922 148.811L121.89 148.771L121.82 148.69L121.782 148.644L121.732 148.584L120.155 146.714L120.731 144.313L121.713 140.268L121.738 140.17L121.93 139.402L122.066 138.826L122.523 136.947L124.091 130.484L126.876 131.925L129.812 137.111L131.389 139.896H132.253C132.417 139.896 132.791 140.21 133.168 140.573C133.302 140.702 133.436 140.839 133.552 140.958C133.894 141.311 134.164 141.614 134.164 141.614C134.164 141.614 135.564 141.645 135.941 142.748C135.96 142.801 135.976 142.856 135.989 142.911C136.114 143.344 136.277 143.766 136.475 144.171C136.723 144.711 137.034 145.323 137.349 145.936C137.935 147.059 138.53 148.129 138.749 148.517L138.776 148.565L138.849 148.681Z" fill="#FFCB05"/>
<path opacity="0.1" d="M122.351 140.009L122.331 140.284V140.303L122.299 140.745L122.043 144.3L121.734 148.583L121.646 149.789L121.454 152.37V152.403L100.903 152.595L67.1782 152.96V153.121H67.1513V152.96V152.906L67.2377 150.148L67.4029 144.759L67.545 140.189L67.5585 139.734C67.5669 139.46 67.6312 139.189 67.7475 138.94C67.8638 138.691 68.0297 138.469 68.2349 138.286C68.4402 138.103 68.6806 137.964 68.9414 137.877C69.2022 137.79 69.478 137.758 69.7519 137.781C70.6584 137.858 71.8357 137.952 73.2436 138.052L73.8198 138.094C81.9498 138.659 96.975 139.389 112.137 138.478C112.455 138.461 112.776 138.442 113.097 138.419C115.448 138.271 117.797 138.081 120.123 137.842C120.417 137.812 120.714 137.846 120.993 137.942C121.273 138.039 121.528 138.195 121.74 138.401C121.952 138.606 122.117 138.856 122.223 139.132C122.328 139.409 122.372 139.704 122.351 139.999V140.009Z" fill="black"/>
<path d="M67.1724 153.121V152.96L100.903 152.593L121.454 152.401H121.511V152.368L121.703 149.787L121.786 148.635L122.101 144.292L122.349 140.854V140.77C122.36 140.611 122.353 140.452 122.327 140.295C122.328 140.289 122.328 140.282 122.327 140.276C122.275 139.952 122.143 139.646 121.943 139.385C121.732 139.114 121.455 138.901 121.138 138.766C120.822 138.632 120.476 138.58 120.134 138.616C117.808 138.855 115.459 139.045 113.108 139.193C112.788 139.216 112.467 139.235 112.148 139.252C96.9865 140.153 81.9613 139.423 73.8313 138.868L73.2551 138.826C71.8473 138.726 70.6699 138.634 69.7634 138.555C69.2647 138.513 68.768 138.657 68.3694 138.96C67.9707 139.262 67.6982 139.702 67.6046 140.193C67.5852 140.297 67.5736 140.403 67.57 140.508L67.4394 144.764L67.2608 150.156L67.1763 152.914V152.968V153.129L67.1724 153.121Z" fill="#3F3D56"/>
<path opacity="0.1" d="M122.408 141.355L122.172 144.3L121.82 148.688L121.732 149.787L121.54 152.247L121.528 152.37V152.403L121.5 152.687L121.521 152.403H121.465L100.914 152.595L67.1782 152.96V152.906L67.2723 150.148L67.4643 144.759L67.5873 141.177C67.5933 140.973 67.6502 140.774 67.7529 140.598C67.8556 140.422 68.0007 140.274 68.175 140.168C68.3925 140.035 68.6468 139.974 68.901 139.995C69.3043 140.028 69.7998 140.066 70.3779 140.109C71.3171 140.178 72.4753 140.259 73.8236 140.343C76.3204 140.501 79.453 140.67 83.0426 140.808C93.03 141.192 106.513 141.321 119.32 140.199C119.896 140.149 120.491 140.093 121.073 140.038C121.304 140.015 121.536 140.059 121.742 140.164C121.8 140.193 121.855 140.228 121.907 140.268C122.074 140.389 122.206 140.552 122.291 140.741C122.311 140.778 122.327 140.817 122.339 140.858C122.397 141.017 122.42 141.186 122.408 141.355Z" fill="black"/>
<path opacity="0.1" d="M57.2543 143.985V144.597C57.2544 144.82 57.1913 145.038 57.0723 145.227C56.9533 145.415 56.7833 145.566 56.5821 145.661L48.8803 145.809C48.6755 145.715 48.502 145.565 48.3805 145.375C48.2589 145.185 48.1944 144.965 48.1946 144.739V144.163L57.2543 143.985Z" fill="black"/>
<path d="M57.3503 146.022L47.315 146.214V144.549L57.3503 144.357V146.022Z" fill="#3F3D56"/>
<path opacity="0.1" d="M57.3503 146.022L47.315 146.214V144.549L57.3503 144.357V146.022Z" fill="black"/>
<path d="M57.7344 146.022L47.6991 146.214V144.549L57.7344 144.357V146.022Z" fill="#3F3D56"/>
<g opacity="0.1">
<path opacity="0.1" d="M90.9595 83.2328C90.7719 82.989 90.6472 82.7027 90.5966 82.3993C90.5503 82.6959 90.578 82.9994 90.6772 83.2828C90.7726 83.274 90.867 83.2573 90.9595 83.2328Z" fill="black"/>
<path opacity="0.1" d="M88.5204 84.5081C88.4842 84.2727 88.4605 84.0355 88.4493 83.7975C88.4493 84.0337 88.4493 84.2719 88.4493 84.51L88.5204 84.5081Z" fill="black"/>
<path opacity="0.1" d="M104.174 90.9174C104.184 90.7463 104.207 90.5762 104.243 90.4084C104.334 90.1163 104.385 89.8134 104.396 89.5077C104.392 89.439 104.382 89.3709 104.366 89.3041C104.333 89.4808 104.281 89.6575 104.243 89.8323C104.166 90.1885 104.143 90.5543 104.174 90.9174Z" fill="black"/>
<path opacity="0.1" d="M100.179 84.9825L100.388 85.1343C100.564 85.0066 100.73 84.864 100.882 84.7079C100.954 84.6079 100.999 84.4908 101.011 84.3681C101.024 84.2454 101.005 84.1215 100.955 84.0088C100.935 84.0526 100.911 84.0939 100.882 84.1317C100.645 84.4352 100.123 84.6023 100.179 84.9825Z" fill="black"/>
<path opacity="0.1" d="M84.3968 86.8302C84.3267 86.9703 84.2707 87.117 84.2297 87.2681C84.5301 87.1004 84.8537 86.9781 85.19 86.9051L84.3968 86.8302Z" fill="black"/>
<path opacity="0.1" d="M87.0453 84.7406C86.9191 84.6711 86.7984 84.5922 86.6842 84.5044C86.6794 84.5804 86.6852 84.6567 86.7015 84.731C86.8162 84.7256 86.9311 84.7288 87.0453 84.7406Z" fill="black"/>
<path opacity="0.1" d="M105.823 96.057C105.745 96.9885 105.311 97.8855 104.959 98.769C104.254 100.54 103.857 102.418 103.559 104.302C103.292 105.991 102.983 107.907 101.542 108.843C101.131 109.089 100.69 109.282 100.23 109.419C98.16 110.135 96.0723 110.854 93.8924 111.115C91.7125 111.376 89.425 111.147 87.5236 110.06C86.9722 109.773 86.499 109.356 86.1445 108.845C85.6317 108.032 85.6221 107.014 85.3763 106.085C85.1667 105.394 84.91 104.719 84.608 104.064C84.1836 103.031 83.8571 101.951 83.5325 100.889C83.2316 99.9021 82.9313 98.9143 82.6317 97.9258C82.533 97.6284 82.4598 97.3232 82.4127 97.0135C82.3378 97.5052 82.4838 98.0199 82.6317 98.502C82.9313 99.4918 83.2316 100.48 83.5325 101.466C83.8571 102.535 84.1836 103.607 84.608 104.64C84.91 105.296 85.1667 105.971 85.3763 106.661C85.6183 107.59 85.6279 108.608 86.1445 109.421C86.499 109.932 86.9722 110.349 87.5236 110.637C89.425 111.724 91.7182 111.952 93.8924 111.691C96.0666 111.43 98.1524 110.711 100.23 109.995C100.69 109.858 101.131 109.665 101.542 109.419C102.973 108.484 103.292 106.567 103.559 104.879C103.857 102.994 104.254 101.116 104.959 99.3451C105.378 98.2926 105.919 97.2228 105.827 96.0916C105.827 96.0801 105.823 96.0685 105.823 96.057Z" fill="black"/>
<path opacity="0.1" d="M82.8353 95.3136C82.8353 95.3136 82.8353 95.3002 82.8353 95.2925C82.8699 94.9538 82.8399 94.6116 82.7469 94.2841C82.7086 94.0734 82.6836 93.8604 82.672 93.6465C82.6499 94.0526 82.675 94.46 82.7469 94.8603C82.7777 95.0101 82.8122 95.1619 82.8353 95.3136Z" fill="black"/>
<path opacity="0.1" d="M83.4211 90.6158C83.5688 90.3677 83.7364 90.1319 83.9223 89.9109C83.5709 90.247 82.9217 89.9474 82.7853 89.4807C82.7351 89.6695 82.7351 89.8681 82.7853 90.0569C82.8326 90.1978 82.9163 90.3238 83.028 90.4219C83.1396 90.5201 83.2752 90.587 83.4211 90.6158Z" fill="black"/>
</g>
<path opacity="0.1" d="M131.391 139.894C131.391 139.894 132 142.102 131.391 144.023C130.782 145.944 131.391 139.894 131.391 139.894Z" fill="black"/>
<path opacity="0.1" d="M133.984 142.146C133.984 142.146 134.239 144.951 133.663 145.448C133.087 145.946 133.984 142.146 133.984 142.146Z" fill="black"/>
<path d="M38.2188 112.851L57.7344 112.659" stroke="#FFCB05" stroke-width="2" stroke-miterlimit="10"/>
<path d="M38.2188 115.246L57.7344 115.056" stroke="#FFCB05" stroke-width="2" stroke-miterlimit="10"/>
<path d="M38.2188 117.643L57.7344 117.451" stroke="#FFCB05" stroke-width="2" stroke-miterlimit="10"/>
</g>
<defs>
<clipPath id="clip0">
<rect width="200" height="106.436" fill="white" transform="translate(0 47)"/>
</clipPath>
</defs>
</svg>
