<svg width="200" height="200" viewBox="0 0 200 200" fill="none" xmlns="http://www.w3.org/2000/svg">
<g clip-path="url(#clip0)">
<path d="M200 56.3378H63.9617V144.721H200V56.3378Z" fill="#3F3D56"/>
<path d="M70.2278 55.8431H59.8394V145.051H70.2278V55.8431Z" fill="#D0CDE1"/>
<path d="M117.388 80.4125H90.1801V80.7423H117.388V80.4125Z" fill="#D0CDE1"/>
<path d="M179.388 128.232H141.957V93.2742H179.388V128.232ZM142.287 127.902H179.058V93.604H142.287V127.902Z" fill="#D0CDE1"/>
<path d="M142.234 93.3185L142.009 93.5597L179.111 128.188L179.336 127.946L142.234 93.3185Z" fill="#D0CDE1"/>
<path d="M179.112 93.3194L142.009 127.946L142.234 128.187L179.337 93.5606L179.112 93.3194Z" fill="#D0CDE1"/>
<path d="M128.601 104.652H90.1801V104.982H128.601V104.652Z" fill="#D0CDE1"/>
<path d="M128.601 110.588H90.1801V110.918H128.601V110.588Z" fill="#D0CDE1"/>
<path d="M128.601 116.524H90.1801V116.854H128.601V116.524Z" fill="#D0CDE1"/>
<path d="M122.182 51.9679C124.106 51.9679 125.666 50.4081 125.666 48.4839C125.666 46.5598 124.106 45 122.182 45C120.258 45 118.698 46.5598 118.698 48.4839C118.698 50.4081 120.258 51.9679 122.182 51.9679Z" fill="#3F3D56"/>
<path d="M131.981 51.9679C133.905 51.9679 135.465 50.4081 135.465 48.4839C135.465 46.5598 133.905 45 131.981 45C130.057 45 128.497 46.5598 128.497 48.4839C128.497 50.4081 130.057 51.9679 131.981 51.9679Z" fill="#FFCB05"/>
<path d="M141.779 51.9679C143.704 51.9679 145.263 50.4081 145.263 48.4839C145.263 46.5598 143.704 45 141.779 45C139.855 45 138.296 46.5598 138.296 48.4839C138.296 50.4081 139.855 51.9679 141.779 51.9679Z" fill="#D0CDE1"/>
<path d="M117.19 153.808H0V154.224H117.19V153.808Z" fill="#3F3D56"/>
<path d="M34.5873 85.5608C35.8534 85.5608 36.8798 84.5344 36.8798 83.2683C36.8798 82.0022 35.8534 80.9758 34.5873 80.9758C33.3211 80.9758 32.2947 82.0022 32.2947 83.2683C32.2947 84.5344 33.3211 85.5608 34.5873 85.5608Z" fill="#2F2E41"/>
<path d="M39.4281 82.9287C43.0614 82.9287 46.0068 79.6974 46.0068 75.7115C46.0068 71.7256 43.0614 68.4943 39.4281 68.4943C35.7949 68.4943 32.8495 71.7256 32.8495 75.7115C32.8495 79.6974 35.7949 82.9287 39.4281 82.9287Z" fill="#2F2E41"/>
<path d="M34.7995 106.745L34.6296 107.594C34.6296 107.594 34.1202 108.104 34.3749 108.359C34.6296 108.613 34.5447 109.802 34.5447 109.802L34.0353 113.113L31.0635 126.529C31.0635 126.529 27.1577 129.076 24.1011 134.086C21.0444 139.095 20.9595 140.369 20.9595 140.369L24.3558 141.812L32.8466 131.538C32.8466 131.538 35.224 130.095 36.0731 128.821C36.9221 127.548 42.1864 114.387 42.1864 114.387L45.1582 128.142C45.1582 128.142 44.9884 133.152 45.7526 136.378C46.2224 138.414 46.5066 140.489 46.6016 142.576L50.5923 142.152C50.5923 142.152 50.3376 130.095 49.913 128.821C49.913 128.821 51.6961 114.132 48.13 108.274L46.0073 99.698L42.4412 99.5281L34.7995 106.745Z" fill="#2F2E41"/>
<path d="M25.035 141.473L20.7896 138.841L18.8367 142.576C18.8367 142.576 14.5064 145.209 15.4404 147.161C16.3744 149.114 17.2235 149.624 17.2235 149.624L17.8178 149.369L18.9217 151.407C18.9217 151.407 21.8085 155.567 26.4785 153.445C26.6976 153.15 26.816 152.793 26.816 152.426C26.816 152.059 26.6976 151.701 26.4785 151.407C25.7143 150.303 23.7614 147.926 23.7614 147.926L25.035 141.473Z" fill="#2F2E41"/>
<path d="M51.0169 141.558L46.347 141.897L46.8564 145.718C46.8564 145.718 44.6488 151.152 46.1772 151.577C47.2645 151.858 48.3714 152.056 49.4886 152.171L49.6584 151.577C49.6584 151.577 56.1963 155.143 58.5737 152.511C58.5737 152.511 59.0832 150.643 57.6397 150.048C56.1963 149.454 53.3943 148.18 53.0547 147.501C52.7151 146.822 51.0169 141.558 51.0169 141.558Z" fill="#2F2E41"/>
<path d="M39.6392 80.9333C41.8901 80.9333 43.7148 79.1086 43.7148 76.8577C43.7148 74.6068 41.8901 72.7821 39.6392 72.7821C37.3884 72.7821 35.5637 74.6068 35.5637 76.8577C35.5637 79.1086 37.3884 80.9333 39.6392 80.9333Z" fill="#FFB8B8"/>
<path d="M36.5826 79.3201C36.5826 79.3201 37.0921 82.6315 34.5448 83.9051C31.9976 85.1787 41.2525 86.7071 41.2525 86.7071C41.2525 86.7071 39.8091 84.4995 40.0638 83.7353C40.3186 82.9711 41.5922 79.9144 41.5922 79.9144L36.5826 79.3201Z" fill="#FFB8B8"/>
<path d="M35.9033 83.99C35.9033 83.99 33.4409 82.5466 32.5919 83.2258C31.7428 83.9051 31.488 104.708 34.5447 105.557L34.6296 106.66C34.6296 106.66 33.5258 107.17 34.5447 107.17C35.5636 107.17 40.3185 103.689 40.4883 102.415C40.6581 101.141 45.5828 100.887 45.5828 100.887C45.5828 100.887 46.8564 106.321 47.2809 106.151C47.7055 105.981 47.7055 102.33 47.5357 101.821C47.3658 101.311 49.4885 99.698 48.8942 98.6791C48.2998 97.6602 46.6866 94.1789 46.6866 94.1789C46.6866 94.1789 46.8564 91.9713 44.5639 89.9335C44.5639 89.9335 43.8939 86.1408 40.875 86.0843C37.8561 86.0278 35.9033 83.99 35.9033 83.99Z" fill="#575A89"/>
<path d="M35.5814 71.8979V76.5565H36.6602L38.0331 75.0854L37.8493 76.5565H42.6181L42.3239 75.0854L42.9123 76.5565H43.6723V71.8979H35.5814Z" fill="#2F2E41"/>
<path d="M45.5579 113.64H10.3773V145.769H45.5579V113.64Z" fill="#FFCB05"/>
<path d="M31.2089 130.37C28.2431 135.212 29.2635 141.235 29.2635 141.235C29.2635 141.235 35.0924 139.407 38.0582 134.565C41.0239 129.723 40.0036 123.701 40.0036 123.701C40.0036 123.701 34.1747 125.528 31.2089 130.37Z" fill="#3F3D56"/>
<path d="M29.1425 141.275L28.9739 141.248C28.9129 141.238 22.8433 140.232 19.2082 135.883C15.5731 131.534 15.6606 125.382 15.6618 125.321L15.6654 125.15L15.834 125.177C15.895 125.186 21.9646 126.192 25.5997 130.541C29.2348 134.89 29.1473 141.042 29.1461 141.104L29.1425 141.275Z" fill="#D0CDE1"/>
<path d="M29.4486 125.545C31.2584 125.545 32.7255 124.078 32.7255 122.268C32.7255 120.459 31.2584 118.991 29.4486 118.991C27.6388 118.991 26.1716 120.459 26.1716 122.268C26.1716 124.078 27.6388 125.545 29.4486 125.545Z" fill="#3F3D56"/>
<path d="M29.5352 104.708L30.5541 112.264C30.5541 112.264 29.9597 118.887 32.2522 118.972C34.5447 119.057 33.1013 112.179 33.1013 112.179L32.8466 105.302C32.8466 105.302 30.9786 102.245 29.5352 104.708Z" fill="#FFB8B8"/>
<path d="M33.3561 83.7353C33.3561 83.7353 32.7617 82.122 31.4881 83.3956C30.2145 84.6692 29.1107 87.9806 29.1107 90.0184C29.1107 92.0562 29.3654 103.858 29.3654 103.858C29.3654 103.858 28.0069 104.368 28.9409 105.132C29.8749 105.896 31.1485 104.707 31.1485 104.707C31.1485 104.707 32.8466 105.896 33.0164 105.896C33.1863 105.896 33.1013 104.453 33.1013 104.453C33.1013 104.453 33.9504 102.245 33.7806 100.547C33.6108 98.8488 33.3561 83.7353 33.3561 83.7353Z" fill="#575A89"/>
<path d="M179.388 75.7955H90.0151V69.6943H179.388V75.7955ZM90.3449 75.4657H179.058V70.0241H90.3449V75.4657Z" fill="#D0CDE1"/>
<path d="M19.7109 122.435H10.9158C11.5947 119.703 11.5128 116.747 10.9158 113.64H19.7109C18.4798 116.572 18.4798 119.503 19.7109 122.435Z" fill="#D0CDE1"/>
<path d="M17.5788 115.506H12.2484V116.572H17.5788V115.506Z" fill="#3F3D56"/>
<path d="M17.5788 117.638H12.2484V118.704H17.5788V117.638Z" fill="#3F3D56"/>
<path d="M17.5788 119.77H12.2484V120.836H17.5788V119.77Z" fill="#3F3D56"/>
<path d="M98.8674 87.9724H90.0723C90.7512 85.2401 90.6693 82.2843 90.0723 79.1772H98.8674C97.6363 82.109 97.6363 85.0407 98.8674 87.9724Z" fill="#D0CDE1"/>
<path d="M96.7353 81.0429H91.4048V82.109H96.7353V81.0429Z" fill="#3F3D56"/>
<path d="M96.7353 83.175H91.4048V84.2411H96.7353V83.175Z" fill="#3F3D56"/>
<path d="M96.7353 85.3073H91.4048V86.3733H96.7353V85.3073Z" fill="#3F3D56"/>
<path d="M165.1 101.255H156.305C156.984 98.5226 156.902 95.5669 156.305 92.4598H165.1C163.869 95.3915 163.869 98.3232 165.1 101.255Z" fill="#D0CDE1"/>
<path d="M162.968 94.3254H157.638V95.3915H162.968V94.3254Z" fill="#3F3D56"/>
<path d="M162.968 96.4576H157.638V97.5237H162.968V96.4576Z" fill="#3F3D56"/>
<path d="M162.968 98.5897H157.638V99.6558H162.968V98.5897Z" fill="#3F3D56"/>
<path d="M176.408 82.4081H167.613C168.292 79.6758 168.21 76.7201 167.613 73.613H176.408C175.177 76.5447 175.177 79.4764 176.408 82.4081Z" fill="#D0CDE1"/>
<path d="M174.276 75.4786H168.946V76.5447H174.276V75.4786Z" fill="#3F3D56"/>
<path d="M174.276 77.6108H168.946V78.6769H174.276V77.6108Z" fill="#3F3D56"/>
<path d="M174.276 79.7429H168.946V80.809H174.276V79.7429Z" fill="#3F3D56"/>
<path d="M67.367 92.37H62.7002V87.7032H67.367V92.37ZM63.0592 92.011H67.008V88.0622H63.0592V92.011Z" fill="#3F3D56"/>
<path d="M67.4561 102.781H62.7892V98.1138H67.4561V102.781ZM63.1482 102.422H67.0971V98.4728H63.1482V102.422Z" fill="#3F3D56"/>
<path d="M67.5452 113.191H62.8784V108.524H67.5452V113.191ZM63.2373 112.832H67.1862V108.883H63.2373V112.832Z" fill="#3F3D56"/>
<path d="M62.9687 110.05C63.7618 110.05 64.4047 109.407 64.4047 108.614C64.4047 107.821 63.7618 107.178 62.9687 107.178C62.1757 107.178 61.5328 107.821 61.5328 108.614C61.5328 109.407 62.1757 110.05 62.9687 110.05Z" fill="#FFCB05"/>
</g>
<defs>
<clipPath id="clip0">
<rect width="200" height="109.224" fill="white" transform="translate(0 45)"/>
</clipPath>
</defs>
</svg>
