<svg width="200" height="200" viewBox="0 0 200 200" fill="none" xmlns="http://www.w3.org/2000/svg">
<g clip-path="url(#clip0)">
<path d="M100.211 156.218C86.6596 156.218 73.5277 151.519 63.0525 142.922C52.5773 134.325 45.4071 122.362 42.7634 109.072C40.1197 95.7809 42.1662 81.9847 48.5542 70.0337C54.9422 58.0826 65.2764 48.7163 77.7961 43.5305C90.3157 38.3447 104.246 37.6604 117.214 41.5941C130.181 45.5278 141.384 53.8361 148.912 65.1035C156.441 76.3709 159.83 89.9001 158.502 103.386C157.174 116.872 151.21 129.48 141.628 139.062C136.202 144.518 129.747 148.844 122.638 151.789C115.529 154.733 107.906 156.239 100.211 156.218ZM100.211 39.522C68.1619 39.522 42.0881 65.5958 42.0881 97.6448C42.0881 129.694 68.1619 155.767 100.211 155.767C132.26 155.767 158.333 129.694 158.333 97.6448C158.333 65.5958 132.26 39.522 100.211 39.522Z" fill="#CCCCCC"/>
<path d="M121.959 165.002V105.993H78.0406V165.002H121.959Z" fill="#2F2E41"/>
<path d="M129.504 104.191H70.4955V127.614H129.504V104.191Z" fill="#3F3D56"/>
<path d="M129.504 130.317H70.4955V153.74H129.504V130.317Z" fill="#3F3D56"/>
<path d="M129.504 156.443H70.4955V179.867H129.504V156.443Z" fill="#3F3D56"/>
<path d="M129.504 114.122H70.4955V117.726H129.504V114.122Z" fill="#FFCB05"/>
<path d="M129.504 140.249H70.4955V143.852H129.504V140.249Z" fill="#FFCB05"/>
<path d="M129.504 166.375H70.4955V169.978H129.504V166.375Z" fill="#FFCB05"/>
<path d="M118.018 108.921C118.764 108.921 119.369 108.316 119.369 107.569C119.369 106.823 118.764 106.218 118.018 106.218C117.272 106.218 116.667 106.823 116.667 107.569C116.667 108.316 117.272 108.921 118.018 108.921Z" fill="#FFCB05"/>
<path d="M122.748 108.921C123.494 108.921 124.099 108.316 124.099 107.569C124.099 106.823 123.494 106.218 122.748 106.218C122.001 106.218 121.396 106.823 121.396 107.569C121.396 108.316 122.001 108.921 122.748 108.921Z" fill="#FFCB05"/>
<path d="M127.477 108.921C128.224 108.921 128.829 108.316 128.829 107.569C128.829 106.823 128.224 106.218 127.477 106.218C126.731 106.218 126.126 106.823 126.126 107.569C126.126 108.316 126.731 108.921 127.477 108.921Z" fill="#FFCB05"/>
<path d="M118.018 134.596C118.764 134.596 119.369 133.991 119.369 133.245C119.369 132.499 118.764 131.894 118.018 131.894C117.272 131.894 116.667 132.499 116.667 133.245C116.667 133.991 117.272 134.596 118.018 134.596Z" fill="#FFCB05"/>
<path d="M122.748 134.596C123.494 134.596 124.099 133.991 124.099 133.245C124.099 132.499 123.494 131.894 122.748 131.894C122.001 131.894 121.396 132.499 121.396 133.245C121.396 133.991 122.001 134.596 122.748 134.596Z" fill="#FFCB05"/>
<path d="M127.477 134.596C128.224 134.596 128.829 133.991 128.829 133.245C128.829 132.499 128.224 131.894 127.477 131.894C126.731 131.894 126.126 132.499 126.126 133.245C126.126 133.991 126.731 134.596 127.477 134.596Z" fill="#FFCB05"/>
<path d="M118.018 160.272C118.764 160.272 119.369 159.667 119.369 158.921C119.369 158.174 118.764 157.569 118.018 157.569C117.272 157.569 116.667 158.174 116.667 158.921C116.667 159.667 117.272 160.272 118.018 160.272Z" fill="#FFCB05"/>
<path d="M122.748 160.272C123.494 160.272 124.099 159.667 124.099 158.921C124.099 158.174 123.494 157.569 122.748 157.569C122.001 157.569 121.396 158.174 121.396 158.921C121.396 159.667 122.001 160.272 122.748 160.272Z" fill="#FFCB05"/>
<path d="M127.477 160.272C128.224 160.272 128.829 159.667 128.829 158.921C128.829 158.174 128.224 157.569 127.477 157.569C126.731 157.569 126.126 158.174 126.126 158.921C126.126 159.667 126.731 160.272 127.477 160.272Z" fill="#FFCB05"/>
<path d="M200 179.641H0V180.092H200V179.641Z" fill="#3F3D56"/>
<path d="M54.4771 81.0505V122.941C54.477 123.817 54.1288 124.657 53.5091 125.277C52.8894 125.897 52.049 126.245 51.1726 126.245H34.8937C34.0171 126.245 33.1763 125.897 32.5564 125.277C31.9364 124.658 31.588 123.817 31.5877 122.941V81.0505C31.588 80.174 31.9364 79.3334 32.5564 78.7136C33.1763 78.0939 34.0171 77.7459 34.8937 77.746H36.8684C36.7714 77.9844 36.7345 78.2431 36.7609 78.4991C36.7873 78.7552 36.8762 79.0008 37.0198 79.2145C37.1634 79.4281 37.3572 79.6033 37.5843 79.7245C37.8114 79.8456 38.0648 79.9092 38.3222 79.9095H47.6034C47.8608 79.9092 48.1142 79.8456 48.3413 79.7245C48.5684 79.6033 48.7623 79.4281 48.9059 79.2145C49.0494 79.0008 49.1383 78.7552 49.1647 78.4991C49.1911 78.243 49.1542 77.9844 49.0573 77.746H51.1726C52.049 77.7462 52.8894 78.0944 53.5091 78.7141C54.1288 79.3337 54.477 80.1742 54.4771 81.0505Z" fill="#E6E6E6"/>
<path d="M53.3929 85.7455H32.6721V114.574H53.3929V85.7455Z" fill="white"/>
<path d="M46.8256 105.569H38.5554V106.042H46.8256V105.569Z" fill="#E6E6E6"/>
<path d="M51.3437 107.304H38.547V107.777H51.3437V107.304Z" fill="#FFCB05"/>
<path d="M48.5894 108.939H38.547V109.412H48.5894V108.939Z" fill="#E6E6E6"/>
<path d="M44.4543 110.574H38.547V111.047H44.4543V110.574Z" fill="#E6E6E6"/>
<path d="M47.4079 112.209H38.547V112.681H47.4079V112.209Z" fill="#E6E6E6"/>
<path d="M35.75 105.433H34.8048V106.379H35.75V105.433Z" fill="#E6E6E6"/>
<path d="M35.75 107.068H34.8048V108.013H35.75V107.068Z" fill="#FFCB05"/>
<path d="M35.75 108.703H34.8048V109.648H35.75V108.703Z" fill="#E6E6E6"/>
<path d="M35.75 110.338H34.8048V111.283H35.75V110.338Z" fill="#E6E6E6"/>
<path d="M35.75 111.973H34.8048V112.918H35.75V111.973Z" fill="#E6E6E6"/>
<path d="M47.2406 89.3491H38.9078V97.6819H47.2406V89.3491Z" fill="#E6E6E6"/>
<path d="M127.701 20.0314H72.3221V55.4987H127.701V20.0314Z" fill="#E6E6E6"/>
<path d="M122.412 29.954H76.4969V47.3042H122.412V29.954Z" fill="white"/>
<path d="M95.882 32.9598H84.8624V33.5895H95.882V32.9598Z" fill="#E6E6E6"/>
<path d="M101.902 35.2719H84.8514V35.9015H101.902V35.2719Z" fill="#FFCB05"/>
<path d="M98.2323 37.4502H84.8514V38.0799H98.2323V37.4502Z" fill="#E6E6E6"/>
<path d="M92.7225 39.6284H84.8514V40.2581H92.7225V39.6284Z" fill="#E6E6E6"/>
<path d="M96.6581 41.8069H84.8514V42.4366H96.6581V41.8069Z" fill="#E6E6E6"/>
<path d="M81.1245 32.7788H79.8651V34.0382H81.1245V32.7788Z" fill="#E6E6E6"/>
<path d="M81.1245 34.957H79.8651V36.2164H81.1245V34.957Z" fill="#FFCB05"/>
<path d="M81.1245 37.1354H79.8651V38.3948H81.1245V37.1354Z" fill="#E6E6E6"/>
<path d="M81.1245 39.3136H79.8651V40.573H81.1245V39.3136Z" fill="#E6E6E6"/>
<path d="M81.1245 41.4919H79.8651V42.7513H81.1245V41.4919Z" fill="#E6E6E6"/>
<path d="M120.159 32.1278H108.884V43.4023H120.159V32.1278Z" fill="#E6E6E6"/>
<path d="M127.678 20H72.2985V22.3527H127.678V20Z" fill="#FFCB05"/>
<path d="M74.0469 21.6751C74.3077 21.6751 74.5192 21.4637 74.5192 21.2029C74.5192 20.942 74.3077 20.7306 74.0469 20.7306C73.7861 20.7306 73.5746 20.942 73.5746 21.2029C73.5746 21.4637 73.7861 21.6751 74.0469 21.6751Z" fill="white"/>
<path d="M75.7021 21.6751C75.9629 21.6751 76.1743 21.4637 76.1743 21.2029C76.1743 20.942 75.9629 20.7306 75.7021 20.7306C75.4412 20.7306 75.2298 20.942 75.2298 21.2029C75.2298 21.4637 75.4412 21.6751 75.7021 21.6751Z" fill="white"/>
<path d="M77.3572 21.6751C77.618 21.6751 77.8295 21.4637 77.8295 21.2029C77.8295 20.942 77.618 20.7306 77.3572 20.7306C77.0964 20.7306 76.8849 20.942 76.8849 21.2029C76.8849 21.4637 77.0964 21.6751 77.3572 21.6751Z" fill="white"/>
<path d="M164.785 86.3981H151.272V93.3801H164.785V86.3981Z" fill="#E6E6E6"/>
<path d="M164.785 111.398H151.272V118.38H164.785V111.398Z" fill="#E6E6E6"/>
<path d="M158.029 113.65C164.248 113.65 169.29 108.608 169.29 102.389C169.29 96.1696 164.248 91.1278 158.029 91.1278C151.809 91.1278 146.768 96.1696 146.768 102.389C146.768 108.608 151.809 113.65 158.029 113.65Z" fill="#E6E6E6"/>
<path d="M158.029 111.173C162.88 111.173 166.813 107.24 166.813 102.389C166.813 97.538 162.88 93.6053 158.029 93.6053C153.178 93.6053 149.245 97.538 149.245 102.389C149.245 107.24 153.178 111.173 158.029 111.173Z" fill="white"/>
<path d="M161.965 99.9823H155.152V100.372H161.965V99.9823Z" fill="#E2E2E2"/>
<path d="M165.686 101.412H155.146V101.801H165.686V101.412Z" fill="#FFCB05"/>
<path d="M163.418 102.758H155.146V103.148H163.418V102.758Z" fill="#E2E2E2"/>
<path d="M160.011 104.105H155.146V104.494H160.011V104.105Z" fill="#E2E2E2"/>
<path d="M162.444 105.452H155.146V105.841H162.444V105.452Z" fill="#E2E2E2"/>
<path d="M152.842 99.8704H152.063V100.649H152.842V99.8704Z" fill="#E2E2E2"/>
<path d="M152.842 101.217H152.063V101.996H152.842V101.217Z" fill="#FFCB05"/>
<path d="M152.842 102.564H152.063V103.342H152.842V102.564Z" fill="#E2E2E2"/>
<path d="M152.842 103.91H152.063V104.689H152.842V103.91Z" fill="#E2E2E2"/>
<path d="M152.842 105.257H152.063V106.036H152.842V105.257Z" fill="#E2E2E2"/>
</g>
<defs>
<clipPath id="clip0">
<rect width="200" height="160.092" fill="white" transform="translate(0 20)"/>
</clipPath>
</defs>
</svg>
