<svg width="28" height="28" viewBox="0 0 28 28" fill="none" xmlns="http://www.w3.org/2000/svg">
<path fill-rule="evenodd" clip-rule="evenodd" d="M0 2.33917C0 1.71878 0.246447 1.1238 0.685126 0.685126C1.1238 0.246447 1.71878 0 2.33917 0L25.6608 0C25.968 0 26.2722 0.0605043 26.556 0.178058C26.8398 0.295613 27.0977 0.467914 27.3149 0.685126C27.5321 0.902338 27.7044 1.16021 27.8219 1.44401C27.9395 1.72781 28 2.03198 28 2.33917V25.6608C28 25.968 27.9395 26.2722 27.8219 26.556C27.7044 26.8398 27.5321 27.0977 27.3149 27.3149C27.0977 27.5321 26.8398 27.7044 26.556 27.8219C26.2722 27.9395 25.968 28 25.6608 28H2.33917C1.71878 28 1.1238 27.7536 0.685126 27.3149C0.246447 26.8762 0 26.2812 0 25.6608L0 2.33917ZM11.0833 10.675H14.875V12.5802C15.4216 11.4847 16.8222 10.5 18.9262 10.5C22.9594 10.5 23.9167 12.6805 23.9167 16.6816V24.0917H19.8333V17.5928C19.8333 15.3142 19.2867 14.0292 17.8967 14.0292C15.9688 14.0292 15.1667 15.4146 15.1667 17.5928V24.0917H11.0833V10.675ZM4.08333 23.9167H8.16667V10.5H4.08333V23.9167ZM8.75 6.125C8.75 6.46972 8.6821 6.81106 8.55018 7.12954C8.41827 7.44802 8.22491 7.7374 7.98115 7.98115C7.7374 8.22491 7.44802 8.41827 7.12954 8.55018C6.81106 8.6821 6.46972 8.75 6.125 8.75C5.78028 8.75 5.43894 8.6821 5.12046 8.55018C4.80198 8.41827 4.5126 8.22491 4.26884 7.98115C4.02509 7.7374 3.83173 7.44802 3.69982 7.12954C3.5679 6.81106 3.5 6.46972 3.5 6.125C3.5 5.42881 3.77656 4.76113 4.26884 4.26884C4.76113 3.77656 5.42881 3.5 6.125 3.5C6.82119 3.5 7.48887 3.77656 7.98115 4.26884C8.47344 4.76113 8.75 5.42881 8.75 6.125Z" fill="#3F3F3F"/>
</svg>
