<svg width="30" height="28" viewBox="0 0 30 28" fill="none" xmlns="http://www.w3.org/2000/svg">
  <path d="M2.45892 11.0433C3.68029 13.7209 4.46321 16.8756 5.74152 19.4322M1 11.2204C2.69514 8.83666 7.97984 8.11802 7.26125 12.2336C7.13634 12.949 6.8269 13.809 6.26352 14.3488M6.26352 14.3488C6.00154 14.5998 5.68465 14.7816 5.30588 14.8475C4.24003 15.0329 5.79538 14.3993 6.14679 14.3612C6.18525 14.357 6.22417 14.3529 6.26352 14.3488ZM6.26352 14.3488C7.43429 14.2271 8.97784 14.1565 9.85491 15.0501C10.7695 15.982 10.6036 17.806 9.82452 18.7583C8.95765 19.8178 7.24085 20.0878 5.95429 20.1463C5.07363 20.1863 4.63572 20.265 5.19443 19.4269M18.8719 10.3086C17.946 10.6925 17.1717 11.3035 16.9672 12.3551C16.8855 12.7753 16.8618 13.277 16.9227 13.7571M16.9227 13.7571C17.0623 14.8576 17.6461 15.8444 18.9935 15.4756C20.9479 14.9407 21.399 12.7972 20.0472 11.3521C18.2406 9.42093 17.3411 12.3 16.9227 13.7571ZM16.9227 13.7571C16.9027 13.8269 16.8838 13.8934 16.8659 13.9559M24.5252 8.30255C24.1637 8.49053 23.8302 8.68079 23.5431 8.89659M23.5431 8.89659C22.9121 9.37093 22.5054 9.96866 22.5192 10.9367C22.5458 12.8005 25.0722 12.9903 26.3185 12.0005C28.8518 9.98884 24.7988 6.77774 23.5431 8.89659ZM23.5431 8.89659C23.4096 9.12196 23.3077 9.40764 23.2487 9.76149M26.1666 9.39675C26.6387 10.5044 27.136 11.6027 27.6244 12.7042M27.6244 12.7042C27.9281 13.3894 28.2285 14.0758 28.5171 14.7664C29.1336 16.2417 29.4741 17.4006 27.5343 17.4006C24.2811 17.4006 26.0757 14.4892 27.6244 12.7042ZM27.6244 12.7042C28.0419 12.2229 28.4417 11.8235 28.7197 11.5851M11.942 14.8678C11.9529 14.2246 11.9642 13.6027 11.9689 12.985M11.9689 12.985C11.975 12.2057 11.9706 11.4331 11.942 10.6328C11.9203 10.0238 12.1548 9.0549 11.9015 8.48494C11.8418 8.35065 11.728 7.7702 11.5773 8.09995C11.0966 9.15132 11.4088 10.834 11.6583 11.8891C11.7455 12.2576 11.8469 12.6255 11.9689 12.985ZM11.9689 12.985C12.3598 14.1358 12.9626 15.2001 13.9886 15.9214C14.7868 16.4827 15.4917 16.5772 15.7717 15.5972" stroke="currentColor" stroke-width="2" stroke-linecap="round" stroke-linejoin="round" />
</svg>
