<svg width="28" height="28" viewBox="0 0 28 28" fill="none" xmlns="http://www.w3.org/2000/svg">
<path d="M27.5732 12.4805C27.5732 14.1081 27.3171 15.5992 26.8049 16.9537C26.2927 18.2967 25.5699 19.3439 24.6366 20.0951C23.7146 20.8463 22.6447 21.222 21.4268 21.222C20.5276 21.222 19.748 20.9829 19.0878 20.5049C18.4585 20.0492 18.0257 19.4384 17.7895 18.6724C17.7688 18.6054 17.7076 18.5585 17.6375 18.5585V18.5585C17.5838 18.5585 17.534 18.5862 17.5049 18.6313C16.9555 19.4828 16.2823 20.1244 15.4854 20.5561C14.6659 21 13.7439 21.222 12.7195 21.222C10.8642 21.222 9.40163 20.6244 8.33171 19.4293C7.27317 18.2341 6.7439 16.6179 6.7439 14.5805C6.7439 12.2358 7.44959 10.335 8.86098 8.87805C10.2724 7.40976 12.1675 6.67561 14.5463 6.67561C15.4114 6.67561 16.3675 6.75528 17.4146 6.91463C17.8906 6.98117 18.3425 7.06037 18.7701 7.15222C19.646 7.34033 20.2025 8.16447 20.1601 9.05926L19.8561 15.4854V15.8951C19.8561 17.7163 20.448 18.6268 21.6317 18.6268C22.5309 18.6268 23.2423 18.0463 23.7659 16.8854C24.3008 15.7244 24.5683 14.2447 24.5683 12.4463C24.5683 10.5 24.1699 8.79268 23.3732 7.32439C22.5764 5.84472 21.4439 4.7065 19.9756 3.90976C18.5073 3.11301 16.8228 2.71463 14.922 2.71463C12.4976 2.71463 10.3862 3.21545 8.5878 4.21707C6.80081 5.2187 5.43496 6.65285 4.49024 8.51951C3.54553 10.3748 3.07317 12.5317 3.07317 14.9902C3.07317 18.2911 3.95528 20.8293 5.71951 22.6049C7.48374 24.3805 10.0163 25.2683 13.3171 25.2683C15.2716 25.2683 17.2914 24.9591 19.3765 24.3406C20.2631 24.0776 21.1878 24.7182 21.1878 25.6429V25.6429C21.1878 26.1805 20.8642 26.6689 20.3577 26.849C18.1986 27.6163 15.8745 28 13.3854 28C9.17398 28 5.89024 26.8675 3.53415 24.6024C1.17805 22.326 0 19.1561 0 15.0927C0 12.122 0.637398 9.4813 1.9122 7.17073C3.18699 4.84878 4.95122 3.07317 7.20488 1.8439C9.46992 0.614634 12.0309 0 14.8878 0C17.3577 0 19.5545 0.512195 21.478 1.53659C23.413 2.56098 24.9098 4.02358 25.9683 5.92439C27.0382 7.81382 27.5732 9.99919 27.5732 12.4805ZM10.022 14.6488C10.022 17.3008 11.0634 18.6268 13.1463 18.6268C15.3431 18.6268 16.5439 16.9593 16.7488 13.6244L16.8728 11.1549C16.92 10.2147 16.3039 9.34757 15.365 9.27923C15.1308 9.26218 14.892 9.25366 14.6488 9.25366C13.1919 9.25366 12.0537 9.7374 11.2341 10.7049C10.426 11.6724 10.022 12.987 10.022 14.6488Z" fill="currentColor"/>
</svg>
