<svg width="28" height="28" viewBox="0 0 28 28" fill="none" xmlns="http://www.w3.org/2000/svg">
<path fill-rule="evenodd" clip-rule="evenodd" d="M16.5917 1C16.4002 1 16.2224 1.04096 16.0583 1.09557C16.407 1.32766 16.5985 1.63485 16.6943 1.98299C16.7011 2.03078 16.7148 2.06491 16.7216 2.11269C16.7285 2.15365 16.7353 2.19461 16.7353 2.23557C16.7627 2.83629 16.578 2.91138 16.4481 3.26635C16.2497 3.72371 16.3045 4.21521 16.5438 4.61114C16.5643 4.65892 16.5917 4.71353 16.6259 4.76132C16.366 3.03425 17.8089 2.77485 18.0756 2.23557C18.0961 1.76455 17.7063 1.45054 17.3986 1.2321C17.1046 1.05461 16.8379 1 16.5917 1ZM18.7663 1.3891C18.7389 1.54611 18.7595 1.50515 18.7526 1.58707C18.7458 1.64168 18.7458 1.70994 18.739 1.76455C18.7253 1.81916 18.7116 1.87377 18.6911 1.92838C18.6774 1.98299 18.6569 2.03761 18.6364 2.09221C18.609 2.14683 18.5885 2.19461 18.5612 2.24922C18.5407 2.27654 18.527 2.30383 18.5065 2.33114C18.4928 2.35162 18.4791 2.3721 18.4654 2.39258C18.4312 2.44036 18.3971 2.48814 18.3629 2.5291C18.3218 2.57006 18.2876 2.61784 18.2398 2.65198V2.65881C18.1987 2.69294 18.1577 2.7339 18.1098 2.76803C17.9662 2.87725 17.8021 2.95917 17.6517 3.06157C17.6038 3.0957 17.5559 3.123 17.5149 3.16396C17.467 3.19809 17.426 3.23222 17.385 3.27318C17.3371 3.31414 17.3029 3.3551 17.2619 3.40288C17.2277 3.44384 17.1866 3.49163 17.1593 3.53941C17.1251 3.58719 17.0909 3.63498 17.0635 3.68276C17.0362 3.73737 17.0157 3.78516 16.9883 3.83977C16.9678 3.89438 16.9473 3.94216 16.9336 3.99677C16.9131 4.05821 16.8994 4.11282 16.8857 4.16744C16.8789 4.19475 16.8789 4.22887 16.8721 4.25618C16.8652 4.28349 16.8652 4.31079 16.8584 4.33809C16.8584 4.3927 16.8516 4.45414 16.8516 4.50875C16.8516 4.54971 16.8516 4.59067 16.8584 4.63163C16.8584 4.68624 16.8653 4.74085 16.8789 4.80228C16.8858 4.85689 16.8994 4.9115 16.9131 4.96612C16.9336 5.02073 16.9473 5.07534 16.9678 5.12995C16.9815 5.16408 17.002 5.19821 17.0157 5.22552L15.4429 4.61797C15.1762 4.54288 14.9163 4.47462 14.6496 4.41318C14.506 4.37905 14.3624 4.34492 14.2188 4.31079C13.8085 4.22887 13.3913 4.16744 12.9742 4.12648C12.9605 4.12648 12.9536 4.11964 12.94 4.11964C12.5297 4.07868 12.1262 4.05821 11.7159 4.05821C11.415 4.05821 11.1141 4.07185 10.82 4.09234C10.4029 4.11965 9.98575 4.17425 9.5686 4.24251C9.46602 4.25616 9.36345 4.27665 9.26087 4.29713C9.04888 4.33808 8.84372 4.38587 8.64541 4.43365C8.54283 4.46097 8.44025 4.48827 8.33767 4.51557C8.2351 4.55653 8.13936 4.60431 8.04362 4.64527C7.9684 4.6794 7.89317 4.71353 7.81795 4.74767C7.80428 4.7545 7.79059 4.7545 7.78376 4.76131C7.71537 4.79544 7.65383 4.82274 7.59228 4.85688C7.57177 4.86371 7.55809 4.87052 7.54441 4.87736C7.46919 4.91149 7.39397 4.95244 7.33242 4.98658C7.28455 5.00706 7.23668 5.03436 7.19565 5.05484C7.17513 5.06848 7.14778 5.08216 7.1341 5.08897C7.07256 5.1231 7.01101 5.15723 6.9563 5.19137C6.89476 5.2255 6.84005 5.25963 6.79218 5.29376C6.74431 5.3279 6.69644 5.3552 6.65541 5.38933C6.64856 5.39616 6.64174 5.39617 6.63489 5.40297C6.59386 5.43029 6.54599 5.46441 6.50496 5.49854C6.50496 5.49854 6.49811 5.50538 6.4913 5.51219C6.45711 5.5395 6.42291 5.5668 6.38872 5.5941C6.37505 5.60093 6.36135 5.61458 6.34769 5.62142C6.3135 5.64873 6.2793 5.68285 6.24511 5.71016C6.23826 5.7238 6.2246 5.73064 6.21775 5.73748C6.17672 5.77843 6.13569 5.81256 6.09465 5.85352C6.0878 5.85352 6.0878 5.86036 6.08099 5.86717C6.03996 5.9013 5.99893 5.94226 5.9579 5.98321C5.95105 5.99005 5.95105 5.99685 5.94423 5.99685C5.91004 6.03099 5.87585 6.06512 5.84165 6.10608C5.82798 6.11972 5.80746 6.13339 5.79378 6.14703C5.75959 6.18799 5.71856 6.22895 5.67753 6.26991C5.67068 6.28355 5.65701 6.29039 5.65016 6.30404C5.59546 6.35865 5.54759 6.41326 5.49288 6.46787C5.48603 6.47471 5.47921 6.48151 5.47236 6.48835C5.36295 6.6044 5.24669 6.72045 5.1236 6.82284C5.00051 6.93206 4.87058 7.03446 4.74065 7.1232C4.60388 7.21877 4.47395 7.30069 4.33034 7.3826C4.19357 7.45769 4.04996 7.52596 3.89951 7.58739C3.7559 7.64883 3.60546 7.70344 3.45501 7.75122C3.1678 7.81266 2.87374 7.92871 2.62072 7.94919C2.56601 7.94919 2.50446 7.96283 2.44976 7.96967C2.38821 7.98331 2.3335 7.99698 2.2788 8.01063C2.22409 8.0311 2.16938 8.05158 2.11467 8.07206C2.05996 8.09254 2.00526 8.11985 1.95055 8.14715C1.90268 8.18128 1.84797 8.20859 1.8001 8.24272C1.75223 8.27685 1.70436 8.31781 1.66333 8.35877C1.61546 8.3929 1.56759 8.44069 1.52656 8.48164C1.48553 8.52943 1.4445 8.57039 1.41031 8.61817C1.37612 8.67278 1.33509 8.72057 1.30773 8.77518C1.27354 8.82296 1.23935 8.87757 1.21199 8.93218C1.18463 8.99362 1.15728 9.04823 1.13677 9.10967C1.11625 9.16428 1.09574 9.22572 1.07522 9.28715C1.06156 9.34176 1.04786 9.39637 1.04103 9.45098C1.04103 9.45783 1.03418 9.46463 1.03418 9.47146C1.02052 9.5329 1.02052 9.61482 1.01367 9.65578C1.00682 9.70356 1 9.74452 1 9.7923C1 9.81962 1 9.85374 1.00685 9.88105C1.0137 9.92883 1.02052 9.96979 1.03421 10.0108C1.04788 10.0517 1.06158 10.0927 1.08208 10.1336V10.1405C1.1026 10.1814 1.12995 10.2224 1.1573 10.2633C1.18467 10.3043 1.21201 10.3453 1.24621 10.3862C1.2804 10.4203 1.32143 10.4613 1.36246 10.4954C1.40349 10.5364 1.44452 10.5705 1.49239 10.6046C1.65651 10.748 1.69755 10.7958 1.90954 10.905C1.94373 10.9255 1.97792 10.9391 2.01896 10.9596C2.02581 10.9596 2.03262 10.9665 2.03947 10.9665C2.03947 10.9801 2.03947 10.9869 2.04632 11.0006C2.05317 11.0552 2.06684 11.1098 2.08051 11.1644C2.09418 11.2259 2.11471 11.2805 2.13522 11.3283C2.15574 11.3692 2.16941 11.4102 2.18993 11.4511C2.19678 11.4648 2.2036 11.4784 2.21045 11.4853C2.23781 11.5399 2.26515 11.5877 2.2925 11.6354C2.3267 11.6832 2.36089 11.731 2.39508 11.7788C2.42927 11.8198 2.47031 11.8675 2.51134 11.9085C2.55237 11.9495 2.5934 11.9836 2.64127 12.0245C2.64127 12.0245 2.64812 12.0314 2.65494 12.0314C2.69597 12.0655 2.737 12.0997 2.77803 12.127C2.8259 12.1611 2.87377 12.1884 2.92847 12.2157C2.97635 12.243 3.03105 12.2703 3.08576 12.2908C3.12679 12.3113 3.17466 12.3249 3.22253 12.3386C3.22938 12.3454 3.2362 12.3454 3.24989 12.3522C3.27726 12.3591 3.31144 12.3659 3.33879 12.3727C3.31828 12.7413 3.31143 13.0895 3.36616 13.2123C3.4277 13.3489 3.7286 12.9325 4.02949 12.4546C3.98846 12.9256 3.9611 13.4786 4.02949 13.6424C4.10471 13.813 4.51502 13.2806 4.87062 12.6935C9.7191 11.574 14.1436 14.9189 14.6086 19.6427C14.5197 18.9055 13.6102 18.4959 13.1931 18.5983C12.9879 19.1035 12.6391 19.752 12.0784 20.1547C12.1262 19.7042 12.1057 19.24 12.01 18.7895C11.8595 19.4175 11.5655 20.0045 11.162 20.5097C10.5124 20.5575 9.86271 20.2435 9.52078 19.7725C9.49342 19.752 9.48659 19.711 9.46608 19.6837C9.44556 19.6359 9.42504 19.5881 9.41137 19.5404C9.39085 19.4926 9.37718 19.4448 9.37034 19.397C9.36349 19.3492 9.36349 19.3014 9.36349 19.2468C9.36349 19.2127 9.36349 19.1786 9.36349 19.1444C9.37034 19.0966 9.384 19.0489 9.39768 19.0011C9.41135 18.9533 9.42504 18.9055 9.44555 18.8577C9.47291 18.8099 9.49342 18.7622 9.52761 18.7144C9.64387 18.3867 9.64387 18.1205 9.43187 17.9635C9.39084 17.9362 9.34981 17.9157 9.30194 17.8952C9.27458 17.8884 9.24039 17.8747 9.21304 17.8679C9.19253 17.8611 9.17885 17.8542 9.15833 17.8474C9.11046 17.8338 9.06259 17.8201 9.01473 17.8133C8.96686 17.7996 8.91899 17.7928 8.87112 17.7928C8.82325 17.786 8.76854 17.7792 8.72067 17.7792C8.68648 17.7792 8.65229 17.786 8.61809 17.786C8.56339 17.786 8.51552 17.7928 8.46765 17.8065C8.41978 17.8133 8.37191 17.8201 8.32404 17.8338C8.27617 17.8474 8.2283 17.8611 8.18043 17.8816C8.13256 17.9021 8.09153 17.9225 8.04366 17.943C8.00263 17.9635 7.9616 17.9908 7.91373 18.0113C6.32036 19.0489 7.27091 21.4791 8.35823 22.1822C7.94792 22.2573 7.53078 22.346 7.41452 22.4347C7.40767 22.4416 7.40086 22.4484 7.40086 22.4484C7.69491 22.6259 8.00264 22.7761 8.32405 22.9057C8.76171 23.0491 9.22673 23.1788 9.43188 23.2334V23.2402C9.99948 23.3563 10.5739 23.3973 11.1552 23.3631C14.1846 23.1515 16.667 20.851 17.1183 17.8201C17.132 17.8816 17.1457 17.9362 17.1594 17.9976C17.1799 18.1205 17.2072 18.2502 17.2209 18.3799V18.3867C17.2346 18.4482 17.2414 18.5096 17.2483 18.5642V18.5915C17.2551 18.653 17.2619 18.7144 17.2619 18.769C17.2688 18.8441 17.2756 18.9192 17.2756 18.9943V19.1035C17.2756 19.1376 17.2825 19.1786 17.2825 19.2127C17.2825 19.2537 17.2756 19.2947 17.2756 19.3356V19.4312C17.2756 19.479 17.2687 19.5199 17.2687 19.5677C17.2687 19.595 17.2687 19.6223 17.2619 19.6564C17.2619 19.7042 17.2551 19.752 17.2551 19.8066C17.2482 19.8271 17.2482 19.8476 17.2482 19.8681C17.2414 19.9227 17.2345 19.9705 17.2277 20.0251C17.2277 20.0456 17.2277 20.066 17.2208 20.0865C17.214 20.1548 17.2003 20.2162 17.1935 20.2845V20.2913V20.2982C17.1798 20.3596 17.1661 20.4279 17.1524 20.4893V20.5098C17.1388 20.5712 17.1251 20.6326 17.1114 20.6941C17.1114 20.7009 17.1046 20.7146 17.1046 20.7214C17.0909 20.7828 17.0772 20.8443 17.0567 20.9057V20.9262C17.0362 20.9944 17.0157 21.0559 17.002 21.1173C16.9951 21.1242 16.9951 21.131 16.9951 21.131C16.9746 21.1992 16.9541 21.2675 16.9336 21.3358C16.9062 21.404 16.8857 21.4655 16.8584 21.5337C16.831 21.602 16.8105 21.6702 16.7831 21.7317C16.7558 21.7999 16.7284 21.8614 16.7011 21.9296H16.6942C16.6669 21.9911 16.6395 22.0593 16.6053 22.1208C16.5985 22.1413 16.5917 22.1549 16.5848 22.1686C16.578 22.1754 16.578 22.1822 16.5711 22.189C16.1266 23.0833 15.4701 23.8683 14.6495 24.4827C14.5948 24.5168 14.5401 24.5578 14.4854 24.5987C14.4717 24.6124 14.4512 24.6192 14.4375 24.6329C14.3897 24.667 14.3418 24.7011 14.2871 24.7353L14.3076 24.7762H14.3145C14.4102 24.7626 14.5059 24.7489 14.6017 24.7353H14.6085C14.7863 24.708 14.9641 24.6738 15.1419 24.6397C15.1898 24.6329 15.2445 24.6192 15.2924 24.6056C15.3266 24.5987 15.3539 24.5919 15.3881 24.5851C15.436 24.5782 15.4838 24.5646 15.5317 24.5578C15.5727 24.5441 15.6138 24.5373 15.6548 24.5236C16.3387 24.3598 17.002 24.1345 17.638 23.8683C16.5506 25.3496 15.0941 26.5442 13.3913 27.3293C14.1777 27.2747 14.9641 27.145 15.7232 26.9265C18.4791 26.1142 20.7973 24.2642 22.1856 21.7726C21.9052 23.3495 21.276 24.8513 20.346 26.162C21.0093 25.7251 21.618 25.2199 22.1719 24.6465C23.7037 23.0492 24.709 21.0217 25.0509 18.8441C25.2834 19.9227 25.3518 21.0354 25.2492 22.1344C30.1866 15.2603 25.6595 8.13359 23.7652 6.25635C23.7584 6.2427 23.7516 6.23587 23.7516 6.22221C23.7447 6.22905 23.7447 6.22905 23.7447 6.23586C23.7447 6.22902 23.7447 6.22902 23.7379 6.22221C23.7379 6.30413 23.731 6.38604 23.7242 6.46796C23.7037 6.62497 23.6832 6.77515 23.6558 6.92533C23.6216 7.07551 23.5806 7.22568 23.5396 7.37587C23.4917 7.51922 23.437 7.6694 23.3754 7.81275C23.3139 7.94928 23.2455 8.09263 23.1703 8.22916C23.0951 8.35886 23.013 8.49539 22.9241 8.61826C22.8352 8.74796 22.7395 8.87083 22.6437 8.98688C22.5411 9.10976 22.4317 9.21898 22.3223 9.3282C22.2539 9.38964 22.1924 9.44425 22.124 9.49886C22.0693 9.54664 22.0214 9.5876 21.9667 9.63538C21.8436 9.73095 21.7205 9.8197 21.5838 9.90161C21.4538 9.98353 21.3171 10.0654 21.1803 10.1337C21.0367 10.202 20.8931 10.2634 20.7495 10.3248C20.6059 10.3795 20.4554 10.4272 20.305 10.4682C20.1545 10.5092 19.9972 10.5433 19.8468 10.5706C19.6895 10.5979 19.5322 10.6116 19.3818 10.6252C19.2724 10.632 19.1629 10.6388 19.0535 10.6388C18.8962 10.6388 18.739 10.6252 18.5885 10.6115C18.4312 10.5979 18.2739 10.5774 18.1235 10.5433C17.9662 10.516 17.8158 10.475 17.6653 10.4272H17.6585C17.8089 10.4136 17.9594 10.3999 18.1098 10.3726C18.2671 10.3453 18.4175 10.3112 18.568 10.2702C18.7184 10.2293 18.8689 10.1815 19.0125 10.1269C19.1629 10.0722 19.3065 10.004 19.4433 9.93572C19.5869 9.86746 19.7168 9.79237 19.8536 9.71045C19.9835 9.62171 20.1135 9.53297 20.2366 9.4374C20.3597 9.34183 20.4759 9.23944 20.5853 9.13021C20.7016 9.02782 20.8042 8.91177 20.9067 8.79572C21.0093 8.67285 21.1051 8.54998 21.194 8.4271C21.2076 8.40662 21.2213 8.37932 21.235 8.35884C21.3034 8.24962 21.3718 8.14039 21.4333 8.03117C21.5085 7.89464 21.5769 7.75812 21.6385 7.61477C21.7 7.47141 21.7547 7.32806 21.8026 7.17788C21.8505 7.03452 21.8846 6.88435 21.9188 6.73417C21.9462 6.57716 21.9735 6.42698 21.9872 6.2768C22.0009 6.1198 22.0146 5.96279 22.0146 5.81261C22.0146 5.70339 22.0077 5.59417 22.0009 5.48495C21.9873 5.32794 21.9667 5.17776 21.9462 5.02758C21.9188 4.87058 21.8847 4.7204 21.8436 4.57022C21.7958 4.42686 21.7479 4.27668 21.6932 4.13333C21.6385 3.98998 21.5701 3.84662 21.5017 3.7101C21.4265 3.57357 21.3513 3.43704 21.2692 3.30734C21.1803 3.17764 21.0914 3.05477 20.9957 2.93189C20.8931 2.81585 20.7905 2.6998 20.6811 2.58375C20.6264 2.52914 20.5648 2.4677 20.5033 2.41309C20.1956 2.17417 19.8742 1.9489 19.5527 1.74411C19.5049 1.71679 19.4638 1.69632 19.416 1.67584C19.1903 1.53249 18.9783 1.4574 18.7663 1.38914L18.7663 1.3891Z" fill="currentColor"/>
</svg>
