<svg width="28" height="28" viewBox="0 0 28 28" fill="none" xmlns="http://www.w3.org/2000/svg">
<path d="M20.2697 9.71711C20.2663 9.71535 20.263 9.71411 20.2598 9.71287C20.2537 9.71054 20.2481 9.70842 20.2428 9.70338C20.2258 9.68731 20.2191 9.65847 20.2228 9.63539L20.7868 6.18394L23.4344 8.83168L20.6813 10.0031C20.6737 10.0064 20.6655 10.008 20.6572 10.008C20.6518 10.008 20.6488 10.008 20.6461 10.0071C20.6423 10.0058 20.6393 10.0027 20.632 9.99562C20.5348 9.8874 20.414 9.79086 20.2697 9.71711ZM24.1095 9.50672L26.9401 12.3373C27.5282 12.9254 27.8223 13.2195 27.9298 13.5596C27.9458 13.6098 27.9588 13.6607 27.9691 13.712L21.2047 10.8477C21.2013 10.8463 21.1977 10.8448 21.194 10.8434C21.1667 10.8323 21.1353 10.8196 21.1353 10.7917C21.1353 10.7642 21.1676 10.751 21.1945 10.7399C21.1974 10.7387 21.2002 10.7376 21.2029 10.7365L24.1095 9.50672ZM27.8535 14.6207C27.7075 14.8953 27.4228 15.1799 26.9401 15.6627L23.7498 18.853L19.6223 17.9934C19.6154 17.992 19.6079 17.9908 19.6004 17.9896C19.5643 17.9837 19.5248 17.9772 19.5248 17.9437C19.4871 17.5954 19.3235 17.2844 19.0467 17.073C19.0298 17.0563 19.0346 17.0299 19.0389 17.0056C19.0395 17.0021 19.0401 16.9988 19.0407 16.9955L19.8174 12.2299C19.8183 12.2249 19.819 12.2195 19.8198 12.2141C19.8248 12.1777 19.8308 12.135 19.8646 12.135C20.2117 12.086 20.5099 11.9162 20.7112 11.6495C20.7173 11.6415 20.722 11.634 20.731 11.6297C20.754 11.6188 20.7825 11.6302 20.806 11.6401L27.8535 14.6207ZM23.0155 19.5873L17.7679 24.8348L18.6669 19.3138C18.6672 19.3112 18.6676 19.3087 18.6679 19.3061C18.6688 19.2992 18.6697 19.2923 18.6723 19.2857C18.6793 19.2679 18.6986 19.2603 18.7168 19.2531C18.7197 19.2519 18.7226 19.2509 18.7254 19.2497C18.9248 19.1667 19.094 19.0351 19.233 18.8723C19.2507 18.8516 19.2719 18.8323 19.2988 18.8277C19.3047 18.8267 19.3139 18.8274 19.3199 18.8286L23.0155 19.5873ZM16.6575 25.9454L16.0657 26.5371L9.5268 17.086C9.52439 17.0826 9.52184 17.0792 9.51921 17.0757C9.50891 17.0622 9.4984 17.0483 9.49993 17.0319C9.50095 17.0201 9.50848 17.0105 9.516 17.001C9.51841 16.998 9.52089 16.9948 9.52308 16.9917C9.54309 16.9631 9.5601 16.9339 9.57873 16.9018C9.58355 16.8935 9.58844 16.8851 9.59355 16.8764L9.59501 16.874C9.60516 16.8567 9.6148 16.8402 9.63255 16.8307C9.64795 16.8226 9.66877 16.826 9.68585 16.8296L16.9308 18.3237C16.9488 18.3274 16.9732 18.335 16.9864 18.3479C16.9957 18.3572 16.9977 18.3674 16.9999 18.3789C17.0007 18.3835 17.0016 18.3884 17.003 18.3933C17.1093 18.7676 17.382 19.0914 17.7507 19.2373C17.7712 19.2473 17.7621 19.2704 17.7526 19.2946C17.7482 19.3057 17.7438 19.317 17.742 19.3274C17.6509 19.8827 16.8676 24.6566 16.6575 25.9454ZM15.4218 27.1803C14.986 27.6119 14.7289 27.8401 14.4382 27.932C14.1517 28.0227 13.844 28.0227 13.5575 27.932C13.2173 27.8245 12.9233 27.5304 12.3352 26.9423L5.76827 20.3754L7.48321 17.7147C7.49168 17.7016 7.49935 17.6897 7.51213 17.6806C7.53075 17.6674 7.55733 17.6737 7.57909 17.6805C7.75559 17.735 7.92216 17.7571 8.0999 17.7571C8.32927 17.7571 8.54703 17.7113 8.77538 17.6198C8.79466 17.612 8.81467 17.6074 8.83015 17.6212C8.83753 17.6277 8.84512 17.6368 8.85067 17.6449L15.4218 27.1803ZM5.13503 19.7421L3.62802 18.2351L6.60366 16.966C6.6113 16.9627 6.61952 16.961 6.62782 16.961C6.65247 16.961 6.66691 16.9857 6.68038 17.0087C6.6837 17.0144 6.68695 17.0199 6.69029 17.025C6.71868 17.0681 6.74707 17.1057 6.77546 17.1432C6.77769 17.1461 6.78274 17.1518 6.78482 17.1547C6.79326 17.1672 6.78708 17.1792 6.77897 17.1918L5.13503 19.7421ZM2.96174 17.5688L1.05559 15.6627C0.731401 15.3385 0.496565 15.1036 0.333061 14.9012L6.12772 16.1028C6.13456 16.1042 6.14194 16.1055 6.14948 16.1067C6.18559 16.1125 6.22511 16.119 6.22511 16.1525C6.22511 16.1888 6.18224 16.2058 6.1456 16.2203C6.13975 16.2226 6.13406 16.2249 6.12873 16.2271L2.96174 17.5688ZM0 13.9211C0.00660744 13.799 0.0285559 13.6775 0.0658455 13.5596C0.173406 13.2195 0.467469 12.9254 1.05559 12.3373L3.49536 9.89755C3.89737 10.4876 6.55289 14.3237 6.86286 14.7677C6.86588 14.772 6.86918 14.7765 6.87255 14.781C6.89234 14.8077 6.91414 14.8372 6.89205 14.859C6.78517 14.9763 6.67829 15.1048 6.60315 15.2444C6.59428 15.2609 6.58292 15.2795 6.567 15.2894C6.55732 15.2954 6.54741 15.2933 6.53637 15.2909L6.53472 15.2906L0 13.9211ZM4.14732 9.24559L7.42705 5.96582C7.73529 6.10068 8.85724 6.5748 9.86009 6.99862C10.6202 7.31985 11.3122 7.61232 11.5293 7.70608C11.5511 7.7155 11.5711 7.72412 11.5807 7.74588C11.5865 7.75895 11.5836 7.77618 11.5807 7.79021C11.5586 7.89514 11.5475 8.00008 11.5475 8.10501C11.5475 8.49058 11.6986 8.85133 11.9628 9.12495C11.9845 9.14642 11.9625 9.17789 11.9433 9.2055C11.9398 9.21068 11.9363 9.21572 11.9332 9.22054L8.60377 14.3784C8.59472 14.3924 8.58647 14.4053 8.57244 14.4144C8.55477 14.426 8.53002 14.4208 8.50957 14.4156C8.37981 14.3827 8.24077 14.3614 8.11254 14.3614C7.99336 14.3614 7.86294 14.3838 7.73186 14.4072L7.73069 14.4074C7.71652 14.41 7.70338 14.4124 7.69162 14.4038C7.67877 14.3946 7.6676 14.3797 7.65861 14.3666L4.14732 9.24559ZM8.08924 5.30363L12.3352 1.05773C12.9233 0.469604 13.2173 0.17554 13.5575 0.0679798C13.844 -0.02266 14.1517 -0.02266 14.4382 0.0679799C14.7784 0.17554 15.0724 0.469604 15.6605 1.05773L16.5806 1.97781L13.5611 6.65471C13.5524 6.66816 13.5444 6.68042 13.5312 6.68952C13.5129 6.70207 13.4871 6.69616 13.4658 6.69009C13.3129 6.64663 13.16 6.6249 13.0071 6.6249C12.6674 6.6249 12.3277 6.74928 12.0635 6.96073C12.0439 6.98008 12.0146 6.96815 11.9894 6.9572C11.5951 6.78601 8.52805 5.48915 8.08924 5.30363ZM17.2216 2.61877L20.0103 5.40752L19.3388 9.56785C19.3383 9.5712 19.3379 9.57508 19.3375 9.57909C19.3365 9.58866 19.3353 9.59917 19.332 9.60669C19.3254 9.6213 19.311 9.62459 19.2957 9.62809C19.2905 9.62926 19.2852 9.6305 19.28 9.63218C19.1388 9.67833 19.0078 9.74332 18.8952 9.8273C18.89 9.83125 18.8856 9.83585 18.8813 9.8403C18.8729 9.84928 18.8649 9.85761 18.8518 9.85841C18.8432 9.85892 18.8287 9.85702 18.8207 9.85359L14.572 8.04835C14.5692 8.04718 14.5664 8.04601 14.5635 8.04477C14.5366 8.03374 14.5044 8.02045 14.5044 7.99299C14.4815 7.76589 14.406 7.53885 14.2878 7.34015C14.2848 7.33519 14.2817 7.33015 14.2785 7.32504C14.2577 7.29152 14.2355 7.25591 14.2527 7.22185L17.2216 2.61877ZM14.3507 8.90354L18.3331 10.5907C18.3559 10.6003 18.3792 10.6102 18.3885 10.6331C18.3934 10.6454 18.3911 10.6614 18.3886 10.6742C18.3774 10.7323 18.3673 10.7993 18.3673 10.8663V10.9782C18.3673 11.0056 18.3386 11.0175 18.3125 11.0283C18.3096 11.0295 18.3066 11.0307 18.3039 11.0318C17.6732 11.3009 9.44582 14.8092 9.4337 14.8092C9.42114 14.8092 9.40858 14.8092 9.39594 14.7968C9.37426 14.7753 9.39616 14.7438 9.41537 14.7162C9.41895 14.7111 9.42245 14.706 9.42559 14.7012L12.6989 9.63393C12.7008 9.63101 12.7027 9.62802 12.7045 9.62502C12.7239 9.59443 12.7456 9.56032 12.7806 9.56032C12.7918 9.56186 12.8028 9.56346 12.8136 9.565C12.8879 9.57573 12.9538 9.58523 13.0197 9.58523C13.5164 9.58523 13.9763 9.34293 14.2544 8.93012C14.2617 8.91917 14.2684 8.90938 14.2788 8.9012C14.2987 8.88579 14.3276 8.89368 14.3507 8.90354ZM9.78969 15.6106L18.7573 11.7867C18.7573 11.7867 18.7699 11.7868 18.7825 11.7992C18.8316 11.8477 18.873 11.8811 18.9128 11.9112C18.9187 11.9157 18.9257 11.9197 18.9327 11.9238C18.9511 11.9344 18.9698 11.9453 18.971 11.9648C18.9714 11.9715 18.9707 11.9766 18.9696 11.9833L18.2009 16.7019C18.1999 16.7078 18.1991 16.7142 18.1982 16.7206C18.1933 16.7577 18.1878 16.7993 18.1534 16.7993C17.7365 16.8235 17.3675 17.0603 17.151 17.4175C17.1499 17.4195 17.1487 17.4214 17.1475 17.4233C17.1375 17.4401 17.1279 17.4563 17.1103 17.4651C17.0955 17.4725 17.0757 17.4693 17.0595 17.4659L9.90858 15.9907C9.90179 15.9893 9.79722 15.6117 9.78969 15.6106Z" fill="currentColor"/>
</svg>
