<svg width="28" height="28" viewBox="0 0 28 28" fill="none" xmlns="http://www.w3.org/2000/svg">
<path d="M6.49722 10.3988H11.6908V10.818H6.97341V13.9722H11.4094V14.3914H6.97341V17.8545H11.7449V18.2736H6.49722V10.3988V10.3988ZM12.156 10.3988H12.7079L15.1532 13.8619L17.6525 10.3988L21.0521 6L15.4669 14.2259L18.345 18.2736H17.7715L15.1532 14.5899L12.524 18.2736H11.9613L14.861 14.2259L12.1562 10.3988H12.156ZM18.5506 10.818V10.3988H24.4689V10.818H21.7425V18.2734H21.2663V10.818H18.5508H18.5506ZM0 10.3988H0.595148L8.80099 22.8661L5.40984 18.2736L0.497635 10.9944L0.476007 18.2736H0V10.3988V10.3988ZM24.4212 17.7279C24.3237 17.7279 24.2508 17.6514 24.2508 17.5526C24.2508 17.4537 24.3237 17.3772 24.421 17.3772C24.5195 17.3772 24.5912 17.4537 24.5912 17.5526C24.5912 17.6514 24.5195 17.7279 24.421 17.7279H24.4212ZM24.8888 17.2665H25.1437C25.1472 17.4066 25.2481 17.5007 25.3962 17.5007C25.5617 17.5007 25.6555 17.3996 25.6555 17.21V16.0094H25.9149V17.2111C25.9149 17.5526 25.7204 17.7493 25.3984 17.7493C25.0963 17.7493 24.889 17.5585 24.889 17.2665H24.8888ZM26.254 17.2514H26.5111C26.5331 17.4125 26.6882 17.5149 26.9118 17.5149C27.1201 17.5149 27.273 17.4053 27.273 17.2548C27.273 17.1254 27.1758 17.0475 26.9545 16.9947L26.7391 16.9418C26.4371 16.87 26.2991 16.7215 26.2991 16.472C26.2991 16.1694 26.5423 15.968 26.907 15.968C27.2463 15.968 27.4943 16.1694 27.5092 16.4554H27.2567C27.2325 16.299 27.0982 16.2011 26.9036 16.2011C26.6985 16.2011 26.562 16.3012 26.562 16.4542C26.562 16.5755 26.65 16.645 26.8678 16.6968L27.0518 16.7427C27.3945 16.8239 27.5358 16.9652 27.5358 17.2206C27.5358 17.5455 27.2879 17.7493 26.892 17.7493C26.5216 17.7493 26.2725 17.5549 26.254 17.2512V17.2514Z" fill="currentColor"/>
</svg>
