<svg width="28" height="28" viewBox="0 0 28 28" fill="none" xmlns="http://www.w3.org/2000/svg">
<g clip-path="url(#clip0)">
<path d="M13.8418 22.6812C13.748 22.6798 13.6563 22.6535 13.576 22.6051L12.7342 22.1042C12.6076 22.0344 12.6709 22.009 12.7089 21.9964C12.8424 21.9534 12.97 21.8938 13.0886 21.8188C13.0988 21.8142 13.11 21.8123 13.1211 21.8134C13.1322 21.8145 13.1429 21.8186 13.1519 21.8252L13.7975 22.2056C13.81 22.2128 13.8242 22.2167 13.8386 22.2167C13.8531 22.2167 13.8673 22.2128 13.8798 22.2056L16.4114 20.7472C16.4211 20.7396 16.4289 20.73 16.4344 20.719C16.4399 20.7081 16.4428 20.696 16.4431 20.6838V17.7542C16.4421 17.7414 16.4382 17.729 16.4316 17.718C16.425 17.707 16.4159 17.6977 16.4051 17.6908L13.8734 16.2323C13.8627 16.2268 13.8507 16.2239 13.8386 16.2239C13.8265 16.2239 13.8146 16.2268 13.8038 16.2323L11.2722 17.6908C11.2614 17.6977 11.2523 17.707 11.2457 17.718C11.2391 17.729 11.2352 17.7414 11.2342 17.7542V20.6774C11.2335 20.6914 11.2367 20.7053 11.2434 20.7177C11.2501 20.73 11.26 20.7402 11.2722 20.7472L11.9684 21.1467C12.3481 21.3369 12.576 21.115 12.576 20.893V18.0078C12.5751 17.9982 12.5762 17.9884 12.5793 17.9792C12.5824 17.97 12.5874 17.9615 12.594 17.9544C12.6005 17.9472 12.6085 17.9415 12.6174 17.9376C12.6263 17.9337 12.6359 17.9317 12.6456 17.9317H12.962C12.9723 17.9308 12.9826 17.9321 12.9922 17.9355C13.0019 17.939 13.0107 17.9446 13.0179 17.9519C13.0252 17.9591 13.0307 17.9679 13.0342 17.9776C13.0377 17.9873 13.039 17.9976 13.038 18.0078V20.893C13.038 21.4003 12.7658 21.6856 12.2912 21.6856C12.1456 21.6856 12.0317 21.6856 11.7089 21.5271L11.0443 21.1467C10.9637 21.0993 10.8968 21.0317 10.8502 20.9505C10.8036 20.8693 10.7789 20.7774 10.7785 20.6838V17.7605C10.7782 17.6668 10.8027 17.5746 10.8493 17.4933C10.896 17.412 10.9633 17.3445 11.0443 17.2976L13.576 15.8329C13.6568 15.7896 13.747 15.7669 13.8386 15.7669C13.9303 15.7669 14.0205 15.7896 14.1013 15.8329L16.6329 17.2913C16.7149 17.3387 16.7828 17.4072 16.8295 17.4897C16.8763 17.5722 16.9002 17.6657 16.8988 17.7605V20.6774C16.8991 20.7705 16.8753 20.862 16.8298 20.9431C16.7844 21.0242 16.7187 21.0922 16.6393 21.1403L14.1076 22.6051C14.0266 22.6513 13.935 22.6753 13.8418 22.6749V22.6812Z" fill="#3F3F3F"/>
<path d="M14.6202 20.6647C13.5126 20.6647 13.2784 20.1575 13.2784 19.7263C13.2784 19.7165 13.2804 19.7069 13.2843 19.698C13.2882 19.6891 13.2939 19.6811 13.301 19.6746C13.3082 19.668 13.3166 19.663 13.3258 19.6599C13.335 19.6568 13.3447 19.6556 13.3544 19.6565H13.6835C13.7009 19.6564 13.7177 19.6629 13.7306 19.6747C13.7435 19.6864 13.7515 19.7025 13.7531 19.7199C13.8038 20.0497 13.9493 20.2209 14.6202 20.2209C15.1519 20.2209 15.3797 20.094 15.3797 19.815C15.3797 19.6502 15.3164 19.5297 14.4873 19.4473C13.7911 19.3838 13.3671 19.2253 13.3671 18.6736C13.3671 18.1664 13.7974 17.8557 14.5189 17.8557C15.3291 17.8557 15.7278 18.141 15.7848 18.7434C15.7863 18.7553 15.7848 18.7673 15.7804 18.7784C15.776 18.7895 15.7687 18.7993 15.7595 18.8068C15.7455 18.8192 15.7275 18.8259 15.7088 18.8258H15.3797C15.3623 18.8259 15.3455 18.8194 15.3326 18.8077C15.3197 18.796 15.3117 18.7798 15.3101 18.7624C15.2278 18.4137 15.0379 18.3059 14.5189 18.3059C13.9367 18.3059 13.8671 18.5088 13.8671 18.661C13.8671 18.8449 13.9493 18.8956 14.7341 19.0034C15.5189 19.1112 15.8797 19.2507 15.8797 19.796C15.8797 20.3413 15.424 20.6647 14.6139 20.6647H14.6202ZM18.2658 17.5957C18.2658 17.6922 18.2372 17.7866 18.1837 17.8669C18.1301 17.9472 18.054 18.0098 17.9649 18.0468C17.8759 18.0837 17.7779 18.0934 17.6834 18.0745C17.5888 18.0557 17.502 18.0092 17.4338 17.9409C17.3657 17.8726 17.3193 17.7856 17.3005 17.6909C17.2817 17.5962 17.2913 17.498 17.3282 17.4088C17.3651 17.3196 17.4275 17.2433 17.5077 17.1897C17.5878 17.136 17.6821 17.1074 17.7784 17.1074C17.9077 17.1074 18.0316 17.1588 18.123 17.2504C18.2144 17.342 18.2658 17.4662 18.2658 17.5957ZM17.367 17.5957C17.3658 17.6774 17.3888 17.7577 17.4333 17.8264C17.4777 17.895 17.5415 17.9488 17.6166 17.981C17.6916 18.0131 17.7745 18.0222 17.8548 18.007C17.935 17.9918 18.0089 17.9531 18.067 17.8957C18.1252 17.8383 18.165 17.7649 18.1814 17.6848C18.1978 17.6047 18.19 17.5215 18.1591 17.4458C18.1281 17.3701 18.0754 17.3053 18.0076 17.2598C17.9399 17.2142 17.8601 17.1898 17.7784 17.1898C17.6704 17.1898 17.5667 17.2324 17.4898 17.3083C17.4128 17.3842 17.3687 17.4875 17.367 17.5957ZM17.5949 17.323H17.7848C17.8481 17.323 17.9746 17.323 17.9746 17.4688C17.9768 17.4996 17.9677 17.53 17.9491 17.5545C17.9304 17.5791 17.9035 17.5959 17.8734 17.602C17.943 17.602 17.9493 17.6591 17.962 17.7288C17.9637 17.7784 17.9722 17.8275 17.9873 17.8747H17.8734L17.8544 17.7035C17.8481 17.6718 17.8354 17.6527 17.7911 17.6527H17.7025V17.8747H17.5949V17.323ZM17.6962 17.564H17.7848C17.7953 17.5648 17.8058 17.5635 17.8158 17.5601C17.8257 17.5567 17.8349 17.5512 17.8426 17.544C17.8504 17.5369 17.8565 17.5282 17.8607 17.5185C17.8649 17.5089 17.8671 17.4984 17.867 17.4879C17.867 17.4118 17.8164 17.4118 17.7848 17.4118H17.6962V17.564Z" fill="#3F3F3F"/>
<path fill-rule="evenodd" clip-rule="evenodd" d="M6.01268 11.2356C6.01217 11.1787 5.99669 11.1229 5.9678 11.0739C5.93891 11.0249 5.89762 10.9845 5.84812 10.9566L3.16458 9.40935C3.11972 9.38536 3.06984 9.37232 3.01901 9.3713H2.98736C2.93656 9.37255 2.88673 9.38558 2.84179 9.40935L0.164575 10.9566C0.114135 10.985 0.0722469 11.0265 0.0432967 11.0767C0.0143465 11.1269 -0.00060117 11.1839 1.85129e-05 11.2419V15.4016C0.000544941 15.4308 0.00909589 15.4593 0.0247298 15.4839C0.0403636 15.5085 0.062474 15.5283 0.0886261 15.5412C0.11268 15.5551 0.139965 15.5624 0.16774 15.5624C0.195515 15.5624 0.2228 15.5551 0.246854 15.5412L1.84179 14.628C1.89179 14.5991 1.93332 14.5575 1.9622 14.5074C1.99109 14.4574 2.00631 14.4005 2.00635 14.3427V12.4087C2.00621 12.3524 2.02073 12.297 2.04848 12.2481C2.07623 12.1992 2.11625 12.1584 2.16458 12.1297L2.84812 11.7302C2.89616 11.702 2.95067 11.6867 3.00635 11.6858C3.06422 11.6852 3.12114 11.7006 3.1709 11.7302L3.84812 12.1233C3.89645 12.152 3.93646 12.1928 3.96421 12.2418C3.99196 12.2907 4.00649 12.346 4.00635 12.4023V14.3427C4.00702 14.4012 4.0232 14.4584 4.05323 14.5085C4.08326 14.5587 4.12605 14.5999 4.17723 14.628L5.75951 15.5412C5.7843 15.5563 5.81277 15.5643 5.84179 15.5643C5.87081 15.5643 5.89928 15.5563 5.92407 15.5412C5.94861 15.527 5.96908 15.5067 5.9835 15.4822C5.99791 15.4578 6.00578 15.43 6.00635 15.4016L6.01268 11.2356ZM18.9051 5.51594C18.88 5.50288 18.8521 5.4965 18.8238 5.49742C18.7956 5.49833 18.7681 5.5065 18.7439 5.52115C18.7198 5.5358 18.6998 5.55644 18.6859 5.58106C18.672 5.60569 18.6646 5.63349 18.6646 5.66178V9.78347C18.6633 9.8035 18.6568 9.82284 18.6457 9.83954C18.6346 9.85624 18.6193 9.86971 18.6013 9.87859C18.5847 9.88747 18.5663 9.89212 18.5475 9.89212C18.5287 9.89212 18.5102 9.88747 18.4937 9.87859L17.8228 9.49178C17.7745 9.46456 17.72 9.45026 17.6646 9.45026C17.6092 9.45026 17.5547 9.46456 17.5064 9.49178L14.8101 11.0453C14.7614 11.0735 14.721 11.1143 14.6932 11.1633C14.6654 11.2124 14.6511 11.2679 14.6519 11.3243V14.4251C14.6524 14.482 14.6679 14.5378 14.6968 14.5868C14.7257 14.6358 14.767 14.6762 14.8165 14.7041L17.4937 16.2577C17.5428 16.2861 17.5984 16.301 17.6551 16.301C17.7117 16.301 17.7674 16.2861 17.8165 16.2577L20.5 14.7041C20.5495 14.6762 20.5908 14.6358 20.6197 14.5868C20.6486 14.5378 20.6641 14.482 20.6646 14.4251V6.68904C20.6634 6.6315 20.647 6.57532 20.617 6.52627C20.5869 6.47722 20.5444 6.4371 20.4937 6.41003L18.9051 5.51594ZM18.6519 13.4042C18.652 13.4181 18.6485 13.4318 18.6419 13.444C18.6352 13.4562 18.6256 13.4665 18.6139 13.474L17.6962 14.0066C17.6837 14.0139 17.6695 14.0177 17.6551 14.0177C17.6406 14.0177 17.6265 14.0139 17.6139 14.0066L16.6962 13.474C16.6842 13.4678 16.6739 13.4589 16.6662 13.4478C16.6585 13.4367 16.6536 13.424 16.6519 13.4106V12.3389C16.6529 12.3261 16.6568 12.3137 16.6634 12.3027C16.67 12.2917 16.6791 12.2824 16.6899 12.2755L17.6139 11.7365C17.6265 11.7293 17.6406 11.7255 17.6551 11.7255C17.6695 11.7255 17.6837 11.7293 17.6962 11.7365L18.6139 12.2692C18.6268 12.2759 18.6377 12.2858 18.6455 12.2981C18.6532 12.3103 18.6576 12.3244 18.6582 12.3389L18.6519 13.4042ZM27.8355 12.3136C27.885 12.2857 27.9263 12.2452 27.9551 12.1962C27.984 12.1472 27.9995 12.0914 28 12.0345V11.28C27.9995 11.2231 27.984 11.1673 27.9551 11.1183C27.9263 11.0693 27.885 11.0288 27.8355 11.001L25.1709 9.4474C25.1218 9.41901 25.0662 9.40407 25.0095 9.40407C24.9529 9.40407 24.8972 9.41901 24.8481 9.4474L22.1646 11.001C22.1158 11.0292 22.0754 11.0699 22.0476 11.1189C22.0198 11.168 22.0056 11.2236 22.0064 11.28V14.3871C22.0069 14.444 22.0223 14.4997 22.0512 14.5487C22.0801 14.5977 22.1214 14.6382 22.1709 14.6661L24.8291 16.1879C24.8774 16.2152 24.9319 16.2295 24.9874 16.2295C25.0428 16.2295 25.0973 16.2152 25.1456 16.1879L26.7595 15.2875C26.7845 15.273 26.8052 15.2522 26.8196 15.2272C26.834 15.2021 26.8416 15.1737 26.8416 15.1448C26.8416 15.1159 26.834 15.0875 26.8196 15.0625C26.8052 15.0375 26.7845 15.0166 26.7595 15.0022L24.0633 13.4549C24.0388 13.4408 24.0183 13.4205 24.0039 13.396C23.9895 13.3716 23.9816 13.3438 23.981 13.3154V12.3453C23.981 12.3167 23.9886 12.2887 24.003 12.2642C24.0175 12.2396 24.0383 12.2194 24.0633 12.2058L24.9051 11.7175C24.9291 11.7036 24.9564 11.6963 24.9842 11.6963C25.012 11.6963 25.0393 11.7036 25.0633 11.7175L25.9051 12.2058C25.9301 12.2194 25.9509 12.2396 25.9654 12.2642C25.9798 12.2887 25.9874 12.3167 25.9874 12.3453V13.1062C25.9866 13.1347 25.9936 13.1628 26.0074 13.1877C26.0213 13.2126 26.0416 13.2332 26.0663 13.2475C26.0909 13.2618 26.1189 13.2692 26.1473 13.2688C26.1758 13.2685 26.2036 13.2605 26.2279 13.2457L27.8355 12.3136Z" fill="#3F3F3F"/>
<path fill-rule="evenodd" clip-rule="evenodd" d="M24.9683 12.1677C24.9779 12.1622 24.9889 12.1592 25 12.1592C25.0111 12.1592 25.022 12.1622 25.0316 12.1677L25.5506 12.4658C25.5596 12.4709 25.5672 12.4783 25.5728 12.4871C25.5783 12.496 25.5815 12.5061 25.5822 12.5165V13.1125C25.5826 13.124 25.5799 13.1354 25.5743 13.1455C25.5687 13.1555 25.5605 13.1639 25.5506 13.1696L25.0379 13.4676C25.0283 13.4732 25.0174 13.4761 25.0063 13.4761C24.9952 13.4761 24.9843 13.4732 24.9747 13.4676L24.4557 13.1696C24.4469 13.1631 24.4399 13.1544 24.4355 13.1444C24.4311 13.1344 24.4293 13.1234 24.4303 13.1125V12.5165C24.4303 12.5066 24.4326 12.4969 24.437 12.4881C24.4414 12.4793 24.4478 12.4717 24.4557 12.4658L24.9683 12.1677Z" fill="#3F3F3F"/>
<path fill-rule="evenodd" clip-rule="evenodd" d="M10.4937 9.46643C10.4456 9.43861 10.391 9.42396 10.3354 9.42396C10.2799 9.42396 10.2253 9.43861 10.1772 9.46643L7.49999 11.0137C7.45123 11.0419 7.41086 11.0826 7.38305 11.1316C7.35523 11.1807 7.34098 11.2363 7.34177 11.2927V14.3744C7.34098 14.4308 7.35523 14.4864 7.38305 14.5355C7.41086 14.5845 7.45123 14.6252 7.49999 14.6534L10.1646 16.1943C10.2127 16.2221 10.2672 16.2368 10.3228 16.2368C10.3783 16.2368 10.4329 16.2221 10.481 16.1943L13.1519 14.6534C13.2018 14.626 13.2435 14.5857 13.2724 14.5366C13.3014 14.4875 13.3166 14.4314 13.3165 14.3744V11.2863C13.3166 11.2293 13.3014 11.1733 13.2724 11.1242C13.2435 11.0751 13.2018 11.0347 13.1519 11.0073L10.4937 9.46643Z" fill="#3F3F3F"/>
<path fill-rule="evenodd" clip-rule="evenodd" d="M10.0443 8.92111L10.0822 8.89574L10.0949 8.92111H10.0443ZM7.49364 11.0073L10.1645 9.46644L10.1649 9.46624C10.2337 9.42655 10.3145 9.41311 10.3924 9.4284L10.3947 9.4323L10.405 9.43473L10.4037 9.43709L10.4092 9.43842L10.4114 9.43474C10.4402 9.44141 10.4678 9.45208 10.4937 9.46644L13.1645 11.0137H13.1645V11.0073C13.1921 11.0231 13.2177 11.0423 13.2405 11.0644C13.3001 11.1229 13.3342 11.2027 13.3354 11.2863V14.3744V14.3808C13.335 14.3887 13.3342 14.3966 13.3331 14.4045C13.3274 14.4512 13.3117 14.4963 13.287 14.5367C13.2572 14.5853 13.2153 14.6254 13.1654 14.6529L13.1645 14.6534L10.5 16.1943C10.4632 16.2168 10.4223 16.2319 10.3797 16.2387C10.3071 16.2481 10.2334 16.2324 10.1709 16.1943L7.49366 14.6534L7.49364 14.6534C7.44378 14.6254 7.40191 14.585 7.372 14.5362C7.36484 14.5245 7.35842 14.5124 7.35277 14.5C7.33424 14.461 7.32388 14.4183 7.32275 14.3744V11.2863C7.32484 11.2362 7.33808 11.1873 7.36139 11.1432C7.36473 11.1369 7.36826 11.1307 7.372 11.1246C7.40004 11.0788 7.43859 11.0404 7.48439 11.0127L7.49364 11.0073ZM13.3987 14.571L13.4177 14.6027L13.3987 14.6154V14.571Z" fill="#3F3F3F"/>
</g>
<defs>
<clipPath id="clip0">
<rect width="28" height="28" fill="white"/>
</clipPath>
</defs>
</svg>
