<svg width="28" height="28" viewBox="0 0 28 28" fill="none" xmlns="http://www.w3.org/2000/svg">
<path d="M27.99 14.0431C27.99 12.1913 25.6679 10.4364 22.1079 9.34813C22.9294 5.72437 22.5643 2.84131 20.9554 1.91827C20.5845 1.70176 20.1509 1.5992 19.6774 1.5992V2.86979C19.9399 2.86979 20.1509 2.92107 20.3278 3.01794C21.1037 3.46236 21.4403 5.15459 21.1779 7.33113C21.1151 7.86672 21.0124 8.4308 20.8869 9.00627C19.7687 8.73278 18.5478 8.52196 17.2641 8.38522C16.4939 7.33113 15.6951 6.37391 14.8907 5.53634C16.7506 3.80992 18.4964 2.8641 19.6831 2.8641V1.5935C18.1142 1.5935 16.0603 2.71026 13.9836 4.64749C11.9069 2.72165 9.85297 1.61629 8.28403 1.61629V2.88689C9.46501 2.88689 11.2165 3.82702 13.0764 5.54204C12.2777 6.37961 11.479 7.33113 10.7202 8.38522C9.43078 8.52196 8.20986 8.73278 7.09163 9.01197C6.96041 8.44219 6.86342 7.88951 6.79495 7.35962C6.52681 5.18308 6.85771 3.49085 7.62792 3.04073C7.79908 2.93817 8.02158 2.89259 8.28403 2.89259V1.62199C7.80478 1.62199 7.37119 1.72455 6.99464 1.94106C5.39146 2.8641 5.03203 5.74146 5.85929 9.35383C2.31063 10.4478 0 12.197 0 14.0431C0 15.8948 2.32204 17.6498 5.88211 18.738C5.06056 22.3618 5.42569 25.2449 7.03458 26.1679C7.40542 26.3844 7.83902 26.487 8.31826 26.487C9.8872 26.487 11.9411 25.3702 14.0178 23.433C16.0945 25.3588 18.1484 26.4642 19.7174 26.4642C20.1966 26.4642 20.6302 26.3616 21.0067 26.1451C22.6099 25.2221 22.9693 22.3447 22.1421 18.7323C25.6793 17.6441 27.99 15.8892 27.99 14.0431ZM20.5617 10.2427C20.3506 10.9777 20.0882 11.7355 19.7915 12.4933C19.5576 12.0375 19.3123 11.5817 19.0441 11.1258C18.7817 10.67 18.5021 10.2256 18.2226 9.79256C19.0327 9.91221 19.8143 10.0604 20.5617 10.2427ZM17.9487 16.3108C17.5037 17.08 17.0473 17.8093 16.5738 18.4873C15.7237 18.5614 14.8622 18.6013 13.995 18.6013C13.1335 18.6013 12.272 18.5614 11.4276 18.493C10.9541 17.815 10.492 17.0914 10.0469 16.3279C9.61335 15.5815 9.21969 14.8237 8.86026 14.0602C9.21398 13.2967 9.61335 12.5332 10.0412 11.7868C10.4863 11.0176 10.9427 10.2883 11.4162 9.61023C12.2663 9.53616 13.1278 9.49628 13.995 9.49628C14.8565 9.49628 15.718 9.53616 16.5623 9.60453C17.0359 10.2826 17.498 11.0062 17.943 11.7697C18.3766 12.5161 18.7703 13.2739 19.1297 14.0374C18.7703 14.8009 18.3766 15.5644 17.9487 16.3108ZM19.7915 15.5701C20.0996 16.3336 20.362 17.0971 20.5788 17.8378C19.8315 18.0201 19.0441 18.1739 18.2283 18.2936C18.5078 17.8549 18.7874 17.4048 19.0498 16.9432C19.3123 16.4874 19.5576 16.0259 19.7915 15.5701ZM14.0064 21.6496C13.4758 21.1026 12.9452 20.4929 12.4203 19.8263C12.9338 19.8491 13.4587 19.8662 13.9893 19.8662C14.5256 19.8662 15.0562 19.8548 15.5753 19.8263C15.0619 20.4929 14.5313 21.1026 14.0064 21.6496ZM9.76169 18.2936C8.95154 18.1739 8.16992 18.0258 7.42253 17.8435C7.63363 17.1085 7.89607 16.3507 8.19274 15.5929C8.42666 16.0487 8.67198 16.5045 8.94013 16.9603C9.20828 17.4161 9.48213 17.8606 9.76169 18.2936ZM13.9779 6.43658C14.5085 6.98357 15.039 7.59323 15.5639 8.25986C15.0505 8.23707 14.5256 8.21998 13.995 8.21998C13.4587 8.21998 12.9281 8.23138 12.4089 8.25986C12.9224 7.59323 13.453 6.98357 13.9779 6.43658ZM9.75598 9.79256C9.47643 10.2313 9.19687 10.6814 8.93442 11.1429C8.67198 11.5987 8.42666 12.0546 8.19274 12.5104C7.88466 11.7469 7.62222 10.9834 7.40542 10.2427C8.15281 10.0661 8.94013 9.91221 9.75598 9.79256ZM4.59273 16.9261C2.57307 16.0658 1.26657 14.9376 1.26657 14.0431C1.26657 13.1485 2.57307 12.0147 4.59273 11.16C5.08338 10.9492 5.61967 10.7612 6.17308 10.5845C6.49828 11.7013 6.92618 12.8636 7.45676 14.0545C6.93188 15.2396 6.50969 16.3962 6.1902 17.5073C5.62538 17.3307 5.08909 17.137 4.59273 16.9261ZM7.66215 25.0682C6.88624 24.6238 6.54963 22.9316 6.81207 20.755C6.87483 20.2194 6.97752 19.6554 7.10304 19.0799C8.22127 19.3534 9.44219 19.5642 10.7259 19.7009C11.4961 20.755 12.2948 21.7122 13.0993 22.5498C11.2393 24.2762 9.49354 25.2221 8.30685 25.2221C8.05011 25.2164 7.83331 25.1651 7.66215 25.0682ZM21.195 20.7265C21.4632 22.9031 21.1323 24.5953 20.362 25.0454C20.1909 25.148 19.9684 25.1936 19.7059 25.1936C18.525 25.1936 16.7734 24.2534 14.9135 22.5384C15.7123 21.7009 16.511 20.7493 17.2698 19.6952C18.5592 19.5585 19.7801 19.3477 20.8983 19.0685C21.0296 19.644 21.1323 20.1966 21.195 20.7265ZM23.3915 16.9261C22.9009 17.137 22.3646 17.325 21.8112 17.5016C21.486 16.3849 21.0581 15.2225 20.5275 14.0317C21.0524 12.8466 21.4746 11.6899 21.7941 10.5788C22.3589 10.7555 22.8952 10.9492 23.3972 11.16C25.4169 12.0204 26.7234 13.1485 26.7234 14.0431C26.7177 14.9376 25.4112 16.0715 23.3915 16.9261Z" fill="currentColor"/>
<path d="M13.9894 16.5899C15.4294 16.5899 16.5967 15.4241 16.5967 13.986C16.5967 12.5479 15.4294 11.3821 13.9894 11.3821C12.5495 11.3821 11.3821 12.5479 11.3821 13.986C11.3821 15.4241 12.5495 16.5899 13.9894 16.5899Z" fill="currentColor"/>
</svg>
