<svg width="28" height="28" viewBox="0 0 28 28" fill="none" xmlns="http://www.w3.org/2000/svg">
<path fill-rule="evenodd" clip-rule="evenodd" d="M1.0226 1H26.2468C26.8116 1 27.2694 1.45331 27.2694 2.0125V26.9875C27.2694 27.5467 26.8116 28 26.2468 28H1.0226C0.457834 28 0 27.5467 0 26.9875V2.0125C0 1.45331 0.457834 1 1.0226 1ZM15.1589 15.3644V13.15H5.45387V15.3644H8.91873V25.2242H11.677V15.3644H15.1589ZM16.2586 24.9639C16.7033 25.1884 17.2294 25.3568 17.8367 25.4691C18.4441 25.5813 19.0842 25.6375 19.7571 25.6375C20.4129 25.6375 21.0359 25.5757 21.6262 25.4522C22.2163 25.3288 22.7338 25.1252 23.1786 24.8417C23.6234 24.5582 23.9756 24.1878 24.235 23.7303C24.4945 23.2727 24.6242 22.7072 24.6242 22.0335C24.6242 21.5451 24.5501 21.1172 24.4018 20.7495C24.2536 20.3817 24.0398 20.0547 23.7603 19.7684C23.4809 19.4821 23.1458 19.2253 22.7552 18.998C22.3645 18.7707 21.9241 18.5559 21.4337 18.3538C21.0744 18.2078 20.7521 18.0661 20.4671 17.9286C20.1819 17.7911 19.9395 17.6507 19.74 17.5076C19.5404 17.3644 19.3865 17.2129 19.2781 17.0529C19.1697 16.8929 19.1156 16.7118 19.1156 16.5097C19.1156 16.3245 19.164 16.1575 19.261 16.0088C19.358 15.86 19.4947 15.7322 19.6716 15.6256C19.8484 15.5189 20.065 15.4362 20.3217 15.3772C20.5782 15.3183 20.8634 15.2888 21.177 15.2888C21.4052 15.2888 21.6461 15.3056 21.8998 15.3393C22.1536 15.373 22.4088 15.425 22.6654 15.4951C22.922 15.5653 23.1716 15.6536 23.4139 15.7604C23.6563 15.867 23.8801 15.9905 24.0854 16.1308V13.6132C23.669 13.4559 23.2143 13.3394 22.721 13.2637C22.2277 13.1879 21.6617 13.15 21.023 13.15C20.373 13.15 19.7571 13.2187 19.1754 13.3563C18.5938 13.4938 18.082 13.7086 17.64 14.0005C17.198 14.2924 16.8487 14.6643 16.5922 15.1161C16.3355 15.5681 16.2072 16.1084 16.2072 16.7371C16.2072 17.5399 16.4424 18.2248 16.9129 18.7917C17.3834 19.3587 18.0976 19.8386 19.0557 20.2316C19.4321 20.3832 19.7827 20.5319 20.1078 20.6779C20.4328 20.8238 20.7137 20.9754 20.9503 21.1326C21.187 21.2898 21.3737 21.4609 21.5106 21.6462C21.6475 21.8314 21.716 22.0419 21.716 22.2778C21.716 22.4518 21.6731 22.6132 21.5876 22.7619C21.502 22.9107 21.3723 23.0398 21.1984 23.1492C21.0245 23.2587 20.8078 23.3444 20.5484 23.4061C20.2889 23.4678 19.9852 23.4987 19.6373 23.4987C19.0443 23.4987 18.4569 23.3963 17.8752 23.1914C17.2936 22.9865 16.7547 22.6791 16.2586 22.2694V24.9639Z" fill="currentColor"/>
</svg>
