<svg width="28" height="28" viewBox="0 0 28 28" fill="none" xmlns="http://www.w3.org/2000/svg">
<path d="M8.08488 4.82725C8.4754 4.43672 8.47538 3.80355 8.08484 3.41304L7.96466 3.29287C7.57413 2.90236 6.94096 2.90238 6.55045 3.29292L4.12881 5.71471C3.7383 6.10524 3.10513 6.10526 2.7146 5.71475L1.82725 4.82746C1.43672 4.43695 0.803551 4.43697 0.413039 4.82751L0.292871 4.94768C-0.0976413 5.33822 -0.0976208 5.97138 0.292916 6.3619L2.71474 8.78357C3.10528 9.17408 3.73844 9.17406 4.12895 8.78353L4.95618 7.9562L8.08488 4.82725Z" fill="currentColor"/>
<path d="M8.08488 12.8273C8.4754 12.4367 8.47538 11.8036 8.08484 11.413L7.96466 11.2929C7.57413 10.9024 6.94096 10.9024 6.55045 11.2929L4.12881 13.7147C3.7383 14.1052 3.10513 14.1053 2.7146 13.7148L1.82725 12.8275C1.43672 12.4369 0.803551 12.437 0.413039 12.8275L0.292871 12.9477C-0.0976413 13.3382 -0.0976208 13.9714 0.292916 14.3619L2.71474 16.7836C3.10528 17.1741 3.73844 17.1741 4.12895 16.7835L4.95618 15.9562L8.08488 12.8273Z" fill="currentColor"/>
<path d="M8.08488 20.8273C8.4754 20.4367 8.47538 19.8036 8.08484 19.413L7.96466 19.2929C7.57413 18.9024 6.94096 18.9024 6.55045 19.2929L4.12881 21.7147C3.7383 22.1052 3.10513 22.1053 2.7146 21.7148L1.82725 20.8275C1.43672 20.4369 0.803551 20.437 0.413039 20.8275L0.292871 20.9477C-0.0976413 21.3382 -0.0976208 21.9714 0.292916 22.3619L2.71474 24.7836C3.10528 25.1741 3.73844 25.1741 4.12895 24.7835L4.95618 23.9562L8.08488 20.8273Z" fill="currentColor"/>
<path d="M11 5.5C11 4.67157 11.6716 4 12.5 4H26.5C27.3284 4 28 4.67157 28 5.5C28 6.32843 27.3284 7 26.5 7H12.5C11.6716 7 11 6.32843 11 5.5Z" fill="currentColor"/>
<path d="M11 13.5C11 12.6716 11.6716 12 12.5 12H26.5C27.3284 12 28 12.6716 28 13.5C28 14.3284 27.3284 15 26.5 15H12.5C11.6716 15 11 14.3284 11 13.5Z" fill="currentColor"/>
<path d="M11 21.5C11 20.6716 11.6716 20 12.5 20H26.5C27.3284 20 28 20.6716 28 21.5C28 22.3284 27.3284 23 26.5 23H12.5C11.6716 23 11 22.3284 11 21.5Z" fill="currentColor"/>
</svg>
